%TF.GenerationSoftware,KiCad,Pcbnew,(5.1.9)-1*%
%TF.CreationDate,2021-09-03T13:00:36+02:00*%
%TF.ProjectId,ZX81 Intern 32K,5a583831-2049-46e7-9465-726e2033324b,rev?*%
%TF.SameCoordinates,Original*%
%TF.FileFunction,Copper,L1,Top*%
%TF.FilePolarity,Positive*%
%FSLAX46Y46*%
G04 Gerber Fmt 4.6, Leading zero omitted, Abs format (unit mm)*
G04 Created by KiCad (PCBNEW (5.1.9)-1) date 2021-09-03 13:00:36*
%MOMM*%
%LPD*%
G01*
G04 APERTURE LIST*
%TA.AperFunction,ComponentPad*%
%ADD10R,1.700000X1.700000*%
%TD*%
%TA.AperFunction,ComponentPad*%
%ADD11R,1.600000X1.600000*%
%TD*%
%TA.AperFunction,ComponentPad*%
%ADD12O,1.600000X1.600000*%
%TD*%
%TA.AperFunction,SMDPad,CuDef*%
%ADD13R,1.000000X1.600000*%
%TD*%
%TA.AperFunction,SMDPad,CuDef*%
%ADD14R,0.900000X1.700000*%
%TD*%
%TA.AperFunction,SMDPad,CuDef*%
%ADD15R,2.000000X0.600000*%
%TD*%
%TA.AperFunction,ViaPad*%
%ADD16C,0.800000*%
%TD*%
%TA.AperFunction,Conductor*%
%ADD17C,0.500000*%
%TD*%
G04 APERTURE END LIST*
D10*
%TO.P,J3,1*%
%TO.N,Net-(J3-Pad1)*%
X116320000Y-108052000D03*
%TD*%
D11*
%TO.P,REF\u002A\u002A,1*%
%TO.N,N/C*%
X110795000Y-71602600D03*
D12*
%TO.P,REF\u002A\u002A,15*%
%TO.N,Net-(U1-Pad15)*%
X126035000Y-104622600D03*
%TO.P,REF\u002A\u002A,2*%
%TO.N,N/C*%
X110795000Y-74142600D03*
%TO.P,REF\u002A\u002A,16*%
%TO.N,Net-(U1-Pad16)*%
X126035000Y-102082600D03*
%TO.P,REF\u002A\u002A,3*%
%TO.N,Net-(U1-Pad3)*%
X110795000Y-76682600D03*
%TO.P,REF\u002A\u002A,17*%
%TO.N,Net-(U1-Pad17)*%
X126035000Y-99542600D03*
%TO.P,REF\u002A\u002A,4*%
%TO.N,Net-(U1-Pad4)*%
X110795000Y-79222600D03*
%TO.P,REF\u002A\u002A,18*%
%TO.N,Net-(U1-Pad18)*%
X126035000Y-97002600D03*
%TO.P,REF\u002A\u002A,5*%
%TO.N,Net-(U1-Pad5)*%
X110795000Y-81762600D03*
%TO.P,REF\u002A\u002A,19*%
%TO.N,Net-(U1-Pad19)*%
X126035000Y-94462600D03*
%TO.P,REF\u002A\u002A,6*%
%TO.N,Net-(U1-Pad6)*%
X110795000Y-84302600D03*
%TO.P,REF\u002A\u002A,20*%
%TO.N,Net-(U1-Pad20)*%
X126035000Y-91922600D03*
%TO.P,REF\u002A\u002A,7*%
%TO.N,Net-(U1-Pad7)*%
X110795000Y-86842600D03*
%TO.P,REF\u002A\u002A,21*%
%TO.N,Net-(U1-Pad21)*%
X126035000Y-89382600D03*
%TO.P,REF\u002A\u002A,8*%
%TO.N,Net-(U1-Pad8)*%
X110795000Y-89382600D03*
%TO.P,REF\u002A\u002A,22*%
%TO.N,Net-(U1-Pad22)*%
X126035000Y-86842600D03*
%TO.P,REF\u002A\u002A,9*%
%TO.N,Net-(U1-Pad9)*%
X110795000Y-91922600D03*
%TO.P,REF\u002A\u002A,23*%
%TO.N,N/C*%
X126035000Y-84302600D03*
%TO.P,REF\u002A\u002A,10*%
%TO.N,Net-(U1-Pad10)*%
X110795000Y-94462600D03*
%TO.P,REF\u002A\u002A,24*%
%TO.N,Net-(U1-Pad24)*%
X126035000Y-81762600D03*
%TO.P,REF\u002A\u002A,11*%
%TO.N,Net-(U1-Pad11)*%
X110795000Y-97002600D03*
%TO.P,REF\u002A\u002A,25*%
%TO.N,Net-(U1-Pad25)*%
X126035000Y-79222600D03*
%TO.P,REF\u002A\u002A,12*%
%TO.N,Net-(U1-Pad12)*%
X110795000Y-99542600D03*
%TO.P,REF\u002A\u002A,26*%
%TO.N,N/C*%
X126035000Y-76682600D03*
%TO.P,REF\u002A\u002A,13*%
%TO.N,Net-(U1-Pad13)*%
X110795000Y-102082600D03*
%TO.P,REF\u002A\u002A,27*%
%TO.N,Net-(R1-Pad2)*%
X126035000Y-74142600D03*
%TO.P,REF\u002A\u002A,14*%
%TO.N,GND*%
X110795000Y-104622600D03*
%TO.P,REF\u002A\u002A,28*%
%TO.N,+5V*%
X126035000Y-71602600D03*
%TD*%
D13*
%TO.P,C1,2*%
%TO.N,GND*%
X120093000Y-103810000D03*
%TO.P,C1,1*%
%TO.N,+5V*%
X117093000Y-103810000D03*
%TD*%
D10*
%TO.P,J1,1*%
%TO.N,Net-(J1-Pad1)*%
X125200000Y-108052000D03*
%TD*%
%TO.P,J2,1*%
%TO.N,Net-(J2-Pad1)*%
X120870000Y-108052000D03*
%TD*%
%TO.P,J4,1*%
%TO.N,Net-(J4-Pad1)*%
X111450000Y-108052000D03*
%TD*%
D14*
%TO.P,R1,2*%
%TO.N,Net-(R1-Pad2)*%
X122887000Y-73761600D03*
%TO.P,R1,1*%
%TO.N,+5V*%
X119987000Y-73761600D03*
%TD*%
D15*
%TO.P,U1,28*%
%TO.N,+5V*%
X123191000Y-83108800D03*
%TO.P,U1,27*%
%TO.N,Net-(R1-Pad2)*%
X123191000Y-84378800D03*
%TO.P,U1,26*%
%TO.N,Net-(J2-Pad1)*%
X123191000Y-85648800D03*
%TO.P,U1,25*%
%TO.N,Net-(U1-Pad25)*%
X123191000Y-86918800D03*
%TO.P,U1,24*%
%TO.N,Net-(U1-Pad24)*%
X123191000Y-88188800D03*
%TO.P,U1,23*%
%TO.N,Net-(J4-Pad1)*%
X123191000Y-89458800D03*
%TO.P,U1,22*%
%TO.N,Net-(U1-Pad22)*%
X123191000Y-90728800D03*
%TO.P,U1,21*%
%TO.N,Net-(U1-Pad21)*%
X123191000Y-91998800D03*
%TO.P,U1,20*%
%TO.N,Net-(U1-Pad20)*%
X123191000Y-93268800D03*
%TO.P,U1,19*%
%TO.N,Net-(U1-Pad19)*%
X123191000Y-94538800D03*
%TO.P,U1,18*%
%TO.N,Net-(U1-Pad18)*%
X123191000Y-95808800D03*
%TO.P,U1,17*%
%TO.N,Net-(U1-Pad17)*%
X123191000Y-97078800D03*
%TO.P,U1,16*%
%TO.N,Net-(U1-Pad16)*%
X123191000Y-98348800D03*
%TO.P,U1,15*%
%TO.N,Net-(U1-Pad15)*%
X123191000Y-99618800D03*
%TO.P,U1,14*%
%TO.N,GND*%
X113791000Y-99618800D03*
%TO.P,U1,13*%
%TO.N,Net-(U1-Pad13)*%
X113791000Y-98348800D03*
%TO.P,U1,12*%
%TO.N,Net-(U1-Pad12)*%
X113791000Y-97078800D03*
%TO.P,U1,11*%
%TO.N,Net-(U1-Pad11)*%
X113791000Y-95808800D03*
%TO.P,U1,10*%
%TO.N,Net-(U1-Pad10)*%
X113791000Y-94538800D03*
%TO.P,U1,9*%
%TO.N,Net-(U1-Pad9)*%
X113791000Y-93268800D03*
%TO.P,U1,8*%
%TO.N,Net-(U1-Pad8)*%
X113791000Y-91998800D03*
%TO.P,U1,7*%
%TO.N,Net-(U1-Pad7)*%
X113791000Y-90728800D03*
%TO.P,U1,6*%
%TO.N,Net-(U1-Pad6)*%
X113791000Y-89458800D03*
%TO.P,U1,5*%
%TO.N,Net-(U1-Pad5)*%
X113791000Y-88188800D03*
%TO.P,U1,4*%
%TO.N,Net-(U1-Pad4)*%
X113791000Y-86918800D03*
%TO.P,U1,3*%
%TO.N,Net-(U1-Pad3)*%
X113791000Y-85648800D03*
%TO.P,U1,2*%
%TO.N,Net-(J3-Pad1)*%
X113791000Y-84378800D03*
%TO.P,U1,1*%
%TO.N,Net-(J1-Pad1)*%
X113791000Y-83108800D03*
%TD*%
D16*
%TO.N,GND*%
X119862500Y-102396000D03*
X112345700Y-100390900D03*
%TO.N,Net-(J2-Pad1)*%
X118260000Y-88880000D03*
%TO.N,Net-(J3-Pad1)*%
X113860000Y-79830000D03*
%TO.N,Net-(U1-Pad24)*%
X121563900Y-87466100D03*
%TO.N,Net-(U1-Pad5)*%
X112118400Y-85875800D03*
%TO.N,Net-(U1-Pad21)*%
X120480000Y-90040000D03*
%TD*%
D17*
%TO.N,GND*%
X120093000Y-102559700D02*
X120026200Y-102559700D01*
X120026200Y-102559700D02*
X119862500Y-102396000D01*
X120093000Y-103810000D02*
X120093000Y-102559700D01*
X112340700Y-99618800D02*
X112340700Y-100385900D01*
X112340700Y-100385900D02*
X112345700Y-100390900D01*
X113791000Y-99618800D02*
X112340700Y-99618800D01*
%TO.N,+5V*%
X121740700Y-83108800D02*
X117093000Y-87756500D01*
X117093000Y-87756500D02*
X117093000Y-103810000D01*
X121915800Y-83108800D02*
X121740700Y-83108800D01*
X123191000Y-83108800D02*
X121915800Y-83108800D01*
X121740700Y-83108800D02*
X121740700Y-74615000D01*
X121740700Y-74615000D02*
X120887300Y-73761600D01*
X119987000Y-73761600D02*
X120887300Y-73761600D01*
X126035000Y-71915100D02*
X122733800Y-71915100D01*
X122733800Y-71915100D02*
X120887300Y-73761600D01*
X126035000Y-71602600D02*
X126035000Y-71915100D01*
%TO.N,Net-(J1-Pad1)*%
X122942000Y-110310000D02*
X125200000Y-108052000D01*
X109380000Y-110310000D02*
X122942000Y-110310000D01*
X108094300Y-109024300D02*
X109380000Y-110310000D01*
X108094300Y-85179400D02*
X108094300Y-109024300D01*
X110221600Y-83052100D02*
X108094300Y-85179400D01*
X112284000Y-83052100D02*
X110221600Y-83052100D01*
X112340700Y-83108800D02*
X112284000Y-83052100D01*
X113791000Y-83108800D02*
X112340700Y-83108800D01*
%TO.N,Net-(J2-Pad1)*%
X123191000Y-85648800D02*
X121301200Y-85648800D01*
X118260000Y-88690000D02*
X118260000Y-88880000D01*
X121301200Y-85648800D02*
X118260000Y-88690000D01*
%TO.N,Net-(J3-Pad1)*%
X115241001Y-83768801D02*
X115241001Y-80841001D01*
X114631002Y-84378800D02*
X115241001Y-83768801D01*
X113791000Y-84378800D02*
X114631002Y-84378800D01*
X114230000Y-79830000D02*
X113860000Y-79830000D01*
X115241001Y-80841001D02*
X114230000Y-79830000D01*
%TO.N,Net-(R1-Pad2)*%
X124476500Y-74450800D02*
X123787300Y-73761600D01*
X124641300Y-84378800D02*
X124641300Y-74615600D01*
X124641300Y-74615600D02*
X124476500Y-74450800D01*
X124476500Y-74450800D02*
X124784700Y-74142600D01*
X126035000Y-74142600D02*
X124784700Y-74142600D01*
X122887000Y-73761600D02*
X123787300Y-73761600D01*
X123191000Y-84378800D02*
X124641300Y-84378800D01*
%TO.N,Net-(U1-Pad25)*%
X126035000Y-79222600D02*
X126035000Y-80472900D01*
X123191000Y-86918800D02*
X124641300Y-86918800D01*
X124641300Y-86918800D02*
X124641300Y-86436100D01*
X124641300Y-86436100D02*
X125504800Y-85572600D01*
X125504800Y-85572600D02*
X126593600Y-85572600D01*
X126593600Y-85572600D02*
X127324600Y-84841600D01*
X127324600Y-84841600D02*
X127324600Y-81218600D01*
X127324600Y-81218600D02*
X126578900Y-80472900D01*
X126578900Y-80472900D02*
X126035000Y-80472900D01*
%TO.N,Net-(U1-Pad24)*%
X123191000Y-88188800D02*
X121740700Y-88188800D01*
X121740700Y-88188800D02*
X121740700Y-87642900D01*
X121740700Y-87642900D02*
X121563900Y-87466100D01*
%TO.N,Net-(U1-Pad22)*%
X126035000Y-86842600D02*
X126035000Y-88092900D01*
X123191000Y-90728800D02*
X124641300Y-90728800D01*
X124641300Y-90728800D02*
X124641300Y-88942700D01*
X124641300Y-88942700D02*
X125491100Y-88092900D01*
X125491100Y-88092900D02*
X126035000Y-88092900D01*
%TO.N,Net-(U1-Pad20)*%
X123191000Y-93268800D02*
X124641300Y-93268800D01*
X126035000Y-91922600D02*
X124784700Y-91922600D01*
X124641300Y-93268800D02*
X124641300Y-92066000D01*
X124641300Y-92066000D02*
X124784700Y-91922600D01*
%TO.N,Net-(U1-Pad19)*%
X126035000Y-94462600D02*
X124784700Y-94462600D01*
X123191000Y-94538800D02*
X124708500Y-94538800D01*
X124708500Y-94538800D02*
X124784700Y-94462600D01*
%TO.N,Net-(U1-Pad18)*%
X123191000Y-95808800D02*
X124841200Y-95808800D01*
X124841200Y-95808800D02*
X126035000Y-97002600D01*
%TO.N,Net-(U1-Pad17)*%
X126035000Y-99542600D02*
X126035000Y-98292300D01*
X123191000Y-97078800D02*
X124641300Y-97078800D01*
X124641300Y-97078800D02*
X124641300Y-97409900D01*
X124641300Y-97409900D02*
X125523700Y-98292300D01*
X125523700Y-98292300D02*
X126035000Y-98292300D01*
%TO.N,Net-(U1-Pad16)*%
X126035000Y-102082600D02*
X126035000Y-100832300D01*
X126035000Y-100832300D02*
X125487900Y-100832300D01*
X125487900Y-100832300D02*
X124784700Y-100129100D01*
X124784700Y-100129100D02*
X124784700Y-99230700D01*
X124784700Y-99230700D02*
X123902800Y-98348800D01*
X123902800Y-98348800D02*
X123191000Y-98348800D01*
%TO.N,Net-(U1-Pad15)*%
X126035000Y-104622600D02*
X126035000Y-103372300D01*
X123191000Y-99618800D02*
X123191000Y-101072200D01*
X123191000Y-101072200D02*
X125491100Y-103372300D01*
X125491100Y-103372300D02*
X126035000Y-103372300D01*
%TO.N,Net-(U1-Pad13)*%
X110795000Y-102082600D02*
X110795000Y-100832300D01*
X113791000Y-98348800D02*
X112340700Y-98348800D01*
X112340700Y-98348800D02*
X112264500Y-98272600D01*
X112264500Y-98272600D02*
X110262400Y-98272600D01*
X110262400Y-98272600D02*
X109505400Y-99029600D01*
X109505400Y-99029600D02*
X109505400Y-100086600D01*
X109505400Y-100086600D02*
X110251100Y-100832300D01*
X110251100Y-100832300D02*
X110795000Y-100832300D01*
%TO.N,Net-(U1-Pad12)*%
X115241300Y-97078800D02*
X115241300Y-100123400D01*
X115241300Y-100123400D02*
X114123300Y-101241400D01*
X114123300Y-101241400D02*
X111989700Y-101241400D01*
X111989700Y-101241400D02*
X111495300Y-100747000D01*
X111495300Y-100747000D02*
X111495300Y-100242900D01*
X111495300Y-100242900D02*
X110795000Y-99542600D01*
X113791000Y-97078800D02*
X115241300Y-97078800D01*
%TO.N,Net-(U1-Pad11)*%
X113791000Y-95808800D02*
X112340700Y-95808800D01*
X110795000Y-97002600D02*
X112045300Y-97002600D01*
X112340700Y-95808800D02*
X112340700Y-96707200D01*
X112340700Y-96707200D02*
X112045300Y-97002600D01*
%TO.N,Net-(U1-Pad10)*%
X110795000Y-94462600D02*
X112045300Y-94462600D01*
X113791000Y-94538800D02*
X112121500Y-94538800D01*
X112121500Y-94538800D02*
X112045300Y-94462600D01*
%TO.N,Net-(U1-Pad9)*%
X113791000Y-93268800D02*
X112340700Y-93268800D01*
X110795000Y-91922600D02*
X112045300Y-91922600D01*
X112340700Y-93268800D02*
X112340700Y-92218000D01*
X112340700Y-92218000D02*
X112045300Y-91922600D01*
%TO.N,Net-(U1-Pad8)*%
X110795000Y-89382600D02*
X110795000Y-90632900D01*
X110795000Y-90632900D02*
X111746100Y-90632900D01*
X111746100Y-90632900D02*
X113112000Y-91998800D01*
X113112000Y-91998800D02*
X113791000Y-91998800D01*
%TO.N,Net-(U1-Pad7)*%
X110795000Y-86842600D02*
X110795000Y-88092900D01*
X110795000Y-88092900D02*
X111342100Y-88092900D01*
X111342100Y-88092900D02*
X112045300Y-88796100D01*
X112045300Y-88796100D02*
X112045300Y-89702000D01*
X112045300Y-89702000D02*
X113072100Y-90728800D01*
X113072100Y-90728800D02*
X113791000Y-90728800D01*
%TO.N,Net-(U1-Pad6)*%
X110795000Y-84302600D02*
X110795000Y-85552900D01*
X113791000Y-89458800D02*
X115241300Y-89458800D01*
X115241300Y-89458800D02*
X115942100Y-90159600D01*
X115942100Y-90159600D02*
X115942100Y-100419800D01*
X115942100Y-100419800D02*
X113009300Y-103352600D01*
X113009300Y-103352600D02*
X110249700Y-103352600D01*
X110249700Y-103352600D02*
X108794600Y-101897500D01*
X108794600Y-101897500D02*
X108794600Y-87009400D01*
X108794600Y-87009400D02*
X110251100Y-85552900D01*
X110251100Y-85552900D02*
X110795000Y-85552900D01*
%TO.N,Net-(U1-Pad5)*%
X113791000Y-88188800D02*
X113109800Y-88188800D01*
X113109800Y-88188800D02*
X112118400Y-87197400D01*
X112118400Y-87197400D02*
X112118400Y-85875800D01*
%TO.N,Net-(U1-Pad4)*%
X110795000Y-79222600D02*
X110795000Y-77972300D01*
X113791000Y-86918800D02*
X115241300Y-86918800D01*
X115241300Y-86918800D02*
X116652400Y-85507700D01*
X116652400Y-85507700D02*
X116652400Y-75218700D01*
X116652400Y-75218700D02*
X111785900Y-70352200D01*
X111785900Y-70352200D02*
X109805000Y-70352200D01*
X109805000Y-70352200D02*
X108756100Y-71401100D01*
X108756100Y-71401100D02*
X108756100Y-76477300D01*
X108756100Y-76477300D02*
X110251100Y-77972300D01*
X110251100Y-77972300D02*
X110795000Y-77972300D01*
%TO.N,Net-(U1-Pad3)*%
X113791000Y-85648800D02*
X115241300Y-85648800D01*
X115241300Y-85648800D02*
X115941600Y-84948500D01*
X115941600Y-84948500D02*
X115941600Y-77520400D01*
X115941600Y-77520400D02*
X111274200Y-72853000D01*
X111274200Y-72853000D02*
X110311400Y-72853000D01*
X110311400Y-72853000D02*
X109505400Y-73659000D01*
X109505400Y-73659000D02*
X109505400Y-75393000D01*
X109505400Y-75393000D02*
X110795000Y-76682600D01*
%TO.N,Net-(U1-Pad21)*%
X123191000Y-91998800D02*
X121978800Y-91998800D01*
X120480000Y-90500000D02*
X120480000Y-90040000D01*
X121978800Y-91998800D02*
X120480000Y-90500000D01*
%TO.N,Net-(J4-Pad1)*%
X121691000Y-89458800D02*
X120992200Y-88760000D01*
X123191000Y-89458800D02*
X121691000Y-89458800D01*
X120501998Y-88760000D02*
X118620000Y-90641998D01*
X120992200Y-88760000D02*
X120501998Y-88760000D01*
X118620000Y-90641998D02*
X118620000Y-108500000D01*
X118620000Y-108500000D02*
X117510010Y-109609990D01*
X113007990Y-109609990D02*
X111450000Y-108052000D01*
X117510010Y-109609990D02*
X113007990Y-109609990D01*
%TD*%
M02*
