%TF.GenerationSoftware,KiCad,Pcbnew,(5.1.9)-1*%
%TF.CreationDate,2021-09-03T13:00:36+02:00*%
%TF.ProjectId,ZX81 Intern 32K,5a583831-2049-46e7-9465-726e2033324b,rev?*%
%TF.SameCoordinates,Original*%
%TF.FileFunction,Legend,Top*%
%TF.FilePolarity,Positive*%
%FSLAX46Y46*%
G04 Gerber Fmt 4.6, Leading zero omitted, Abs format (unit mm)*
G04 Created by KiCad (PCBNEW (5.1.9)-1) date 2021-09-03 13:00:36*
%MOMM*%
%LPD*%
G01*
G04 APERTURE LIST*
%ADD10C,0.200000*%
%ADD11C,0.120000*%
%ADD12C,0.150000*%
G04 APERTURE END LIST*
D10*
X114613809Y-75641904D02*
X115147142Y-75641904D01*
X114613809Y-76441904D01*
X115147142Y-76441904D01*
X115375714Y-75641904D02*
X115909047Y-76441904D01*
X115909047Y-75641904D02*
X115375714Y-76441904D01*
X116328095Y-75984761D02*
X116251904Y-75946666D01*
X116213809Y-75908571D01*
X116175714Y-75832380D01*
X116175714Y-75794285D01*
X116213809Y-75718095D01*
X116251904Y-75680000D01*
X116328095Y-75641904D01*
X116480476Y-75641904D01*
X116556666Y-75680000D01*
X116594761Y-75718095D01*
X116632857Y-75794285D01*
X116632857Y-75832380D01*
X116594761Y-75908571D01*
X116556666Y-75946666D01*
X116480476Y-75984761D01*
X116328095Y-75984761D01*
X116251904Y-76022857D01*
X116213809Y-76060952D01*
X116175714Y-76137142D01*
X116175714Y-76289523D01*
X116213809Y-76365714D01*
X116251904Y-76403809D01*
X116328095Y-76441904D01*
X116480476Y-76441904D01*
X116556666Y-76403809D01*
X116594761Y-76365714D01*
X116632857Y-76289523D01*
X116632857Y-76137142D01*
X116594761Y-76060952D01*
X116556666Y-76022857D01*
X116480476Y-75984761D01*
X117394761Y-76441904D02*
X116937619Y-76441904D01*
X117166190Y-76441904D02*
X117166190Y-75641904D01*
X117090000Y-75756190D01*
X117013809Y-75832380D01*
X116937619Y-75870476D01*
X118347142Y-76137142D02*
X118956666Y-76137142D01*
X119870952Y-75641904D02*
X120366190Y-75641904D01*
X120099523Y-75946666D01*
X120213809Y-75946666D01*
X120290000Y-75984761D01*
X120328095Y-76022857D01*
X120366190Y-76099047D01*
X120366190Y-76289523D01*
X120328095Y-76365714D01*
X120290000Y-76403809D01*
X120213809Y-76441904D01*
X119985238Y-76441904D01*
X119909047Y-76403809D01*
X119870952Y-76365714D01*
X120670952Y-75718095D02*
X120709047Y-75680000D01*
X120785238Y-75641904D01*
X120975714Y-75641904D01*
X121051904Y-75680000D01*
X121090000Y-75718095D01*
X121128095Y-75794285D01*
X121128095Y-75870476D01*
X121090000Y-75984761D01*
X120632857Y-76441904D01*
X121128095Y-76441904D01*
X121470952Y-76441904D02*
X121470952Y-75641904D01*
X121928095Y-76441904D02*
X121585238Y-75984761D01*
X121928095Y-75641904D02*
X121470952Y-76099047D01*
X114309047Y-78708571D02*
X114499523Y-79241904D01*
X114690000Y-78708571D01*
X115375714Y-79241904D02*
X114994761Y-79241904D01*
X114994761Y-78441904D01*
X115604285Y-79013333D02*
X115985238Y-79013333D01*
X115528095Y-79241904D02*
X115794761Y-78441904D01*
X116061428Y-79241904D01*
X116442380Y-78784761D02*
X116366190Y-78746666D01*
X116328095Y-78708571D01*
X116290000Y-78632380D01*
X116290000Y-78594285D01*
X116328095Y-78518095D01*
X116366190Y-78480000D01*
X116442380Y-78441904D01*
X116594761Y-78441904D01*
X116670952Y-78480000D01*
X116709047Y-78518095D01*
X116747142Y-78594285D01*
X116747142Y-78632380D01*
X116709047Y-78708571D01*
X116670952Y-78746666D01*
X116594761Y-78784761D01*
X116442380Y-78784761D01*
X116366190Y-78822857D01*
X116328095Y-78860952D01*
X116290000Y-78937142D01*
X116290000Y-79089523D01*
X116328095Y-79165714D01*
X116366190Y-79203809D01*
X116442380Y-79241904D01*
X116594761Y-79241904D01*
X116670952Y-79203809D01*
X116709047Y-79165714D01*
X116747142Y-79089523D01*
X116747142Y-78937142D01*
X116709047Y-78860952D01*
X116670952Y-78822857D01*
X116594761Y-78784761D01*
X117509047Y-79241904D02*
X117051904Y-79241904D01*
X117280476Y-79241904D02*
X117280476Y-78441904D01*
X117204285Y-78556190D01*
X117128095Y-78632380D01*
X117051904Y-78670476D01*
X118461428Y-78822857D02*
X118728095Y-78822857D01*
X118842380Y-79241904D02*
X118461428Y-79241904D01*
X118461428Y-78441904D01*
X118842380Y-78441904D01*
X119528095Y-79241904D02*
X119528095Y-78441904D01*
X119528095Y-79203809D02*
X119451904Y-79241904D01*
X119299523Y-79241904D01*
X119223333Y-79203809D01*
X119185238Y-79165714D01*
X119147142Y-79089523D01*
X119147142Y-78860952D01*
X119185238Y-78784761D01*
X119223333Y-78746666D01*
X119299523Y-78708571D01*
X119451904Y-78708571D01*
X119528095Y-78746666D01*
X119909047Y-79241904D02*
X119909047Y-78708571D01*
X119909047Y-78441904D02*
X119870952Y-78480000D01*
X119909047Y-78518095D01*
X119947142Y-78480000D01*
X119909047Y-78441904D01*
X119909047Y-78518095D01*
X120175714Y-78708571D02*
X120480476Y-78708571D01*
X120290000Y-78441904D02*
X120290000Y-79127619D01*
X120328095Y-79203809D01*
X120404285Y-79241904D01*
X120480476Y-79241904D01*
X120747142Y-79241904D02*
X120747142Y-78708571D01*
X120747142Y-78441904D02*
X120709047Y-78480000D01*
X120747142Y-78518095D01*
X120785238Y-78480000D01*
X120747142Y-78441904D01*
X120747142Y-78518095D01*
X121242380Y-79241904D02*
X121166190Y-79203809D01*
X121128095Y-79165714D01*
X121090000Y-79089523D01*
X121090000Y-78860952D01*
X121128095Y-78784761D01*
X121166190Y-78746666D01*
X121242380Y-78708571D01*
X121356666Y-78708571D01*
X121432857Y-78746666D01*
X121470952Y-78784761D01*
X121509047Y-78860952D01*
X121509047Y-79089523D01*
X121470952Y-79165714D01*
X121432857Y-79203809D01*
X121356666Y-79241904D01*
X121242380Y-79241904D01*
X121851904Y-78708571D02*
X121851904Y-79241904D01*
X121851904Y-78784761D02*
X121890000Y-78746666D01*
X121966190Y-78708571D01*
X122080476Y-78708571D01*
X122156666Y-78746666D01*
X122194761Y-78822857D01*
X122194761Y-79241904D01*
D11*
%TO.C,J3*%
X114990000Y-109380000D02*
X117650000Y-109380000D01*
X114990000Y-109320000D02*
X114990000Y-109380000D01*
X117650000Y-109320000D02*
X117650000Y-109380000D01*
X114990000Y-109320000D02*
X117650000Y-109320000D01*
X114990000Y-108050000D02*
X114990000Y-106720000D01*
X114990000Y-106720000D02*
X116320000Y-106720000D01*
%TO.C,REF\u002A\u002A*%
X117415000Y-70272600D02*
X111955000Y-70272600D01*
X111955000Y-70272600D02*
X111955000Y-105952600D01*
X111955000Y-105952600D02*
X124875000Y-105952600D01*
X124875000Y-105952600D02*
X124875000Y-70272600D01*
X124875000Y-70272600D02*
X119415000Y-70272600D01*
X109465000Y-70212600D02*
X109465000Y-106012600D01*
X109465000Y-106012600D02*
X127365000Y-106012600D01*
X127365000Y-106012600D02*
X127365000Y-70212600D01*
X127365000Y-70212600D02*
X109465000Y-70212600D01*
X119415000Y-70272600D02*
G75*
G02*
X117415000Y-70272600I-1000000J0D01*
G01*
%TO.C,C1*%
X117593000Y-104830000D02*
X119593000Y-104830000D01*
X119593000Y-102790000D02*
X117593000Y-102790000D01*
%TO.C,J1*%
X123870000Y-106810000D02*
X125200000Y-106810000D01*
X123870000Y-108140000D02*
X123870000Y-106810000D01*
X123870000Y-109410000D02*
X126530000Y-109410000D01*
X126530000Y-109410000D02*
X126530000Y-109470000D01*
X123870000Y-109410000D02*
X123870000Y-109470000D01*
X123870000Y-109470000D02*
X126530000Y-109470000D01*
%TO.C,J2*%
X119540000Y-109420000D02*
X122200000Y-109420000D01*
X119540000Y-109360000D02*
X119540000Y-109420000D01*
X122200000Y-109360000D02*
X122200000Y-109420000D01*
X119540000Y-109360000D02*
X122200000Y-109360000D01*
X119540000Y-108090000D02*
X119540000Y-106760000D01*
X119540000Y-106760000D02*
X120870000Y-106760000D01*
%TO.C,J4*%
X110120000Y-106758000D02*
X111450000Y-106758000D01*
X110120000Y-108088000D02*
X110120000Y-106758000D01*
X110120000Y-109358000D02*
X112780000Y-109358000D01*
X112780000Y-109358000D02*
X112780000Y-109418000D01*
X110120000Y-109358000D02*
X110120000Y-109418000D01*
X110120000Y-109418000D02*
X112780000Y-109418000D01*
%TO.C,R1*%
X120437000Y-72691600D02*
X122437000Y-72691600D01*
X122437000Y-74831600D02*
X120437000Y-74831600D01*
D12*
%TO.C,U1*%
X114616000Y-82488800D02*
X112791000Y-82488800D01*
X114616000Y-100488800D02*
X122366000Y-100488800D01*
X114616000Y-82238800D02*
X122366000Y-82238800D01*
X114616000Y-100488800D02*
X114616000Y-100143800D01*
X122366000Y-100488800D02*
X122366000Y-100143800D01*
X122366000Y-82238800D02*
X122366000Y-82583800D01*
X114616000Y-82238800D02*
X114616000Y-82488800D01*
%TO.C,J3*%
X115986666Y-105172380D02*
X115986666Y-105886666D01*
X115939047Y-106029523D01*
X115843809Y-106124761D01*
X115700952Y-106172380D01*
X115605714Y-106172380D01*
X116367619Y-105172380D02*
X116986666Y-105172380D01*
X116653333Y-105553333D01*
X116796190Y-105553333D01*
X116891428Y-105600952D01*
X116939047Y-105648571D01*
X116986666Y-105743809D01*
X116986666Y-105981904D01*
X116939047Y-106077142D01*
X116891428Y-106124761D01*
X116796190Y-106172380D01*
X116510476Y-106172380D01*
X116415238Y-106124761D01*
X116367619Y-106077142D01*
X115367619Y-110173333D02*
X115748571Y-110173333D01*
X115291428Y-110401904D02*
X115558095Y-109601904D01*
X115824761Y-110401904D01*
X116510476Y-110401904D02*
X116053333Y-110401904D01*
X116281904Y-110401904D02*
X116281904Y-109601904D01*
X116205714Y-109716190D01*
X116129523Y-109792380D01*
X116053333Y-109830476D01*
X116815238Y-109678095D02*
X116853333Y-109640000D01*
X116929523Y-109601904D01*
X117120000Y-109601904D01*
X117196190Y-109640000D01*
X117234285Y-109678095D01*
X117272380Y-109754285D01*
X117272380Y-109830476D01*
X117234285Y-109944761D01*
X116777142Y-110401904D01*
X117272380Y-110401904D01*
%TO.C,C1*%
X118426333Y-102417142D02*
X118378714Y-102464761D01*
X118235857Y-102512380D01*
X118140619Y-102512380D01*
X117997761Y-102464761D01*
X117902523Y-102369523D01*
X117854904Y-102274285D01*
X117807285Y-102083809D01*
X117807285Y-101940952D01*
X117854904Y-101750476D01*
X117902523Y-101655238D01*
X117997761Y-101560000D01*
X118140619Y-101512380D01*
X118235857Y-101512380D01*
X118378714Y-101560000D01*
X118426333Y-101607619D01*
X119378714Y-102512380D02*
X118807285Y-102512380D01*
X119093000Y-102512380D02*
X119093000Y-101512380D01*
X118997761Y-101655238D01*
X118902523Y-101750476D01*
X118807285Y-101798095D01*
%TO.C,J1*%
X124247619Y-110173333D02*
X124628571Y-110173333D01*
X124171428Y-110401904D02*
X124438095Y-109601904D01*
X124704761Y-110401904D01*
X125390476Y-110401904D02*
X124933333Y-110401904D01*
X125161904Y-110401904D02*
X125161904Y-109601904D01*
X125085714Y-109716190D01*
X125009523Y-109792380D01*
X124933333Y-109830476D01*
X126076190Y-109868571D02*
X126076190Y-110401904D01*
X125885714Y-109563809D02*
X125695238Y-110135238D01*
X126190476Y-110135238D01*
%TO.C,J2*%
X119917619Y-110173333D02*
X120298571Y-110173333D01*
X119841428Y-110401904D02*
X120108095Y-109601904D01*
X120374761Y-110401904D01*
X121060476Y-110401904D02*
X120603333Y-110401904D01*
X120831904Y-110401904D02*
X120831904Y-109601904D01*
X120755714Y-109716190D01*
X120679523Y-109792380D01*
X120603333Y-109830476D01*
X121327142Y-109601904D02*
X121822380Y-109601904D01*
X121555714Y-109906666D01*
X121670000Y-109906666D01*
X121746190Y-109944761D01*
X121784285Y-109982857D01*
X121822380Y-110059047D01*
X121822380Y-110249523D01*
X121784285Y-110325714D01*
X121746190Y-110363809D01*
X121670000Y-110401904D01*
X121441428Y-110401904D01*
X121365238Y-110363809D01*
X121327142Y-110325714D01*
%TO.C,J4*%
X110497619Y-110173333D02*
X110878571Y-110173333D01*
X110421428Y-110401904D02*
X110688095Y-109601904D01*
X110954761Y-110401904D01*
X111640476Y-110401904D02*
X111183333Y-110401904D01*
X111411904Y-110401904D02*
X111411904Y-109601904D01*
X111335714Y-109716190D01*
X111259523Y-109792380D01*
X111183333Y-109830476D01*
X112402380Y-110401904D02*
X111945238Y-110401904D01*
X112173809Y-110401904D02*
X112173809Y-109601904D01*
X112097619Y-109716190D01*
X112021428Y-109792380D01*
X111945238Y-109830476D01*
%TO.C,R1*%
X121270333Y-72363980D02*
X120937000Y-71887790D01*
X120698904Y-72363980D02*
X120698904Y-71363980D01*
X121079857Y-71363980D01*
X121175095Y-71411600D01*
X121222714Y-71459219D01*
X121270333Y-71554457D01*
X121270333Y-71697314D01*
X121222714Y-71792552D01*
X121175095Y-71840171D01*
X121079857Y-71887790D01*
X120698904Y-71887790D01*
X122222714Y-72363980D02*
X121651285Y-72363980D01*
X121937000Y-72363980D02*
X121937000Y-71363980D01*
X121841761Y-71506838D01*
X121746523Y-71602076D01*
X121651285Y-71649695D01*
%TO.C,U1*%
X117729095Y-80766180D02*
X117729095Y-81575704D01*
X117776714Y-81670942D01*
X117824333Y-81718561D01*
X117919571Y-81766180D01*
X118110047Y-81766180D01*
X118205285Y-81718561D01*
X118252904Y-81670942D01*
X118300523Y-81575704D01*
X118300523Y-80766180D01*
X119300523Y-81766180D02*
X118729095Y-81766180D01*
X119014809Y-81766180D02*
X119014809Y-80766180D01*
X118919571Y-80909038D01*
X118824333Y-81004276D01*
X118729095Y-81051895D01*
%TD*%
M02*
