%TF.GenerationSoftware,KiCad,Pcbnew,(5.1.9)-1*%
%TF.CreationDate,2021-09-03T13:00:36+02:00*%
%TF.ProjectId,ZX81 Intern 32K,5a583831-2049-46e7-9465-726e2033324b,rev?*%
%TF.SameCoordinates,Original*%
%TF.FileFunction,Copper,L2,Bot*%
%TF.FilePolarity,Positive*%
%FSLAX46Y46*%
G04 Gerber Fmt 4.6, Leading zero omitted, Abs format (unit mm)*
G04 Created by KiCad (PCBNEW (5.1.9)-1) date 2021-09-03 13:00:36*
%MOMM*%
%LPD*%
G01*
G04 APERTURE LIST*
%TA.AperFunction,ComponentPad*%
%ADD10R,1.700000X1.700000*%
%TD*%
%TA.AperFunction,ComponentPad*%
%ADD11R,1.600000X1.600000*%
%TD*%
%TA.AperFunction,ComponentPad*%
%ADD12O,1.600000X1.600000*%
%TD*%
%TA.AperFunction,ViaPad*%
%ADD13C,0.800000*%
%TD*%
%TA.AperFunction,Conductor*%
%ADD14C,0.500000*%
%TD*%
%TA.AperFunction,Conductor*%
%ADD15C,0.254000*%
%TD*%
%TA.AperFunction,Conductor*%
%ADD16C,0.100000*%
%TD*%
G04 APERTURE END LIST*
D10*
%TO.P,J3,1*%
%TO.N,Net-(J3-Pad1)*%
X116320000Y-108052000D03*
%TD*%
D11*
%TO.P,REF\u002A\u002A,1*%
%TO.N,N/C*%
X110795000Y-71602600D03*
D12*
%TO.P,REF\u002A\u002A,15*%
%TO.N,Net-(U1-Pad15)*%
X126035000Y-104622600D03*
%TO.P,REF\u002A\u002A,2*%
%TO.N,N/C*%
X110795000Y-74142600D03*
%TO.P,REF\u002A\u002A,16*%
%TO.N,Net-(U1-Pad16)*%
X126035000Y-102082600D03*
%TO.P,REF\u002A\u002A,3*%
%TO.N,Net-(U1-Pad3)*%
X110795000Y-76682600D03*
%TO.P,REF\u002A\u002A,17*%
%TO.N,Net-(U1-Pad17)*%
X126035000Y-99542600D03*
%TO.P,REF\u002A\u002A,4*%
%TO.N,Net-(U1-Pad4)*%
X110795000Y-79222600D03*
%TO.P,REF\u002A\u002A,18*%
%TO.N,Net-(U1-Pad18)*%
X126035000Y-97002600D03*
%TO.P,REF\u002A\u002A,5*%
%TO.N,Net-(U1-Pad5)*%
X110795000Y-81762600D03*
%TO.P,REF\u002A\u002A,19*%
%TO.N,Net-(U1-Pad19)*%
X126035000Y-94462600D03*
%TO.P,REF\u002A\u002A,6*%
%TO.N,Net-(U1-Pad6)*%
X110795000Y-84302600D03*
%TO.P,REF\u002A\u002A,20*%
%TO.N,Net-(U1-Pad20)*%
X126035000Y-91922600D03*
%TO.P,REF\u002A\u002A,7*%
%TO.N,Net-(U1-Pad7)*%
X110795000Y-86842600D03*
%TO.P,REF\u002A\u002A,21*%
%TO.N,Net-(U1-Pad21)*%
X126035000Y-89382600D03*
%TO.P,REF\u002A\u002A,8*%
%TO.N,Net-(U1-Pad8)*%
X110795000Y-89382600D03*
%TO.P,REF\u002A\u002A,22*%
%TO.N,Net-(U1-Pad22)*%
X126035000Y-86842600D03*
%TO.P,REF\u002A\u002A,9*%
%TO.N,Net-(U1-Pad9)*%
X110795000Y-91922600D03*
%TO.P,REF\u002A\u002A,23*%
%TO.N,N/C*%
X126035000Y-84302600D03*
%TO.P,REF\u002A\u002A,10*%
%TO.N,Net-(U1-Pad10)*%
X110795000Y-94462600D03*
%TO.P,REF\u002A\u002A,24*%
%TO.N,Net-(U1-Pad24)*%
X126035000Y-81762600D03*
%TO.P,REF\u002A\u002A,11*%
%TO.N,Net-(U1-Pad11)*%
X110795000Y-97002600D03*
%TO.P,REF\u002A\u002A,25*%
%TO.N,Net-(U1-Pad25)*%
X126035000Y-79222600D03*
%TO.P,REF\u002A\u002A,12*%
%TO.N,Net-(U1-Pad12)*%
X110795000Y-99542600D03*
%TO.P,REF\u002A\u002A,26*%
%TO.N,N/C*%
X126035000Y-76682600D03*
%TO.P,REF\u002A\u002A,13*%
%TO.N,Net-(U1-Pad13)*%
X110795000Y-102082600D03*
%TO.P,REF\u002A\u002A,27*%
%TO.N,Net-(R1-Pad2)*%
X126035000Y-74142600D03*
%TO.P,REF\u002A\u002A,14*%
%TO.N,GND*%
X110795000Y-104622600D03*
%TO.P,REF\u002A\u002A,28*%
%TO.N,+5V*%
X126035000Y-71602600D03*
%TD*%
D10*
%TO.P,J1,1*%
%TO.N,Net-(J1-Pad1)*%
X125200000Y-108052000D03*
%TD*%
%TO.P,J2,1*%
%TO.N,Net-(J2-Pad1)*%
X120870000Y-108052000D03*
%TD*%
%TO.P,J4,1*%
%TO.N,Net-(J4-Pad1)*%
X111450000Y-108052000D03*
%TD*%
D13*
%TO.N,GND*%
X119862500Y-102396000D03*
X112345700Y-100390900D03*
%TO.N,Net-(J2-Pad1)*%
X118260000Y-88880000D03*
%TO.N,Net-(J3-Pad1)*%
X113860000Y-79830000D03*
%TO.N,Net-(U1-Pad24)*%
X121563900Y-87466100D03*
%TO.N,Net-(U1-Pad5)*%
X112118400Y-85875800D03*
%TO.N,Net-(U1-Pad21)*%
X120480000Y-90040000D03*
%TD*%
D14*
%TO.N,Net-(J2-Pad1)*%
X118260000Y-105442000D02*
X120870000Y-108052000D01*
X118260000Y-88880000D02*
X118260000Y-105442000D01*
%TO.N,Net-(J3-Pad1)*%
X113860000Y-105592000D02*
X116320000Y-108052000D01*
X113860000Y-79830000D02*
X113860000Y-105592000D01*
%TO.N,Net-(U1-Pad24)*%
X126035000Y-81762600D02*
X126035000Y-83012900D01*
X121563900Y-87466100D02*
X121563900Y-86937900D01*
X121563900Y-86937900D02*
X125488900Y-83012900D01*
X125488900Y-83012900D02*
X126035000Y-83012900D01*
%TO.N,Net-(U1-Pad5)*%
X110795000Y-81762600D02*
X110795000Y-83012900D01*
X112118400Y-85875800D02*
X112118400Y-83792400D01*
X112118400Y-83792400D02*
X111338900Y-83012900D01*
X111338900Y-83012900D02*
X110795000Y-83012900D01*
%TO.N,Net-(U1-Pad21)*%
X125377600Y-90040000D02*
X126035000Y-89382600D01*
X120480000Y-90040000D02*
X125377600Y-90040000D01*
%TD*%
D15*
%TO.N,GND*%
X109543815Y-70351415D02*
X109464463Y-70448106D01*
X109405498Y-70558420D01*
X109369188Y-70678118D01*
X109356928Y-70802600D01*
X109356928Y-72402600D01*
X109369188Y-72527082D01*
X109405498Y-72646780D01*
X109464463Y-72757094D01*
X109543815Y-72853785D01*
X109640506Y-72933137D01*
X109750820Y-72992102D01*
X109870518Y-73028412D01*
X109878961Y-73029243D01*
X109680363Y-73227841D01*
X109523320Y-73462873D01*
X109415147Y-73724026D01*
X109360000Y-74001265D01*
X109360000Y-74283935D01*
X109415147Y-74561174D01*
X109523320Y-74822327D01*
X109680363Y-75057359D01*
X109880241Y-75257237D01*
X110112759Y-75412600D01*
X109880241Y-75567963D01*
X109680363Y-75767841D01*
X109523320Y-76002873D01*
X109415147Y-76264026D01*
X109360000Y-76541265D01*
X109360000Y-76823935D01*
X109415147Y-77101174D01*
X109523320Y-77362327D01*
X109680363Y-77597359D01*
X109880241Y-77797237D01*
X110112759Y-77952600D01*
X109880241Y-78107963D01*
X109680363Y-78307841D01*
X109523320Y-78542873D01*
X109415147Y-78804026D01*
X109360000Y-79081265D01*
X109360000Y-79363935D01*
X109415147Y-79641174D01*
X109523320Y-79902327D01*
X109680363Y-80137359D01*
X109880241Y-80337237D01*
X110112759Y-80492600D01*
X109880241Y-80647963D01*
X109680363Y-80847841D01*
X109523320Y-81082873D01*
X109415147Y-81344026D01*
X109360000Y-81621265D01*
X109360000Y-81903935D01*
X109415147Y-82181174D01*
X109523320Y-82442327D01*
X109680363Y-82677359D01*
X109880241Y-82877237D01*
X109910001Y-82897122D01*
X109910001Y-82969414D01*
X109905718Y-83012900D01*
X109920322Y-83161182D01*
X109880241Y-83187963D01*
X109680363Y-83387841D01*
X109523320Y-83622873D01*
X109415147Y-83884026D01*
X109360000Y-84161265D01*
X109360000Y-84443935D01*
X109415147Y-84721174D01*
X109523320Y-84982327D01*
X109680363Y-85217359D01*
X109880241Y-85417237D01*
X110112759Y-85572600D01*
X109880241Y-85727963D01*
X109680363Y-85927841D01*
X109523320Y-86162873D01*
X109415147Y-86424026D01*
X109360000Y-86701265D01*
X109360000Y-86983935D01*
X109415147Y-87261174D01*
X109523320Y-87522327D01*
X109680363Y-87757359D01*
X109880241Y-87957237D01*
X110112759Y-88112600D01*
X109880241Y-88267963D01*
X109680363Y-88467841D01*
X109523320Y-88702873D01*
X109415147Y-88964026D01*
X109360000Y-89241265D01*
X109360000Y-89523935D01*
X109415147Y-89801174D01*
X109523320Y-90062327D01*
X109680363Y-90297359D01*
X109880241Y-90497237D01*
X110112759Y-90652600D01*
X109880241Y-90807963D01*
X109680363Y-91007841D01*
X109523320Y-91242873D01*
X109415147Y-91504026D01*
X109360000Y-91781265D01*
X109360000Y-92063935D01*
X109415147Y-92341174D01*
X109523320Y-92602327D01*
X109680363Y-92837359D01*
X109880241Y-93037237D01*
X110112759Y-93192600D01*
X109880241Y-93347963D01*
X109680363Y-93547841D01*
X109523320Y-93782873D01*
X109415147Y-94044026D01*
X109360000Y-94321265D01*
X109360000Y-94603935D01*
X109415147Y-94881174D01*
X109523320Y-95142327D01*
X109680363Y-95377359D01*
X109880241Y-95577237D01*
X110112759Y-95732600D01*
X109880241Y-95887963D01*
X109680363Y-96087841D01*
X109523320Y-96322873D01*
X109415147Y-96584026D01*
X109360000Y-96861265D01*
X109360000Y-97143935D01*
X109415147Y-97421174D01*
X109523320Y-97682327D01*
X109680363Y-97917359D01*
X109880241Y-98117237D01*
X110112759Y-98272600D01*
X109880241Y-98427963D01*
X109680363Y-98627841D01*
X109523320Y-98862873D01*
X109415147Y-99124026D01*
X109360000Y-99401265D01*
X109360000Y-99683935D01*
X109415147Y-99961174D01*
X109523320Y-100222327D01*
X109680363Y-100457359D01*
X109880241Y-100657237D01*
X110112759Y-100812600D01*
X109880241Y-100967963D01*
X109680363Y-101167841D01*
X109523320Y-101402873D01*
X109415147Y-101664026D01*
X109360000Y-101941265D01*
X109360000Y-102223935D01*
X109415147Y-102501174D01*
X109523320Y-102762327D01*
X109680363Y-102997359D01*
X109880241Y-103197237D01*
X110115273Y-103354280D01*
X110125865Y-103358667D01*
X109939869Y-103470215D01*
X109731481Y-103659186D01*
X109563963Y-103885180D01*
X109443754Y-104139513D01*
X109403096Y-104273561D01*
X109525085Y-104495600D01*
X110668000Y-104495600D01*
X110668000Y-104475600D01*
X110922000Y-104475600D01*
X110922000Y-104495600D01*
X112064915Y-104495600D01*
X112186904Y-104273561D01*
X112146246Y-104139513D01*
X112026037Y-103885180D01*
X111858519Y-103659186D01*
X111650131Y-103470215D01*
X111464135Y-103358667D01*
X111474727Y-103354280D01*
X111709759Y-103197237D01*
X111909637Y-102997359D01*
X112066680Y-102762327D01*
X112174853Y-102501174D01*
X112230000Y-102223935D01*
X112230000Y-101941265D01*
X112174853Y-101664026D01*
X112066680Y-101402873D01*
X111909637Y-101167841D01*
X111709759Y-100967963D01*
X111477241Y-100812600D01*
X111709759Y-100657237D01*
X111909637Y-100457359D01*
X112066680Y-100222327D01*
X112174853Y-99961174D01*
X112230000Y-99683935D01*
X112230000Y-99401265D01*
X112174853Y-99124026D01*
X112066680Y-98862873D01*
X111909637Y-98627841D01*
X111709759Y-98427963D01*
X111477241Y-98272600D01*
X111709759Y-98117237D01*
X111909637Y-97917359D01*
X112066680Y-97682327D01*
X112174853Y-97421174D01*
X112230000Y-97143935D01*
X112230000Y-96861265D01*
X112174853Y-96584026D01*
X112066680Y-96322873D01*
X111909637Y-96087841D01*
X111709759Y-95887963D01*
X111477241Y-95732600D01*
X111709759Y-95577237D01*
X111909637Y-95377359D01*
X112066680Y-95142327D01*
X112174853Y-94881174D01*
X112230000Y-94603935D01*
X112230000Y-94321265D01*
X112174853Y-94044026D01*
X112066680Y-93782873D01*
X111909637Y-93547841D01*
X111709759Y-93347963D01*
X111477241Y-93192600D01*
X111709759Y-93037237D01*
X111909637Y-92837359D01*
X112066680Y-92602327D01*
X112174853Y-92341174D01*
X112230000Y-92063935D01*
X112230000Y-91781265D01*
X112174853Y-91504026D01*
X112066680Y-91242873D01*
X111909637Y-91007841D01*
X111709759Y-90807963D01*
X111477241Y-90652600D01*
X111709759Y-90497237D01*
X111909637Y-90297359D01*
X112066680Y-90062327D01*
X112174853Y-89801174D01*
X112230000Y-89523935D01*
X112230000Y-89241265D01*
X112174853Y-88964026D01*
X112066680Y-88702873D01*
X111909637Y-88467841D01*
X111709759Y-88267963D01*
X111477241Y-88112600D01*
X111709759Y-87957237D01*
X111909637Y-87757359D01*
X112066680Y-87522327D01*
X112174853Y-87261174D01*
X112230000Y-86983935D01*
X112230000Y-86908878D01*
X112420298Y-86871026D01*
X112608656Y-86793005D01*
X112778174Y-86679737D01*
X112922337Y-86535574D01*
X112975000Y-86456758D01*
X112975001Y-105548521D01*
X112970719Y-105592000D01*
X112987805Y-105765490D01*
X113038412Y-105932313D01*
X113120590Y-106086059D01*
X113203468Y-106187046D01*
X113203471Y-106187049D01*
X113231184Y-106220817D01*
X113264951Y-106248529D01*
X114831928Y-107815507D01*
X114831928Y-108902000D01*
X114844188Y-109026482D01*
X114880498Y-109146180D01*
X114939463Y-109256494D01*
X115018815Y-109353185D01*
X115115506Y-109432537D01*
X115225820Y-109491502D01*
X115345518Y-109527812D01*
X115470000Y-109540072D01*
X117170000Y-109540072D01*
X117294482Y-109527812D01*
X117414180Y-109491502D01*
X117524494Y-109432537D01*
X117621185Y-109353185D01*
X117700537Y-109256494D01*
X117759502Y-109146180D01*
X117795812Y-109026482D01*
X117808072Y-108902000D01*
X117808072Y-107202000D01*
X117795812Y-107077518D01*
X117759502Y-106957820D01*
X117700537Y-106847506D01*
X117621185Y-106750815D01*
X117524494Y-106671463D01*
X117414180Y-106612498D01*
X117294482Y-106576188D01*
X117170000Y-106563928D01*
X116083507Y-106563928D01*
X114745000Y-105225422D01*
X114745000Y-88778061D01*
X117225000Y-88778061D01*
X117225000Y-88981939D01*
X117264774Y-89181898D01*
X117342795Y-89370256D01*
X117375000Y-89418454D01*
X117375001Y-105398521D01*
X117370719Y-105442000D01*
X117387805Y-105615490D01*
X117438412Y-105782313D01*
X117520590Y-105936059D01*
X117603468Y-106037046D01*
X117603471Y-106037049D01*
X117631184Y-106070817D01*
X117664951Y-106098529D01*
X119381928Y-107815507D01*
X119381928Y-108902000D01*
X119394188Y-109026482D01*
X119430498Y-109146180D01*
X119489463Y-109256494D01*
X119568815Y-109353185D01*
X119665506Y-109432537D01*
X119775820Y-109491502D01*
X119895518Y-109527812D01*
X120020000Y-109540072D01*
X121720000Y-109540072D01*
X121844482Y-109527812D01*
X121964180Y-109491502D01*
X122074494Y-109432537D01*
X122171185Y-109353185D01*
X122250537Y-109256494D01*
X122309502Y-109146180D01*
X122345812Y-109026482D01*
X122358072Y-108902000D01*
X122358072Y-107202000D01*
X123711928Y-107202000D01*
X123711928Y-108902000D01*
X123724188Y-109026482D01*
X123760498Y-109146180D01*
X123819463Y-109256494D01*
X123898815Y-109353185D01*
X123995506Y-109432537D01*
X124105820Y-109491502D01*
X124225518Y-109527812D01*
X124350000Y-109540072D01*
X126050000Y-109540072D01*
X126174482Y-109527812D01*
X126294180Y-109491502D01*
X126404494Y-109432537D01*
X126501185Y-109353185D01*
X126580537Y-109256494D01*
X126639502Y-109146180D01*
X126675812Y-109026482D01*
X126688072Y-108902000D01*
X126688072Y-107202000D01*
X126675812Y-107077518D01*
X126639502Y-106957820D01*
X126580537Y-106847506D01*
X126501185Y-106750815D01*
X126404494Y-106671463D01*
X126294180Y-106612498D01*
X126174482Y-106576188D01*
X126050000Y-106563928D01*
X124350000Y-106563928D01*
X124225518Y-106576188D01*
X124105820Y-106612498D01*
X123995506Y-106671463D01*
X123898815Y-106750815D01*
X123819463Y-106847506D01*
X123760498Y-106957820D01*
X123724188Y-107077518D01*
X123711928Y-107202000D01*
X122358072Y-107202000D01*
X122345812Y-107077518D01*
X122309502Y-106957820D01*
X122250537Y-106847506D01*
X122171185Y-106750815D01*
X122074494Y-106671463D01*
X121964180Y-106612498D01*
X121844482Y-106576188D01*
X121720000Y-106563928D01*
X120633507Y-106563928D01*
X119145000Y-105075422D01*
X119145000Y-89418454D01*
X119177205Y-89370256D01*
X119255226Y-89181898D01*
X119295000Y-88981939D01*
X119295000Y-88778061D01*
X119255226Y-88578102D01*
X119177205Y-88389744D01*
X119063937Y-88220226D01*
X118919774Y-88076063D01*
X118750256Y-87962795D01*
X118561898Y-87884774D01*
X118361939Y-87845000D01*
X118158061Y-87845000D01*
X117958102Y-87884774D01*
X117769744Y-87962795D01*
X117600226Y-88076063D01*
X117456063Y-88220226D01*
X117342795Y-88389744D01*
X117264774Y-88578102D01*
X117225000Y-88778061D01*
X114745000Y-88778061D01*
X114745000Y-80368454D01*
X114777205Y-80320256D01*
X114855226Y-80131898D01*
X114895000Y-79931939D01*
X114895000Y-79728061D01*
X114855226Y-79528102D01*
X114777205Y-79339744D01*
X114663937Y-79170226D01*
X114519774Y-79026063D01*
X114350256Y-78912795D01*
X114161898Y-78834774D01*
X113961939Y-78795000D01*
X113758061Y-78795000D01*
X113558102Y-78834774D01*
X113369744Y-78912795D01*
X113200226Y-79026063D01*
X113056063Y-79170226D01*
X112942795Y-79339744D01*
X112864774Y-79528102D01*
X112825000Y-79728061D01*
X112825000Y-79931939D01*
X112864774Y-80131898D01*
X112942795Y-80320256D01*
X112975000Y-80368454D01*
X112975000Y-83567501D01*
X112939989Y-83452087D01*
X112857811Y-83298341D01*
X112833610Y-83268852D01*
X112774932Y-83197353D01*
X112774930Y-83197351D01*
X112747217Y-83163583D01*
X112713449Y-83135870D01*
X112047945Y-82470367D01*
X112066680Y-82442327D01*
X112174853Y-82181174D01*
X112230000Y-81903935D01*
X112230000Y-81621265D01*
X112174853Y-81344026D01*
X112066680Y-81082873D01*
X111909637Y-80847841D01*
X111709759Y-80647963D01*
X111477241Y-80492600D01*
X111709759Y-80337237D01*
X111909637Y-80137359D01*
X112066680Y-79902327D01*
X112174853Y-79641174D01*
X112230000Y-79363935D01*
X112230000Y-79081265D01*
X112174853Y-78804026D01*
X112066680Y-78542873D01*
X111909637Y-78307841D01*
X111709759Y-78107963D01*
X111477241Y-77952600D01*
X111709759Y-77797237D01*
X111909637Y-77597359D01*
X112066680Y-77362327D01*
X112174853Y-77101174D01*
X112230000Y-76823935D01*
X112230000Y-76541265D01*
X112174853Y-76264026D01*
X112066680Y-76002873D01*
X111909637Y-75767841D01*
X111709759Y-75567963D01*
X111477241Y-75412600D01*
X111709759Y-75257237D01*
X111909637Y-75057359D01*
X112066680Y-74822327D01*
X112174853Y-74561174D01*
X112230000Y-74283935D01*
X112230000Y-74001265D01*
X112174853Y-73724026D01*
X112066680Y-73462873D01*
X111909637Y-73227841D01*
X111711039Y-73029243D01*
X111719482Y-73028412D01*
X111839180Y-72992102D01*
X111949494Y-72933137D01*
X112046185Y-72853785D01*
X112125537Y-72757094D01*
X112184502Y-72646780D01*
X112220812Y-72527082D01*
X112233072Y-72402600D01*
X112233072Y-70802600D01*
X112220812Y-70678118D01*
X112184502Y-70558420D01*
X112125537Y-70448106D01*
X112046185Y-70351415D01*
X112022771Y-70332200D01*
X125353357Y-70332200D01*
X125120241Y-70487963D01*
X124920363Y-70687841D01*
X124763320Y-70922873D01*
X124655147Y-71184026D01*
X124600000Y-71461265D01*
X124600000Y-71743935D01*
X124655147Y-72021174D01*
X124763320Y-72282327D01*
X124920363Y-72517359D01*
X125120241Y-72717237D01*
X125352759Y-72872600D01*
X125120241Y-73027963D01*
X124920363Y-73227841D01*
X124763320Y-73462873D01*
X124655147Y-73724026D01*
X124600000Y-74001265D01*
X124600000Y-74283935D01*
X124655147Y-74561174D01*
X124763320Y-74822327D01*
X124920363Y-75057359D01*
X125120241Y-75257237D01*
X125352759Y-75412600D01*
X125120241Y-75567963D01*
X124920363Y-75767841D01*
X124763320Y-76002873D01*
X124655147Y-76264026D01*
X124600000Y-76541265D01*
X124600000Y-76823935D01*
X124655147Y-77101174D01*
X124763320Y-77362327D01*
X124920363Y-77597359D01*
X125120241Y-77797237D01*
X125352759Y-77952600D01*
X125120241Y-78107963D01*
X124920363Y-78307841D01*
X124763320Y-78542873D01*
X124655147Y-78804026D01*
X124600000Y-79081265D01*
X124600000Y-79363935D01*
X124655147Y-79641174D01*
X124763320Y-79902327D01*
X124920363Y-80137359D01*
X125120241Y-80337237D01*
X125352759Y-80492600D01*
X125120241Y-80647963D01*
X124920363Y-80847841D01*
X124763320Y-81082873D01*
X124655147Y-81344026D01*
X124600000Y-81621265D01*
X124600000Y-81903935D01*
X124655147Y-82181174D01*
X124763320Y-82442327D01*
X124781174Y-82469047D01*
X120968851Y-86281370D01*
X120935084Y-86309083D01*
X120907371Y-86342851D01*
X120907368Y-86342854D01*
X120885206Y-86369859D01*
X120824490Y-86443841D01*
X120742311Y-86597587D01*
X120691705Y-86764410D01*
X120678900Y-86894423D01*
X120678900Y-86894431D01*
X120675063Y-86933388D01*
X120646695Y-86975844D01*
X120568674Y-87164202D01*
X120528900Y-87364161D01*
X120528900Y-87568039D01*
X120568674Y-87767998D01*
X120646695Y-87956356D01*
X120759963Y-88125874D01*
X120904126Y-88270037D01*
X121073644Y-88383305D01*
X121262002Y-88461326D01*
X121461961Y-88501100D01*
X121665839Y-88501100D01*
X121865798Y-88461326D01*
X122054156Y-88383305D01*
X122223674Y-88270037D01*
X122367837Y-88125874D01*
X122481105Y-87956356D01*
X122559126Y-87767998D01*
X122598900Y-87568039D01*
X122598900Y-87364161D01*
X122564112Y-87189267D01*
X124766417Y-84986962D01*
X124920363Y-85217359D01*
X125120241Y-85417237D01*
X125352759Y-85572600D01*
X125120241Y-85727963D01*
X124920363Y-85927841D01*
X124763320Y-86162873D01*
X124655147Y-86424026D01*
X124600000Y-86701265D01*
X124600000Y-86983935D01*
X124655147Y-87261174D01*
X124763320Y-87522327D01*
X124920363Y-87757359D01*
X125120241Y-87957237D01*
X125352759Y-88112600D01*
X125120241Y-88267963D01*
X124920363Y-88467841D01*
X124763320Y-88702873D01*
X124655147Y-88964026D01*
X124617159Y-89155000D01*
X121018454Y-89155000D01*
X120970256Y-89122795D01*
X120781898Y-89044774D01*
X120581939Y-89005000D01*
X120378061Y-89005000D01*
X120178102Y-89044774D01*
X119989744Y-89122795D01*
X119820226Y-89236063D01*
X119676063Y-89380226D01*
X119562795Y-89549744D01*
X119484774Y-89738102D01*
X119445000Y-89938061D01*
X119445000Y-90141939D01*
X119484774Y-90341898D01*
X119562795Y-90530256D01*
X119676063Y-90699774D01*
X119820226Y-90843937D01*
X119989744Y-90957205D01*
X120178102Y-91035226D01*
X120378061Y-91075000D01*
X120581939Y-91075000D01*
X120781898Y-91035226D01*
X120970256Y-90957205D01*
X121018454Y-90925000D01*
X125003204Y-90925000D01*
X124920363Y-91007841D01*
X124763320Y-91242873D01*
X124655147Y-91504026D01*
X124600000Y-91781265D01*
X124600000Y-92063935D01*
X124655147Y-92341174D01*
X124763320Y-92602327D01*
X124920363Y-92837359D01*
X125120241Y-93037237D01*
X125352759Y-93192600D01*
X125120241Y-93347963D01*
X124920363Y-93547841D01*
X124763320Y-93782873D01*
X124655147Y-94044026D01*
X124600000Y-94321265D01*
X124600000Y-94603935D01*
X124655147Y-94881174D01*
X124763320Y-95142327D01*
X124920363Y-95377359D01*
X125120241Y-95577237D01*
X125352759Y-95732600D01*
X125120241Y-95887963D01*
X124920363Y-96087841D01*
X124763320Y-96322873D01*
X124655147Y-96584026D01*
X124600000Y-96861265D01*
X124600000Y-97143935D01*
X124655147Y-97421174D01*
X124763320Y-97682327D01*
X124920363Y-97917359D01*
X125120241Y-98117237D01*
X125352759Y-98272600D01*
X125120241Y-98427963D01*
X124920363Y-98627841D01*
X124763320Y-98862873D01*
X124655147Y-99124026D01*
X124600000Y-99401265D01*
X124600000Y-99683935D01*
X124655147Y-99961174D01*
X124763320Y-100222327D01*
X124920363Y-100457359D01*
X125120241Y-100657237D01*
X125352759Y-100812600D01*
X125120241Y-100967963D01*
X124920363Y-101167841D01*
X124763320Y-101402873D01*
X124655147Y-101664026D01*
X124600000Y-101941265D01*
X124600000Y-102223935D01*
X124655147Y-102501174D01*
X124763320Y-102762327D01*
X124920363Y-102997359D01*
X125120241Y-103197237D01*
X125352759Y-103352600D01*
X125120241Y-103507963D01*
X124920363Y-103707841D01*
X124763320Y-103942873D01*
X124655147Y-104204026D01*
X124600000Y-104481265D01*
X124600000Y-104763935D01*
X124655147Y-105041174D01*
X124763320Y-105302327D01*
X124920363Y-105537359D01*
X125120241Y-105737237D01*
X125355273Y-105894280D01*
X125616426Y-106002453D01*
X125893665Y-106057600D01*
X126176335Y-106057600D01*
X126453574Y-106002453D01*
X126714727Y-105894280D01*
X126949759Y-105737237D01*
X127149637Y-105537359D01*
X127306680Y-105302327D01*
X127414853Y-105041174D01*
X127470000Y-104763935D01*
X127470000Y-104481265D01*
X127414853Y-104204026D01*
X127306680Y-103942873D01*
X127149637Y-103707841D01*
X126949759Y-103507963D01*
X126717241Y-103352600D01*
X126949759Y-103197237D01*
X127149637Y-102997359D01*
X127306680Y-102762327D01*
X127414853Y-102501174D01*
X127470000Y-102223935D01*
X127470000Y-101941265D01*
X127414853Y-101664026D01*
X127306680Y-101402873D01*
X127149637Y-101167841D01*
X126949759Y-100967963D01*
X126717241Y-100812600D01*
X126949759Y-100657237D01*
X127149637Y-100457359D01*
X127306680Y-100222327D01*
X127414853Y-99961174D01*
X127470000Y-99683935D01*
X127470000Y-99401265D01*
X127414853Y-99124026D01*
X127306680Y-98862873D01*
X127149637Y-98627841D01*
X126949759Y-98427963D01*
X126717241Y-98272600D01*
X126949759Y-98117237D01*
X127149637Y-97917359D01*
X127306680Y-97682327D01*
X127414853Y-97421174D01*
X127470000Y-97143935D01*
X127470000Y-96861265D01*
X127414853Y-96584026D01*
X127306680Y-96322873D01*
X127149637Y-96087841D01*
X126949759Y-95887963D01*
X126717241Y-95732600D01*
X126949759Y-95577237D01*
X127149637Y-95377359D01*
X127306680Y-95142327D01*
X127414853Y-94881174D01*
X127470000Y-94603935D01*
X127470000Y-94321265D01*
X127414853Y-94044026D01*
X127306680Y-93782873D01*
X127149637Y-93547841D01*
X126949759Y-93347963D01*
X126717241Y-93192600D01*
X126949759Y-93037237D01*
X127149637Y-92837359D01*
X127306680Y-92602327D01*
X127414853Y-92341174D01*
X127470000Y-92063935D01*
X127470000Y-91781265D01*
X127414853Y-91504026D01*
X127306680Y-91242873D01*
X127149637Y-91007841D01*
X126949759Y-90807963D01*
X126717241Y-90652600D01*
X126949759Y-90497237D01*
X127149637Y-90297359D01*
X127306680Y-90062327D01*
X127414853Y-89801174D01*
X127470000Y-89523935D01*
X127470000Y-89241265D01*
X127414853Y-88964026D01*
X127306680Y-88702873D01*
X127149637Y-88467841D01*
X126949759Y-88267963D01*
X126717241Y-88112600D01*
X126949759Y-87957237D01*
X127149637Y-87757359D01*
X127306680Y-87522327D01*
X127414853Y-87261174D01*
X127470000Y-86983935D01*
X127470000Y-86701265D01*
X127414853Y-86424026D01*
X127306680Y-86162873D01*
X127149637Y-85927841D01*
X126949759Y-85727963D01*
X126717241Y-85572600D01*
X126949759Y-85417237D01*
X127149637Y-85217359D01*
X127306680Y-84982327D01*
X127414853Y-84721174D01*
X127470000Y-84443935D01*
X127470000Y-84161265D01*
X127414853Y-83884026D01*
X127306680Y-83622873D01*
X127149637Y-83387841D01*
X126949759Y-83187963D01*
X126909678Y-83161182D01*
X126920000Y-83056377D01*
X126924282Y-83012900D01*
X126920000Y-82969423D01*
X126920000Y-82897121D01*
X126949759Y-82877237D01*
X127149637Y-82677359D01*
X127306680Y-82442327D01*
X127414853Y-82181174D01*
X127470000Y-81903935D01*
X127470000Y-81621265D01*
X127414853Y-81344026D01*
X127306680Y-81082873D01*
X127149637Y-80847841D01*
X126949759Y-80647963D01*
X126717241Y-80492600D01*
X126949759Y-80337237D01*
X127149637Y-80137359D01*
X127306680Y-79902327D01*
X127414853Y-79641174D01*
X127470000Y-79363935D01*
X127470000Y-79081265D01*
X127414853Y-78804026D01*
X127306680Y-78542873D01*
X127149637Y-78307841D01*
X126949759Y-78107963D01*
X126717241Y-77952600D01*
X126949759Y-77797237D01*
X127149637Y-77597359D01*
X127306680Y-77362327D01*
X127414853Y-77101174D01*
X127470000Y-76823935D01*
X127470000Y-76541265D01*
X127414853Y-76264026D01*
X127306680Y-76002873D01*
X127149637Y-75767841D01*
X126949759Y-75567963D01*
X126717241Y-75412600D01*
X126949759Y-75257237D01*
X127149637Y-75057359D01*
X127306680Y-74822327D01*
X127414853Y-74561174D01*
X127470000Y-74283935D01*
X127470000Y-74001265D01*
X127414853Y-73724026D01*
X127306680Y-73462873D01*
X127149637Y-73227841D01*
X126949759Y-73027963D01*
X126717241Y-72872600D01*
X126949759Y-72717237D01*
X127149637Y-72517359D01*
X127306680Y-72282327D01*
X127414853Y-72021174D01*
X127470000Y-71743935D01*
X127470000Y-71461265D01*
X127414853Y-71184026D01*
X127306680Y-70922873D01*
X127149637Y-70687841D01*
X126949759Y-70487963D01*
X126716643Y-70332200D01*
X129337597Y-70332200D01*
X129360000Y-107629317D01*
X129351613Y-110849889D01*
X106959000Y-110846112D01*
X106959000Y-107202000D01*
X109961928Y-107202000D01*
X109961928Y-108902000D01*
X109974188Y-109026482D01*
X110010498Y-109146180D01*
X110069463Y-109256494D01*
X110148815Y-109353185D01*
X110245506Y-109432537D01*
X110355820Y-109491502D01*
X110475518Y-109527812D01*
X110600000Y-109540072D01*
X112300000Y-109540072D01*
X112424482Y-109527812D01*
X112544180Y-109491502D01*
X112654494Y-109432537D01*
X112751185Y-109353185D01*
X112830537Y-109256494D01*
X112889502Y-109146180D01*
X112925812Y-109026482D01*
X112938072Y-108902000D01*
X112938072Y-107202000D01*
X112925812Y-107077518D01*
X112889502Y-106957820D01*
X112830537Y-106847506D01*
X112751185Y-106750815D01*
X112654494Y-106671463D01*
X112544180Y-106612498D01*
X112424482Y-106576188D01*
X112300000Y-106563928D01*
X110600000Y-106563928D01*
X110475518Y-106576188D01*
X110355820Y-106612498D01*
X110245506Y-106671463D01*
X110148815Y-106750815D01*
X110069463Y-106847506D01*
X110010498Y-106957820D01*
X109974188Y-107077518D01*
X109961928Y-107202000D01*
X106959000Y-107202000D01*
X106959000Y-104971639D01*
X109403096Y-104971639D01*
X109443754Y-105105687D01*
X109563963Y-105360020D01*
X109731481Y-105586014D01*
X109939869Y-105774985D01*
X110181119Y-105919670D01*
X110445960Y-106014509D01*
X110668000Y-105893224D01*
X110668000Y-104749600D01*
X110922000Y-104749600D01*
X110922000Y-105893224D01*
X111144040Y-106014509D01*
X111408881Y-105919670D01*
X111650131Y-105774985D01*
X111858519Y-105586014D01*
X112026037Y-105360020D01*
X112146246Y-105105687D01*
X112186904Y-104971639D01*
X112064915Y-104749600D01*
X110922000Y-104749600D01*
X110668000Y-104749600D01*
X109525085Y-104749600D01*
X109403096Y-104971639D01*
X106959000Y-104971639D01*
X106959000Y-70332200D01*
X109567229Y-70332200D01*
X109543815Y-70351415D01*
%TA.AperFunction,Conductor*%
D16*
G36*
X109543815Y-70351415D02*
G01*
X109464463Y-70448106D01*
X109405498Y-70558420D01*
X109369188Y-70678118D01*
X109356928Y-70802600D01*
X109356928Y-72402600D01*
X109369188Y-72527082D01*
X109405498Y-72646780D01*
X109464463Y-72757094D01*
X109543815Y-72853785D01*
X109640506Y-72933137D01*
X109750820Y-72992102D01*
X109870518Y-73028412D01*
X109878961Y-73029243D01*
X109680363Y-73227841D01*
X109523320Y-73462873D01*
X109415147Y-73724026D01*
X109360000Y-74001265D01*
X109360000Y-74283935D01*
X109415147Y-74561174D01*
X109523320Y-74822327D01*
X109680363Y-75057359D01*
X109880241Y-75257237D01*
X110112759Y-75412600D01*
X109880241Y-75567963D01*
X109680363Y-75767841D01*
X109523320Y-76002873D01*
X109415147Y-76264026D01*
X109360000Y-76541265D01*
X109360000Y-76823935D01*
X109415147Y-77101174D01*
X109523320Y-77362327D01*
X109680363Y-77597359D01*
X109880241Y-77797237D01*
X110112759Y-77952600D01*
X109880241Y-78107963D01*
X109680363Y-78307841D01*
X109523320Y-78542873D01*
X109415147Y-78804026D01*
X109360000Y-79081265D01*
X109360000Y-79363935D01*
X109415147Y-79641174D01*
X109523320Y-79902327D01*
X109680363Y-80137359D01*
X109880241Y-80337237D01*
X110112759Y-80492600D01*
X109880241Y-80647963D01*
X109680363Y-80847841D01*
X109523320Y-81082873D01*
X109415147Y-81344026D01*
X109360000Y-81621265D01*
X109360000Y-81903935D01*
X109415147Y-82181174D01*
X109523320Y-82442327D01*
X109680363Y-82677359D01*
X109880241Y-82877237D01*
X109910001Y-82897122D01*
X109910001Y-82969414D01*
X109905718Y-83012900D01*
X109920322Y-83161182D01*
X109880241Y-83187963D01*
X109680363Y-83387841D01*
X109523320Y-83622873D01*
X109415147Y-83884026D01*
X109360000Y-84161265D01*
X109360000Y-84443935D01*
X109415147Y-84721174D01*
X109523320Y-84982327D01*
X109680363Y-85217359D01*
X109880241Y-85417237D01*
X110112759Y-85572600D01*
X109880241Y-85727963D01*
X109680363Y-85927841D01*
X109523320Y-86162873D01*
X109415147Y-86424026D01*
X109360000Y-86701265D01*
X109360000Y-86983935D01*
X109415147Y-87261174D01*
X109523320Y-87522327D01*
X109680363Y-87757359D01*
X109880241Y-87957237D01*
X110112759Y-88112600D01*
X109880241Y-88267963D01*
X109680363Y-88467841D01*
X109523320Y-88702873D01*
X109415147Y-88964026D01*
X109360000Y-89241265D01*
X109360000Y-89523935D01*
X109415147Y-89801174D01*
X109523320Y-90062327D01*
X109680363Y-90297359D01*
X109880241Y-90497237D01*
X110112759Y-90652600D01*
X109880241Y-90807963D01*
X109680363Y-91007841D01*
X109523320Y-91242873D01*
X109415147Y-91504026D01*
X109360000Y-91781265D01*
X109360000Y-92063935D01*
X109415147Y-92341174D01*
X109523320Y-92602327D01*
X109680363Y-92837359D01*
X109880241Y-93037237D01*
X110112759Y-93192600D01*
X109880241Y-93347963D01*
X109680363Y-93547841D01*
X109523320Y-93782873D01*
X109415147Y-94044026D01*
X109360000Y-94321265D01*
X109360000Y-94603935D01*
X109415147Y-94881174D01*
X109523320Y-95142327D01*
X109680363Y-95377359D01*
X109880241Y-95577237D01*
X110112759Y-95732600D01*
X109880241Y-95887963D01*
X109680363Y-96087841D01*
X109523320Y-96322873D01*
X109415147Y-96584026D01*
X109360000Y-96861265D01*
X109360000Y-97143935D01*
X109415147Y-97421174D01*
X109523320Y-97682327D01*
X109680363Y-97917359D01*
X109880241Y-98117237D01*
X110112759Y-98272600D01*
X109880241Y-98427963D01*
X109680363Y-98627841D01*
X109523320Y-98862873D01*
X109415147Y-99124026D01*
X109360000Y-99401265D01*
X109360000Y-99683935D01*
X109415147Y-99961174D01*
X109523320Y-100222327D01*
X109680363Y-100457359D01*
X109880241Y-100657237D01*
X110112759Y-100812600D01*
X109880241Y-100967963D01*
X109680363Y-101167841D01*
X109523320Y-101402873D01*
X109415147Y-101664026D01*
X109360000Y-101941265D01*
X109360000Y-102223935D01*
X109415147Y-102501174D01*
X109523320Y-102762327D01*
X109680363Y-102997359D01*
X109880241Y-103197237D01*
X110115273Y-103354280D01*
X110125865Y-103358667D01*
X109939869Y-103470215D01*
X109731481Y-103659186D01*
X109563963Y-103885180D01*
X109443754Y-104139513D01*
X109403096Y-104273561D01*
X109525085Y-104495600D01*
X110668000Y-104495600D01*
X110668000Y-104475600D01*
X110922000Y-104475600D01*
X110922000Y-104495600D01*
X112064915Y-104495600D01*
X112186904Y-104273561D01*
X112146246Y-104139513D01*
X112026037Y-103885180D01*
X111858519Y-103659186D01*
X111650131Y-103470215D01*
X111464135Y-103358667D01*
X111474727Y-103354280D01*
X111709759Y-103197237D01*
X111909637Y-102997359D01*
X112066680Y-102762327D01*
X112174853Y-102501174D01*
X112230000Y-102223935D01*
X112230000Y-101941265D01*
X112174853Y-101664026D01*
X112066680Y-101402873D01*
X111909637Y-101167841D01*
X111709759Y-100967963D01*
X111477241Y-100812600D01*
X111709759Y-100657237D01*
X111909637Y-100457359D01*
X112066680Y-100222327D01*
X112174853Y-99961174D01*
X112230000Y-99683935D01*
X112230000Y-99401265D01*
X112174853Y-99124026D01*
X112066680Y-98862873D01*
X111909637Y-98627841D01*
X111709759Y-98427963D01*
X111477241Y-98272600D01*
X111709759Y-98117237D01*
X111909637Y-97917359D01*
X112066680Y-97682327D01*
X112174853Y-97421174D01*
X112230000Y-97143935D01*
X112230000Y-96861265D01*
X112174853Y-96584026D01*
X112066680Y-96322873D01*
X111909637Y-96087841D01*
X111709759Y-95887963D01*
X111477241Y-95732600D01*
X111709759Y-95577237D01*
X111909637Y-95377359D01*
X112066680Y-95142327D01*
X112174853Y-94881174D01*
X112230000Y-94603935D01*
X112230000Y-94321265D01*
X112174853Y-94044026D01*
X112066680Y-93782873D01*
X111909637Y-93547841D01*
X111709759Y-93347963D01*
X111477241Y-93192600D01*
X111709759Y-93037237D01*
X111909637Y-92837359D01*
X112066680Y-92602327D01*
X112174853Y-92341174D01*
X112230000Y-92063935D01*
X112230000Y-91781265D01*
X112174853Y-91504026D01*
X112066680Y-91242873D01*
X111909637Y-91007841D01*
X111709759Y-90807963D01*
X111477241Y-90652600D01*
X111709759Y-90497237D01*
X111909637Y-90297359D01*
X112066680Y-90062327D01*
X112174853Y-89801174D01*
X112230000Y-89523935D01*
X112230000Y-89241265D01*
X112174853Y-88964026D01*
X112066680Y-88702873D01*
X111909637Y-88467841D01*
X111709759Y-88267963D01*
X111477241Y-88112600D01*
X111709759Y-87957237D01*
X111909637Y-87757359D01*
X112066680Y-87522327D01*
X112174853Y-87261174D01*
X112230000Y-86983935D01*
X112230000Y-86908878D01*
X112420298Y-86871026D01*
X112608656Y-86793005D01*
X112778174Y-86679737D01*
X112922337Y-86535574D01*
X112975000Y-86456758D01*
X112975001Y-105548521D01*
X112970719Y-105592000D01*
X112987805Y-105765490D01*
X113038412Y-105932313D01*
X113120590Y-106086059D01*
X113203468Y-106187046D01*
X113203471Y-106187049D01*
X113231184Y-106220817D01*
X113264951Y-106248529D01*
X114831928Y-107815507D01*
X114831928Y-108902000D01*
X114844188Y-109026482D01*
X114880498Y-109146180D01*
X114939463Y-109256494D01*
X115018815Y-109353185D01*
X115115506Y-109432537D01*
X115225820Y-109491502D01*
X115345518Y-109527812D01*
X115470000Y-109540072D01*
X117170000Y-109540072D01*
X117294482Y-109527812D01*
X117414180Y-109491502D01*
X117524494Y-109432537D01*
X117621185Y-109353185D01*
X117700537Y-109256494D01*
X117759502Y-109146180D01*
X117795812Y-109026482D01*
X117808072Y-108902000D01*
X117808072Y-107202000D01*
X117795812Y-107077518D01*
X117759502Y-106957820D01*
X117700537Y-106847506D01*
X117621185Y-106750815D01*
X117524494Y-106671463D01*
X117414180Y-106612498D01*
X117294482Y-106576188D01*
X117170000Y-106563928D01*
X116083507Y-106563928D01*
X114745000Y-105225422D01*
X114745000Y-88778061D01*
X117225000Y-88778061D01*
X117225000Y-88981939D01*
X117264774Y-89181898D01*
X117342795Y-89370256D01*
X117375000Y-89418454D01*
X117375001Y-105398521D01*
X117370719Y-105442000D01*
X117387805Y-105615490D01*
X117438412Y-105782313D01*
X117520590Y-105936059D01*
X117603468Y-106037046D01*
X117603471Y-106037049D01*
X117631184Y-106070817D01*
X117664951Y-106098529D01*
X119381928Y-107815507D01*
X119381928Y-108902000D01*
X119394188Y-109026482D01*
X119430498Y-109146180D01*
X119489463Y-109256494D01*
X119568815Y-109353185D01*
X119665506Y-109432537D01*
X119775820Y-109491502D01*
X119895518Y-109527812D01*
X120020000Y-109540072D01*
X121720000Y-109540072D01*
X121844482Y-109527812D01*
X121964180Y-109491502D01*
X122074494Y-109432537D01*
X122171185Y-109353185D01*
X122250537Y-109256494D01*
X122309502Y-109146180D01*
X122345812Y-109026482D01*
X122358072Y-108902000D01*
X122358072Y-107202000D01*
X123711928Y-107202000D01*
X123711928Y-108902000D01*
X123724188Y-109026482D01*
X123760498Y-109146180D01*
X123819463Y-109256494D01*
X123898815Y-109353185D01*
X123995506Y-109432537D01*
X124105820Y-109491502D01*
X124225518Y-109527812D01*
X124350000Y-109540072D01*
X126050000Y-109540072D01*
X126174482Y-109527812D01*
X126294180Y-109491502D01*
X126404494Y-109432537D01*
X126501185Y-109353185D01*
X126580537Y-109256494D01*
X126639502Y-109146180D01*
X126675812Y-109026482D01*
X126688072Y-108902000D01*
X126688072Y-107202000D01*
X126675812Y-107077518D01*
X126639502Y-106957820D01*
X126580537Y-106847506D01*
X126501185Y-106750815D01*
X126404494Y-106671463D01*
X126294180Y-106612498D01*
X126174482Y-106576188D01*
X126050000Y-106563928D01*
X124350000Y-106563928D01*
X124225518Y-106576188D01*
X124105820Y-106612498D01*
X123995506Y-106671463D01*
X123898815Y-106750815D01*
X123819463Y-106847506D01*
X123760498Y-106957820D01*
X123724188Y-107077518D01*
X123711928Y-107202000D01*
X122358072Y-107202000D01*
X122345812Y-107077518D01*
X122309502Y-106957820D01*
X122250537Y-106847506D01*
X122171185Y-106750815D01*
X122074494Y-106671463D01*
X121964180Y-106612498D01*
X121844482Y-106576188D01*
X121720000Y-106563928D01*
X120633507Y-106563928D01*
X119145000Y-105075422D01*
X119145000Y-89418454D01*
X119177205Y-89370256D01*
X119255226Y-89181898D01*
X119295000Y-88981939D01*
X119295000Y-88778061D01*
X119255226Y-88578102D01*
X119177205Y-88389744D01*
X119063937Y-88220226D01*
X118919774Y-88076063D01*
X118750256Y-87962795D01*
X118561898Y-87884774D01*
X118361939Y-87845000D01*
X118158061Y-87845000D01*
X117958102Y-87884774D01*
X117769744Y-87962795D01*
X117600226Y-88076063D01*
X117456063Y-88220226D01*
X117342795Y-88389744D01*
X117264774Y-88578102D01*
X117225000Y-88778061D01*
X114745000Y-88778061D01*
X114745000Y-80368454D01*
X114777205Y-80320256D01*
X114855226Y-80131898D01*
X114895000Y-79931939D01*
X114895000Y-79728061D01*
X114855226Y-79528102D01*
X114777205Y-79339744D01*
X114663937Y-79170226D01*
X114519774Y-79026063D01*
X114350256Y-78912795D01*
X114161898Y-78834774D01*
X113961939Y-78795000D01*
X113758061Y-78795000D01*
X113558102Y-78834774D01*
X113369744Y-78912795D01*
X113200226Y-79026063D01*
X113056063Y-79170226D01*
X112942795Y-79339744D01*
X112864774Y-79528102D01*
X112825000Y-79728061D01*
X112825000Y-79931939D01*
X112864774Y-80131898D01*
X112942795Y-80320256D01*
X112975000Y-80368454D01*
X112975000Y-83567501D01*
X112939989Y-83452087D01*
X112857811Y-83298341D01*
X112833610Y-83268852D01*
X112774932Y-83197353D01*
X112774930Y-83197351D01*
X112747217Y-83163583D01*
X112713449Y-83135870D01*
X112047945Y-82470367D01*
X112066680Y-82442327D01*
X112174853Y-82181174D01*
X112230000Y-81903935D01*
X112230000Y-81621265D01*
X112174853Y-81344026D01*
X112066680Y-81082873D01*
X111909637Y-80847841D01*
X111709759Y-80647963D01*
X111477241Y-80492600D01*
X111709759Y-80337237D01*
X111909637Y-80137359D01*
X112066680Y-79902327D01*
X112174853Y-79641174D01*
X112230000Y-79363935D01*
X112230000Y-79081265D01*
X112174853Y-78804026D01*
X112066680Y-78542873D01*
X111909637Y-78307841D01*
X111709759Y-78107963D01*
X111477241Y-77952600D01*
X111709759Y-77797237D01*
X111909637Y-77597359D01*
X112066680Y-77362327D01*
X112174853Y-77101174D01*
X112230000Y-76823935D01*
X112230000Y-76541265D01*
X112174853Y-76264026D01*
X112066680Y-76002873D01*
X111909637Y-75767841D01*
X111709759Y-75567963D01*
X111477241Y-75412600D01*
X111709759Y-75257237D01*
X111909637Y-75057359D01*
X112066680Y-74822327D01*
X112174853Y-74561174D01*
X112230000Y-74283935D01*
X112230000Y-74001265D01*
X112174853Y-73724026D01*
X112066680Y-73462873D01*
X111909637Y-73227841D01*
X111711039Y-73029243D01*
X111719482Y-73028412D01*
X111839180Y-72992102D01*
X111949494Y-72933137D01*
X112046185Y-72853785D01*
X112125537Y-72757094D01*
X112184502Y-72646780D01*
X112220812Y-72527082D01*
X112233072Y-72402600D01*
X112233072Y-70802600D01*
X112220812Y-70678118D01*
X112184502Y-70558420D01*
X112125537Y-70448106D01*
X112046185Y-70351415D01*
X112022771Y-70332200D01*
X125353357Y-70332200D01*
X125120241Y-70487963D01*
X124920363Y-70687841D01*
X124763320Y-70922873D01*
X124655147Y-71184026D01*
X124600000Y-71461265D01*
X124600000Y-71743935D01*
X124655147Y-72021174D01*
X124763320Y-72282327D01*
X124920363Y-72517359D01*
X125120241Y-72717237D01*
X125352759Y-72872600D01*
X125120241Y-73027963D01*
X124920363Y-73227841D01*
X124763320Y-73462873D01*
X124655147Y-73724026D01*
X124600000Y-74001265D01*
X124600000Y-74283935D01*
X124655147Y-74561174D01*
X124763320Y-74822327D01*
X124920363Y-75057359D01*
X125120241Y-75257237D01*
X125352759Y-75412600D01*
X125120241Y-75567963D01*
X124920363Y-75767841D01*
X124763320Y-76002873D01*
X124655147Y-76264026D01*
X124600000Y-76541265D01*
X124600000Y-76823935D01*
X124655147Y-77101174D01*
X124763320Y-77362327D01*
X124920363Y-77597359D01*
X125120241Y-77797237D01*
X125352759Y-77952600D01*
X125120241Y-78107963D01*
X124920363Y-78307841D01*
X124763320Y-78542873D01*
X124655147Y-78804026D01*
X124600000Y-79081265D01*
X124600000Y-79363935D01*
X124655147Y-79641174D01*
X124763320Y-79902327D01*
X124920363Y-80137359D01*
X125120241Y-80337237D01*
X125352759Y-80492600D01*
X125120241Y-80647963D01*
X124920363Y-80847841D01*
X124763320Y-81082873D01*
X124655147Y-81344026D01*
X124600000Y-81621265D01*
X124600000Y-81903935D01*
X124655147Y-82181174D01*
X124763320Y-82442327D01*
X124781174Y-82469047D01*
X120968851Y-86281370D01*
X120935084Y-86309083D01*
X120907371Y-86342851D01*
X120907368Y-86342854D01*
X120885206Y-86369859D01*
X120824490Y-86443841D01*
X120742311Y-86597587D01*
X120691705Y-86764410D01*
X120678900Y-86894423D01*
X120678900Y-86894431D01*
X120675063Y-86933388D01*
X120646695Y-86975844D01*
X120568674Y-87164202D01*
X120528900Y-87364161D01*
X120528900Y-87568039D01*
X120568674Y-87767998D01*
X120646695Y-87956356D01*
X120759963Y-88125874D01*
X120904126Y-88270037D01*
X121073644Y-88383305D01*
X121262002Y-88461326D01*
X121461961Y-88501100D01*
X121665839Y-88501100D01*
X121865798Y-88461326D01*
X122054156Y-88383305D01*
X122223674Y-88270037D01*
X122367837Y-88125874D01*
X122481105Y-87956356D01*
X122559126Y-87767998D01*
X122598900Y-87568039D01*
X122598900Y-87364161D01*
X122564112Y-87189267D01*
X124766417Y-84986962D01*
X124920363Y-85217359D01*
X125120241Y-85417237D01*
X125352759Y-85572600D01*
X125120241Y-85727963D01*
X124920363Y-85927841D01*
X124763320Y-86162873D01*
X124655147Y-86424026D01*
X124600000Y-86701265D01*
X124600000Y-86983935D01*
X124655147Y-87261174D01*
X124763320Y-87522327D01*
X124920363Y-87757359D01*
X125120241Y-87957237D01*
X125352759Y-88112600D01*
X125120241Y-88267963D01*
X124920363Y-88467841D01*
X124763320Y-88702873D01*
X124655147Y-88964026D01*
X124617159Y-89155000D01*
X121018454Y-89155000D01*
X120970256Y-89122795D01*
X120781898Y-89044774D01*
X120581939Y-89005000D01*
X120378061Y-89005000D01*
X120178102Y-89044774D01*
X119989744Y-89122795D01*
X119820226Y-89236063D01*
X119676063Y-89380226D01*
X119562795Y-89549744D01*
X119484774Y-89738102D01*
X119445000Y-89938061D01*
X119445000Y-90141939D01*
X119484774Y-90341898D01*
X119562795Y-90530256D01*
X119676063Y-90699774D01*
X119820226Y-90843937D01*
X119989744Y-90957205D01*
X120178102Y-91035226D01*
X120378061Y-91075000D01*
X120581939Y-91075000D01*
X120781898Y-91035226D01*
X120970256Y-90957205D01*
X121018454Y-90925000D01*
X125003204Y-90925000D01*
X124920363Y-91007841D01*
X124763320Y-91242873D01*
X124655147Y-91504026D01*
X124600000Y-91781265D01*
X124600000Y-92063935D01*
X124655147Y-92341174D01*
X124763320Y-92602327D01*
X124920363Y-92837359D01*
X125120241Y-93037237D01*
X125352759Y-93192600D01*
X125120241Y-93347963D01*
X124920363Y-93547841D01*
X124763320Y-93782873D01*
X124655147Y-94044026D01*
X124600000Y-94321265D01*
X124600000Y-94603935D01*
X124655147Y-94881174D01*
X124763320Y-95142327D01*
X124920363Y-95377359D01*
X125120241Y-95577237D01*
X125352759Y-95732600D01*
X125120241Y-95887963D01*
X124920363Y-96087841D01*
X124763320Y-96322873D01*
X124655147Y-96584026D01*
X124600000Y-96861265D01*
X124600000Y-97143935D01*
X124655147Y-97421174D01*
X124763320Y-97682327D01*
X124920363Y-97917359D01*
X125120241Y-98117237D01*
X125352759Y-98272600D01*
X125120241Y-98427963D01*
X124920363Y-98627841D01*
X124763320Y-98862873D01*
X124655147Y-99124026D01*
X124600000Y-99401265D01*
X124600000Y-99683935D01*
X124655147Y-99961174D01*
X124763320Y-100222327D01*
X124920363Y-100457359D01*
X125120241Y-100657237D01*
X125352759Y-100812600D01*
X125120241Y-100967963D01*
X124920363Y-101167841D01*
X124763320Y-101402873D01*
X124655147Y-101664026D01*
X124600000Y-101941265D01*
X124600000Y-102223935D01*
X124655147Y-102501174D01*
X124763320Y-102762327D01*
X124920363Y-102997359D01*
X125120241Y-103197237D01*
X125352759Y-103352600D01*
X125120241Y-103507963D01*
X124920363Y-103707841D01*
X124763320Y-103942873D01*
X124655147Y-104204026D01*
X124600000Y-104481265D01*
X124600000Y-104763935D01*
X124655147Y-105041174D01*
X124763320Y-105302327D01*
X124920363Y-105537359D01*
X125120241Y-105737237D01*
X125355273Y-105894280D01*
X125616426Y-106002453D01*
X125893665Y-106057600D01*
X126176335Y-106057600D01*
X126453574Y-106002453D01*
X126714727Y-105894280D01*
X126949759Y-105737237D01*
X127149637Y-105537359D01*
X127306680Y-105302327D01*
X127414853Y-105041174D01*
X127470000Y-104763935D01*
X127470000Y-104481265D01*
X127414853Y-104204026D01*
X127306680Y-103942873D01*
X127149637Y-103707841D01*
X126949759Y-103507963D01*
X126717241Y-103352600D01*
X126949759Y-103197237D01*
X127149637Y-102997359D01*
X127306680Y-102762327D01*
X127414853Y-102501174D01*
X127470000Y-102223935D01*
X127470000Y-101941265D01*
X127414853Y-101664026D01*
X127306680Y-101402873D01*
X127149637Y-101167841D01*
X126949759Y-100967963D01*
X126717241Y-100812600D01*
X126949759Y-100657237D01*
X127149637Y-100457359D01*
X127306680Y-100222327D01*
X127414853Y-99961174D01*
X127470000Y-99683935D01*
X127470000Y-99401265D01*
X127414853Y-99124026D01*
X127306680Y-98862873D01*
X127149637Y-98627841D01*
X126949759Y-98427963D01*
X126717241Y-98272600D01*
X126949759Y-98117237D01*
X127149637Y-97917359D01*
X127306680Y-97682327D01*
X127414853Y-97421174D01*
X127470000Y-97143935D01*
X127470000Y-96861265D01*
X127414853Y-96584026D01*
X127306680Y-96322873D01*
X127149637Y-96087841D01*
X126949759Y-95887963D01*
X126717241Y-95732600D01*
X126949759Y-95577237D01*
X127149637Y-95377359D01*
X127306680Y-95142327D01*
X127414853Y-94881174D01*
X127470000Y-94603935D01*
X127470000Y-94321265D01*
X127414853Y-94044026D01*
X127306680Y-93782873D01*
X127149637Y-93547841D01*
X126949759Y-93347963D01*
X126717241Y-93192600D01*
X126949759Y-93037237D01*
X127149637Y-92837359D01*
X127306680Y-92602327D01*
X127414853Y-92341174D01*
X127470000Y-92063935D01*
X127470000Y-91781265D01*
X127414853Y-91504026D01*
X127306680Y-91242873D01*
X127149637Y-91007841D01*
X126949759Y-90807963D01*
X126717241Y-90652600D01*
X126949759Y-90497237D01*
X127149637Y-90297359D01*
X127306680Y-90062327D01*
X127414853Y-89801174D01*
X127470000Y-89523935D01*
X127470000Y-89241265D01*
X127414853Y-88964026D01*
X127306680Y-88702873D01*
X127149637Y-88467841D01*
X126949759Y-88267963D01*
X126717241Y-88112600D01*
X126949759Y-87957237D01*
X127149637Y-87757359D01*
X127306680Y-87522327D01*
X127414853Y-87261174D01*
X127470000Y-86983935D01*
X127470000Y-86701265D01*
X127414853Y-86424026D01*
X127306680Y-86162873D01*
X127149637Y-85927841D01*
X126949759Y-85727963D01*
X126717241Y-85572600D01*
X126949759Y-85417237D01*
X127149637Y-85217359D01*
X127306680Y-84982327D01*
X127414853Y-84721174D01*
X127470000Y-84443935D01*
X127470000Y-84161265D01*
X127414853Y-83884026D01*
X127306680Y-83622873D01*
X127149637Y-83387841D01*
X126949759Y-83187963D01*
X126909678Y-83161182D01*
X126920000Y-83056377D01*
X126924282Y-83012900D01*
X126920000Y-82969423D01*
X126920000Y-82897121D01*
X126949759Y-82877237D01*
X127149637Y-82677359D01*
X127306680Y-82442327D01*
X127414853Y-82181174D01*
X127470000Y-81903935D01*
X127470000Y-81621265D01*
X127414853Y-81344026D01*
X127306680Y-81082873D01*
X127149637Y-80847841D01*
X126949759Y-80647963D01*
X126717241Y-80492600D01*
X126949759Y-80337237D01*
X127149637Y-80137359D01*
X127306680Y-79902327D01*
X127414853Y-79641174D01*
X127470000Y-79363935D01*
X127470000Y-79081265D01*
X127414853Y-78804026D01*
X127306680Y-78542873D01*
X127149637Y-78307841D01*
X126949759Y-78107963D01*
X126717241Y-77952600D01*
X126949759Y-77797237D01*
X127149637Y-77597359D01*
X127306680Y-77362327D01*
X127414853Y-77101174D01*
X127470000Y-76823935D01*
X127470000Y-76541265D01*
X127414853Y-76264026D01*
X127306680Y-76002873D01*
X127149637Y-75767841D01*
X126949759Y-75567963D01*
X126717241Y-75412600D01*
X126949759Y-75257237D01*
X127149637Y-75057359D01*
X127306680Y-74822327D01*
X127414853Y-74561174D01*
X127470000Y-74283935D01*
X127470000Y-74001265D01*
X127414853Y-73724026D01*
X127306680Y-73462873D01*
X127149637Y-73227841D01*
X126949759Y-73027963D01*
X126717241Y-72872600D01*
X126949759Y-72717237D01*
X127149637Y-72517359D01*
X127306680Y-72282327D01*
X127414853Y-72021174D01*
X127470000Y-71743935D01*
X127470000Y-71461265D01*
X127414853Y-71184026D01*
X127306680Y-70922873D01*
X127149637Y-70687841D01*
X126949759Y-70487963D01*
X126716643Y-70332200D01*
X129337597Y-70332200D01*
X129360000Y-107629317D01*
X129351613Y-110849889D01*
X106959000Y-110846112D01*
X106959000Y-107202000D01*
X109961928Y-107202000D01*
X109961928Y-108902000D01*
X109974188Y-109026482D01*
X110010498Y-109146180D01*
X110069463Y-109256494D01*
X110148815Y-109353185D01*
X110245506Y-109432537D01*
X110355820Y-109491502D01*
X110475518Y-109527812D01*
X110600000Y-109540072D01*
X112300000Y-109540072D01*
X112424482Y-109527812D01*
X112544180Y-109491502D01*
X112654494Y-109432537D01*
X112751185Y-109353185D01*
X112830537Y-109256494D01*
X112889502Y-109146180D01*
X112925812Y-109026482D01*
X112938072Y-108902000D01*
X112938072Y-107202000D01*
X112925812Y-107077518D01*
X112889502Y-106957820D01*
X112830537Y-106847506D01*
X112751185Y-106750815D01*
X112654494Y-106671463D01*
X112544180Y-106612498D01*
X112424482Y-106576188D01*
X112300000Y-106563928D01*
X110600000Y-106563928D01*
X110475518Y-106576188D01*
X110355820Y-106612498D01*
X110245506Y-106671463D01*
X110148815Y-106750815D01*
X110069463Y-106847506D01*
X110010498Y-106957820D01*
X109974188Y-107077518D01*
X109961928Y-107202000D01*
X106959000Y-107202000D01*
X106959000Y-104971639D01*
X109403096Y-104971639D01*
X109443754Y-105105687D01*
X109563963Y-105360020D01*
X109731481Y-105586014D01*
X109939869Y-105774985D01*
X110181119Y-105919670D01*
X110445960Y-106014509D01*
X110668000Y-105893224D01*
X110668000Y-104749600D01*
X110922000Y-104749600D01*
X110922000Y-105893224D01*
X111144040Y-106014509D01*
X111408881Y-105919670D01*
X111650131Y-105774985D01*
X111858519Y-105586014D01*
X112026037Y-105360020D01*
X112146246Y-105105687D01*
X112186904Y-104971639D01*
X112064915Y-104749600D01*
X110922000Y-104749600D01*
X110668000Y-104749600D01*
X109525085Y-104749600D01*
X109403096Y-104971639D01*
X106959000Y-104971639D01*
X106959000Y-70332200D01*
X109567229Y-70332200D01*
X109543815Y-70351415D01*
G37*
%TD.AperFunction*%
%TD*%
M02*
