%TF.GenerationSoftware,KiCad,Pcbnew,(5.1.9)-1*%
%TF.CreationDate,2021-09-03T13:00:36+02:00*%
%TF.ProjectId,ZX81 Intern 32K,5a583831-2049-46e7-9465-726e2033324b,rev?*%
%TF.SameCoordinates,Original*%
%TF.FileFunction,Legend,Bot*%
%TF.FilePolarity,Positive*%
%FSLAX46Y46*%
G04 Gerber Fmt 4.6, Leading zero omitted, Abs format (unit mm)*
G04 Created by KiCad (PCBNEW (5.1.9)-1) date 2021-09-03 13:00:36*
%MOMM*%
%LPD*%
G01*
G04 APERTURE LIST*
%ADD10C,0.200000*%
%ADD11C,0.010000*%
G04 APERTURE END LIST*
D10*
X113588095Y-96537142D02*
X113969047Y-96803809D01*
X113588095Y-96994285D02*
X114388095Y-96994285D01*
X114388095Y-96689523D01*
X114350000Y-96613333D01*
X114311904Y-96575238D01*
X114235714Y-96537142D01*
X114121428Y-96537142D01*
X114045238Y-96575238D01*
X114007142Y-96613333D01*
X113969047Y-96689523D01*
X113969047Y-96994285D01*
X113626190Y-95889523D02*
X113588095Y-95965714D01*
X113588095Y-96118095D01*
X113626190Y-96194285D01*
X113702380Y-96232380D01*
X114007142Y-96232380D01*
X114083333Y-96194285D01*
X114121428Y-96118095D01*
X114121428Y-95965714D01*
X114083333Y-95889523D01*
X114007142Y-95851428D01*
X113930952Y-95851428D01*
X113854761Y-96232380D01*
X114121428Y-95584761D02*
X113588095Y-95394285D01*
X114121428Y-95203809D01*
X113664285Y-94899047D02*
X113626190Y-94860952D01*
X113588095Y-94899047D01*
X113626190Y-94937142D01*
X113664285Y-94899047D01*
X113588095Y-94899047D01*
X114007142Y-93641904D02*
X113969047Y-93527619D01*
X113930952Y-93489523D01*
X113854761Y-93451428D01*
X113740476Y-93451428D01*
X113664285Y-93489523D01*
X113626190Y-93527619D01*
X113588095Y-93603809D01*
X113588095Y-93908571D01*
X114388095Y-93908571D01*
X114388095Y-93641904D01*
X114350000Y-93565714D01*
X114311904Y-93527619D01*
X114235714Y-93489523D01*
X114159523Y-93489523D01*
X114083333Y-93527619D01*
X114045238Y-93565714D01*
X114007142Y-93641904D01*
X114007142Y-93908571D01*
X113892857Y-92499047D02*
X113892857Y-91889523D01*
X113588095Y-90899047D02*
X114388095Y-90899047D01*
X114388095Y-90708571D01*
X114350000Y-90594285D01*
X114273809Y-90518095D01*
X114197619Y-90480000D01*
X114045238Y-90441904D01*
X113930952Y-90441904D01*
X113778571Y-90480000D01*
X113702380Y-90518095D01*
X113626190Y-90594285D01*
X113588095Y-90708571D01*
X113588095Y-90899047D01*
X113626190Y-89794285D02*
X113588095Y-89870476D01*
X113588095Y-90022857D01*
X113626190Y-90099047D01*
X113702380Y-90137142D01*
X114007142Y-90137142D01*
X114083333Y-90099047D01*
X114121428Y-90022857D01*
X114121428Y-89870476D01*
X114083333Y-89794285D01*
X114007142Y-89756190D01*
X113930952Y-89756190D01*
X113854761Y-90137142D01*
X113626190Y-89451428D02*
X113588095Y-89375238D01*
X113588095Y-89222857D01*
X113626190Y-89146666D01*
X113702380Y-89108571D01*
X113740476Y-89108571D01*
X113816666Y-89146666D01*
X113854761Y-89222857D01*
X113854761Y-89337142D01*
X113892857Y-89413333D01*
X113969047Y-89451428D01*
X114007142Y-89451428D01*
X114083333Y-89413333D01*
X114121428Y-89337142D01*
X114121428Y-89222857D01*
X114083333Y-89146666D01*
X113588095Y-88765714D02*
X114121428Y-88765714D01*
X114388095Y-88765714D02*
X114350000Y-88803809D01*
X114311904Y-88765714D01*
X114350000Y-88727619D01*
X114388095Y-88765714D01*
X114311904Y-88765714D01*
X114121428Y-88041904D02*
X113473809Y-88041904D01*
X113397619Y-88080000D01*
X113359523Y-88118095D01*
X113321428Y-88194285D01*
X113321428Y-88308571D01*
X113359523Y-88384761D01*
X113626190Y-88041904D02*
X113588095Y-88118095D01*
X113588095Y-88270476D01*
X113626190Y-88346666D01*
X113664285Y-88384761D01*
X113740476Y-88422857D01*
X113969047Y-88422857D01*
X114045238Y-88384761D01*
X114083333Y-88346666D01*
X114121428Y-88270476D01*
X114121428Y-88118095D01*
X114083333Y-88041904D01*
X114121428Y-87660952D02*
X113588095Y-87660952D01*
X114045238Y-87660952D02*
X114083333Y-87622857D01*
X114121428Y-87546666D01*
X114121428Y-87432380D01*
X114083333Y-87356190D01*
X114007142Y-87318095D01*
X113588095Y-87318095D01*
X113588095Y-86327619D02*
X114388095Y-86327619D01*
X114083333Y-86327619D02*
X114121428Y-86251428D01*
X114121428Y-86099047D01*
X114083333Y-86022857D01*
X114045238Y-85984761D01*
X113969047Y-85946666D01*
X113740476Y-85946666D01*
X113664285Y-85984761D01*
X113626190Y-86022857D01*
X113588095Y-86099047D01*
X113588095Y-86251428D01*
X113626190Y-86327619D01*
X114121428Y-85680000D02*
X113588095Y-85489523D01*
X114121428Y-85299047D02*
X113588095Y-85489523D01*
X113397619Y-85565714D01*
X113359523Y-85603809D01*
X113321428Y-85680000D01*
X113588095Y-83927619D02*
X113969047Y-84194285D01*
X113588095Y-84384761D02*
X114388095Y-84384761D01*
X114388095Y-84080000D01*
X114350000Y-84003809D01*
X114311904Y-83965714D01*
X114235714Y-83927619D01*
X114121428Y-83927619D01*
X114045238Y-83965714D01*
X114007142Y-84003809D01*
X113969047Y-84080000D01*
X113969047Y-84384761D01*
X113626190Y-83280000D02*
X113588095Y-83356190D01*
X113588095Y-83508571D01*
X113626190Y-83584761D01*
X113702380Y-83622857D01*
X114007142Y-83622857D01*
X114083333Y-83584761D01*
X114121428Y-83508571D01*
X114121428Y-83356190D01*
X114083333Y-83280000D01*
X114007142Y-83241904D01*
X113930952Y-83241904D01*
X113854761Y-83622857D01*
X114121428Y-83013333D02*
X114121428Y-82708571D01*
X114388095Y-82899047D02*
X113702380Y-82899047D01*
X113626190Y-82860952D01*
X113588095Y-82784761D01*
X113588095Y-82708571D01*
X113588095Y-82441904D02*
X114121428Y-82441904D01*
X113969047Y-82441904D02*
X114045238Y-82403809D01*
X114083333Y-82365714D01*
X114121428Y-82289523D01*
X114121428Y-82213333D01*
X113588095Y-81832380D02*
X113626190Y-81908571D01*
X113664285Y-81946666D01*
X113740476Y-81984761D01*
X113969047Y-81984761D01*
X114045238Y-81946666D01*
X114083333Y-81908571D01*
X114121428Y-81832380D01*
X114121428Y-81718095D01*
X114083333Y-81641904D01*
X114045238Y-81603809D01*
X113969047Y-81565714D01*
X113740476Y-81565714D01*
X113664285Y-81603809D01*
X113626190Y-81641904D01*
X113588095Y-81718095D01*
X113588095Y-81832380D01*
X113816666Y-81260952D02*
X113816666Y-80880000D01*
X113588095Y-81337142D02*
X114388095Y-81070476D01*
X113588095Y-80803809D01*
X113588095Y-80194285D02*
X114388095Y-80194285D01*
X113626190Y-80194285D02*
X113588095Y-80270476D01*
X113588095Y-80422857D01*
X113626190Y-80499047D01*
X113664285Y-80537142D01*
X113740476Y-80575238D01*
X113969047Y-80575238D01*
X114045238Y-80537142D01*
X114083333Y-80499047D01*
X114121428Y-80422857D01*
X114121428Y-80270476D01*
X114083333Y-80194285D01*
X114121428Y-79889523D02*
X113588095Y-79699047D01*
X114121428Y-79508571D01*
X113626190Y-78899047D02*
X113588095Y-78975238D01*
X113588095Y-79127619D01*
X113626190Y-79203809D01*
X113702380Y-79241904D01*
X114007142Y-79241904D01*
X114083333Y-79203809D01*
X114121428Y-79127619D01*
X114121428Y-78975238D01*
X114083333Y-78899047D01*
X114007142Y-78860952D01*
X113930952Y-78860952D01*
X113854761Y-79241904D01*
X114121428Y-78518095D02*
X113588095Y-78518095D01*
X114045238Y-78518095D02*
X114083333Y-78480000D01*
X114121428Y-78403809D01*
X114121428Y-78289523D01*
X114083333Y-78213333D01*
X114007142Y-78175238D01*
X113588095Y-78175238D01*
X114121428Y-77908571D02*
X114121428Y-77603809D01*
X114388095Y-77794285D02*
X113702380Y-77794285D01*
X113626190Y-77756190D01*
X113588095Y-77680000D01*
X113588095Y-77603809D01*
X114121428Y-76994285D02*
X113588095Y-76994285D01*
X114121428Y-77337142D02*
X113702380Y-77337142D01*
X113626190Y-77299047D01*
X113588095Y-77222857D01*
X113588095Y-77108571D01*
X113626190Y-77032380D01*
X113664285Y-76994285D01*
X113588095Y-76613333D02*
X114121428Y-76613333D01*
X113969047Y-76613333D02*
X114045238Y-76575238D01*
X114083333Y-76537142D01*
X114121428Y-76460952D01*
X114121428Y-76384761D01*
X113626190Y-75813333D02*
X113588095Y-75889523D01*
X113588095Y-76041904D01*
X113626190Y-76118095D01*
X113702380Y-76156190D01*
X114007142Y-76156190D01*
X114083333Y-76118095D01*
X114121428Y-76041904D01*
X114121428Y-75889523D01*
X114083333Y-75813333D01*
X114007142Y-75775238D01*
X113930952Y-75775238D01*
X113854761Y-76156190D01*
X113626190Y-75470476D02*
X113588095Y-75394285D01*
X113588095Y-75241904D01*
X113626190Y-75165714D01*
X113702380Y-75127619D01*
X113740476Y-75127619D01*
X113816666Y-75165714D01*
X113854761Y-75241904D01*
X113854761Y-75356190D01*
X113892857Y-75432380D01*
X113969047Y-75470476D01*
X114007142Y-75470476D01*
X114083333Y-75432380D01*
X114121428Y-75356190D01*
X114121428Y-75241904D01*
X114083333Y-75165714D01*
D11*
%TO.C,REF\u002A\u002A\u002A*%
G36*
X120807652Y-94906090D02*
G01*
X120807222Y-94827546D01*
X120806058Y-94770702D01*
X120803793Y-94731895D01*
X120800060Y-94707462D01*
X120794494Y-94693738D01*
X120786727Y-94687060D01*
X120776395Y-94683764D01*
X120775057Y-94683444D01*
X120750921Y-94678438D01*
X120703299Y-94669171D01*
X120637259Y-94656608D01*
X120557872Y-94641713D01*
X120470204Y-94625449D01*
X120467125Y-94624881D01*
X120381211Y-94608590D01*
X120305304Y-94593348D01*
X120243955Y-94580139D01*
X120201718Y-94569946D01*
X120183145Y-94563752D01*
X120182816Y-94563457D01*
X120173747Y-94545212D01*
X120158633Y-94507595D01*
X120140738Y-94458729D01*
X120140642Y-94458457D01*
X120117507Y-94396907D01*
X120088035Y-94324343D01*
X120058403Y-94255943D01*
X120056938Y-94252706D01*
X120006374Y-94141298D01*
X120174840Y-93894601D01*
X120226197Y-93818923D01*
X120272111Y-93750369D01*
X120309970Y-93692912D01*
X120337163Y-93650524D01*
X120351079Y-93627175D01*
X120352111Y-93624958D01*
X120347516Y-93607990D01*
X120325345Y-93576299D01*
X120284553Y-93528648D01*
X120224095Y-93463802D01*
X120159773Y-93397603D01*
X120096388Y-93333786D01*
X120038549Y-93276671D01*
X119989825Y-93229695D01*
X119953790Y-93196297D01*
X119934016Y-93179915D01*
X119932998Y-93179306D01*
X119919428Y-93177495D01*
X119897267Y-93184317D01*
X119863522Y-93201460D01*
X119815200Y-93230607D01*
X119749308Y-93273445D01*
X119664483Y-93330552D01*
X119589823Y-93381234D01*
X119522860Y-93426539D01*
X119467484Y-93463850D01*
X119427580Y-93490548D01*
X119407038Y-93504015D01*
X119405644Y-93504863D01*
X119385962Y-93503219D01*
X119347707Y-93490755D01*
X119298111Y-93469952D01*
X119282272Y-93462538D01*
X119211710Y-93430186D01*
X119131647Y-93395672D01*
X119062371Y-93367635D01*
X119010955Y-93347432D01*
X118971881Y-93331385D01*
X118951459Y-93322112D01*
X118949886Y-93320959D01*
X118947279Y-93303904D01*
X118940137Y-93263702D01*
X118929477Y-93205698D01*
X118916315Y-93135237D01*
X118901667Y-93057665D01*
X118886551Y-92978328D01*
X118871982Y-92902569D01*
X118858978Y-92835736D01*
X118848555Y-92783172D01*
X118841730Y-92750224D01*
X118839801Y-92742143D01*
X118835038Y-92733795D01*
X118824282Y-92727494D01*
X118803902Y-92722955D01*
X118770266Y-92719896D01*
X118719745Y-92718033D01*
X118648708Y-92717082D01*
X118553524Y-92716760D01*
X118514508Y-92716743D01*
X118197201Y-92716743D01*
X118182161Y-92792943D01*
X118174005Y-92835337D01*
X118162101Y-92898600D01*
X118147884Y-92975038D01*
X118132790Y-93056957D01*
X118128645Y-93079600D01*
X118113947Y-93155194D01*
X118099495Y-93221047D01*
X118086625Y-93271634D01*
X118076678Y-93301426D01*
X118073713Y-93306388D01*
X118052717Y-93318574D01*
X118012033Y-93336047D01*
X117959678Y-93355423D01*
X117948400Y-93359266D01*
X117878477Y-93384661D01*
X117799582Y-93416183D01*
X117728734Y-93447031D01*
X117728405Y-93447183D01*
X117617267Y-93498553D01*
X117368747Y-93329601D01*
X117120228Y-93160648D01*
X116902942Y-93377571D01*
X116838274Y-93443181D01*
X116781267Y-93503021D01*
X116734967Y-93553733D01*
X116702416Y-93591954D01*
X116686657Y-93614325D01*
X116685657Y-93617534D01*
X116693531Y-93636374D01*
X116715422Y-93674820D01*
X116748733Y-93728670D01*
X116790869Y-93793724D01*
X116838057Y-93864060D01*
X116886190Y-93935445D01*
X116928072Y-93999092D01*
X116961129Y-94050959D01*
X116982782Y-94087005D01*
X116990457Y-94103133D01*
X116983963Y-94122811D01*
X116966850Y-94160125D01*
X116942674Y-94207379D01*
X116939987Y-94212388D01*
X116908073Y-94276023D01*
X116892421Y-94319659D01*
X116892255Y-94346798D01*
X116906796Y-94360943D01*
X116907000Y-94361025D01*
X116924221Y-94368095D01*
X116965101Y-94384958D01*
X117026475Y-94410305D01*
X117105181Y-94442829D01*
X117198053Y-94481222D01*
X117301928Y-94524178D01*
X117402498Y-94565778D01*
X117513484Y-94611496D01*
X117616297Y-94653474D01*
X117707785Y-94690452D01*
X117784799Y-94721173D01*
X117844185Y-94744378D01*
X117882791Y-94758810D01*
X117897200Y-94763257D01*
X117913728Y-94752104D01*
X117940070Y-94722931D01*
X117969113Y-94684029D01*
X118060961Y-94573243D01*
X118166241Y-94486649D01*
X118282734Y-94425284D01*
X118408224Y-94390185D01*
X118540493Y-94382392D01*
X118601543Y-94388057D01*
X118728205Y-94418922D01*
X118840059Y-94472080D01*
X118935999Y-94544233D01*
X119014924Y-94632083D01*
X119075730Y-94732335D01*
X119117313Y-94841690D01*
X119138572Y-94956853D01*
X119138401Y-95074525D01*
X119115699Y-95191410D01*
X119069362Y-95304211D01*
X118998287Y-95409631D01*
X118958089Y-95453632D01*
X118854871Y-95538021D01*
X118742075Y-95596778D01*
X118622990Y-95630296D01*
X118500905Y-95638965D01*
X118379107Y-95623177D01*
X118260884Y-95583322D01*
X118149525Y-95519793D01*
X118048316Y-95432979D01*
X117969113Y-95335971D01*
X117938838Y-95295563D01*
X117912781Y-95267018D01*
X117897175Y-95256743D01*
X117880157Y-95262123D01*
X117839500Y-95277425D01*
X117778358Y-95301388D01*
X117699881Y-95332756D01*
X117607220Y-95370268D01*
X117503528Y-95412667D01*
X117402474Y-95454337D01*
X117291393Y-95500310D01*
X117188459Y-95542893D01*
X117096835Y-95580779D01*
X117019684Y-95612660D01*
X116960169Y-95637229D01*
X116921456Y-95653180D01*
X116907000Y-95659090D01*
X116892315Y-95673052D01*
X116892358Y-95700060D01*
X116907901Y-95743587D01*
X116939716Y-95807110D01*
X116939987Y-95807612D01*
X116964677Y-95855440D01*
X116982662Y-95894103D01*
X116990386Y-95915905D01*
X116990457Y-95916867D01*
X116982622Y-95933279D01*
X116960835Y-95969513D01*
X116927672Y-96021526D01*
X116885709Y-96085275D01*
X116838057Y-96155940D01*
X116789809Y-96227884D01*
X116747849Y-96292726D01*
X116714773Y-96346265D01*
X116693179Y-96384303D01*
X116685657Y-96402467D01*
X116695543Y-96419192D01*
X116723174Y-96452820D01*
X116765505Y-96499990D01*
X116819495Y-96557342D01*
X116882101Y-96621516D01*
X116903017Y-96642503D01*
X117120377Y-96859501D01*
X117362780Y-96694332D01*
X117437219Y-96644136D01*
X117504028Y-96600081D01*
X117559335Y-96564638D01*
X117599271Y-96540281D01*
X117619964Y-96529478D01*
X117621437Y-96529162D01*
X117640942Y-96534857D01*
X117680178Y-96550174D01*
X117732570Y-96572463D01*
X117767645Y-96588107D01*
X117834799Y-96617359D01*
X117902642Y-96644906D01*
X117959966Y-96666263D01*
X117977428Y-96672065D01*
X118024062Y-96688548D01*
X118060095Y-96704660D01*
X118073713Y-96713510D01*
X118082048Y-96733040D01*
X118093863Y-96775666D01*
X118107819Y-96835855D01*
X118122578Y-96908078D01*
X118128645Y-96940400D01*
X118143727Y-97022478D01*
X118158331Y-97101205D01*
X118171020Y-97168891D01*
X118180358Y-97217840D01*
X118182161Y-97227057D01*
X118197201Y-97303257D01*
X118514508Y-97303257D01*
X118618846Y-97303086D01*
X118697787Y-97302384D01*
X118754962Y-97300866D01*
X118794001Y-97298251D01*
X118818535Y-97294254D01*
X118832195Y-97288591D01*
X118838611Y-97280980D01*
X118839801Y-97277857D01*
X118844020Y-97259022D01*
X118852438Y-97217412D01*
X118864039Y-97158370D01*
X118877805Y-97087243D01*
X118892720Y-97009375D01*
X118907768Y-96930113D01*
X118921931Y-96854802D01*
X118934194Y-96788787D01*
X118943539Y-96737413D01*
X118948950Y-96706025D01*
X118949886Y-96699041D01*
X118962404Y-96692715D01*
X118995754Y-96678710D01*
X119043623Y-96659645D01*
X119062371Y-96652366D01*
X119134805Y-96623004D01*
X119214830Y-96588429D01*
X119282272Y-96557463D01*
X119333841Y-96534677D01*
X119376215Y-96519518D01*
X119402166Y-96514458D01*
X119405644Y-96515264D01*
X119422064Y-96525959D01*
X119458583Y-96550380D01*
X119511313Y-96585905D01*
X119576365Y-96629913D01*
X119649849Y-96679783D01*
X119664355Y-96689644D01*
X119750296Y-96747508D01*
X119815739Y-96790044D01*
X119863696Y-96818946D01*
X119897180Y-96835910D01*
X119919205Y-96842633D01*
X119932783Y-96840810D01*
X119932869Y-96840764D01*
X119950703Y-96826414D01*
X119985183Y-96794677D01*
X120032732Y-96748990D01*
X120089778Y-96692796D01*
X120152745Y-96629532D01*
X120159773Y-96622398D01*
X120236980Y-96542670D01*
X120293670Y-96481143D01*
X120330890Y-96436579D01*
X120349685Y-96407743D01*
X120352111Y-96395042D01*
X120341529Y-96376506D01*
X120317084Y-96338039D01*
X120281388Y-96283614D01*
X120237053Y-96217202D01*
X120186689Y-96142775D01*
X120174840Y-96125399D01*
X120006374Y-95878703D01*
X120056938Y-95767294D01*
X120086405Y-95699543D01*
X120116041Y-95626817D01*
X120139670Y-95564297D01*
X120140642Y-95561543D01*
X120158543Y-95512640D01*
X120173680Y-95474943D01*
X120182790Y-95456575D01*
X120182816Y-95456544D01*
X120199283Y-95450715D01*
X120239781Y-95440808D01*
X120299758Y-95427805D01*
X120374660Y-95412691D01*
X120459936Y-95396448D01*
X120467125Y-95395119D01*
X120554986Y-95378825D01*
X120634740Y-95363867D01*
X120701319Y-95351209D01*
X120749653Y-95341814D01*
X120774675Y-95336646D01*
X120775057Y-95336556D01*
X120785701Y-95333411D01*
X120793738Y-95327296D01*
X120799533Y-95314547D01*
X120803453Y-95291500D01*
X120805865Y-95254491D01*
X120807135Y-95199856D01*
X120807629Y-95123933D01*
X120807714Y-95023056D01*
X120807714Y-95010000D01*
X120807652Y-94906090D01*
G37*
X120807652Y-94906090D02*
X120807222Y-94827546D01*
X120806058Y-94770702D01*
X120803793Y-94731895D01*
X120800060Y-94707462D01*
X120794494Y-94693738D01*
X120786727Y-94687060D01*
X120776395Y-94683764D01*
X120775057Y-94683444D01*
X120750921Y-94678438D01*
X120703299Y-94669171D01*
X120637259Y-94656608D01*
X120557872Y-94641713D01*
X120470204Y-94625449D01*
X120467125Y-94624881D01*
X120381211Y-94608590D01*
X120305304Y-94593348D01*
X120243955Y-94580139D01*
X120201718Y-94569946D01*
X120183145Y-94563752D01*
X120182816Y-94563457D01*
X120173747Y-94545212D01*
X120158633Y-94507595D01*
X120140738Y-94458729D01*
X120140642Y-94458457D01*
X120117507Y-94396907D01*
X120088035Y-94324343D01*
X120058403Y-94255943D01*
X120056938Y-94252706D01*
X120006374Y-94141298D01*
X120174840Y-93894601D01*
X120226197Y-93818923D01*
X120272111Y-93750369D01*
X120309970Y-93692912D01*
X120337163Y-93650524D01*
X120351079Y-93627175D01*
X120352111Y-93624958D01*
X120347516Y-93607990D01*
X120325345Y-93576299D01*
X120284553Y-93528648D01*
X120224095Y-93463802D01*
X120159773Y-93397603D01*
X120096388Y-93333786D01*
X120038549Y-93276671D01*
X119989825Y-93229695D01*
X119953790Y-93196297D01*
X119934016Y-93179915D01*
X119932998Y-93179306D01*
X119919428Y-93177495D01*
X119897267Y-93184317D01*
X119863522Y-93201460D01*
X119815200Y-93230607D01*
X119749308Y-93273445D01*
X119664483Y-93330552D01*
X119589823Y-93381234D01*
X119522860Y-93426539D01*
X119467484Y-93463850D01*
X119427580Y-93490548D01*
X119407038Y-93504015D01*
X119405644Y-93504863D01*
X119385962Y-93503219D01*
X119347707Y-93490755D01*
X119298111Y-93469952D01*
X119282272Y-93462538D01*
X119211710Y-93430186D01*
X119131647Y-93395672D01*
X119062371Y-93367635D01*
X119010955Y-93347432D01*
X118971881Y-93331385D01*
X118951459Y-93322112D01*
X118949886Y-93320959D01*
X118947279Y-93303904D01*
X118940137Y-93263702D01*
X118929477Y-93205698D01*
X118916315Y-93135237D01*
X118901667Y-93057665D01*
X118886551Y-92978328D01*
X118871982Y-92902569D01*
X118858978Y-92835736D01*
X118848555Y-92783172D01*
X118841730Y-92750224D01*
X118839801Y-92742143D01*
X118835038Y-92733795D01*
X118824282Y-92727494D01*
X118803902Y-92722955D01*
X118770266Y-92719896D01*
X118719745Y-92718033D01*
X118648708Y-92717082D01*
X118553524Y-92716760D01*
X118514508Y-92716743D01*
X118197201Y-92716743D01*
X118182161Y-92792943D01*
X118174005Y-92835337D01*
X118162101Y-92898600D01*
X118147884Y-92975038D01*
X118132790Y-93056957D01*
X118128645Y-93079600D01*
X118113947Y-93155194D01*
X118099495Y-93221047D01*
X118086625Y-93271634D01*
X118076678Y-93301426D01*
X118073713Y-93306388D01*
X118052717Y-93318574D01*
X118012033Y-93336047D01*
X117959678Y-93355423D01*
X117948400Y-93359266D01*
X117878477Y-93384661D01*
X117799582Y-93416183D01*
X117728734Y-93447031D01*
X117728405Y-93447183D01*
X117617267Y-93498553D01*
X117368747Y-93329601D01*
X117120228Y-93160648D01*
X116902942Y-93377571D01*
X116838274Y-93443181D01*
X116781267Y-93503021D01*
X116734967Y-93553733D01*
X116702416Y-93591954D01*
X116686657Y-93614325D01*
X116685657Y-93617534D01*
X116693531Y-93636374D01*
X116715422Y-93674820D01*
X116748733Y-93728670D01*
X116790869Y-93793724D01*
X116838057Y-93864060D01*
X116886190Y-93935445D01*
X116928072Y-93999092D01*
X116961129Y-94050959D01*
X116982782Y-94087005D01*
X116990457Y-94103133D01*
X116983963Y-94122811D01*
X116966850Y-94160125D01*
X116942674Y-94207379D01*
X116939987Y-94212388D01*
X116908073Y-94276023D01*
X116892421Y-94319659D01*
X116892255Y-94346798D01*
X116906796Y-94360943D01*
X116907000Y-94361025D01*
X116924221Y-94368095D01*
X116965101Y-94384958D01*
X117026475Y-94410305D01*
X117105181Y-94442829D01*
X117198053Y-94481222D01*
X117301928Y-94524178D01*
X117402498Y-94565778D01*
X117513484Y-94611496D01*
X117616297Y-94653474D01*
X117707785Y-94690452D01*
X117784799Y-94721173D01*
X117844185Y-94744378D01*
X117882791Y-94758810D01*
X117897200Y-94763257D01*
X117913728Y-94752104D01*
X117940070Y-94722931D01*
X117969113Y-94684029D01*
X118060961Y-94573243D01*
X118166241Y-94486649D01*
X118282734Y-94425284D01*
X118408224Y-94390185D01*
X118540493Y-94382392D01*
X118601543Y-94388057D01*
X118728205Y-94418922D01*
X118840059Y-94472080D01*
X118935999Y-94544233D01*
X119014924Y-94632083D01*
X119075730Y-94732335D01*
X119117313Y-94841690D01*
X119138572Y-94956853D01*
X119138401Y-95074525D01*
X119115699Y-95191410D01*
X119069362Y-95304211D01*
X118998287Y-95409631D01*
X118958089Y-95453632D01*
X118854871Y-95538021D01*
X118742075Y-95596778D01*
X118622990Y-95630296D01*
X118500905Y-95638965D01*
X118379107Y-95623177D01*
X118260884Y-95583322D01*
X118149525Y-95519793D01*
X118048316Y-95432979D01*
X117969113Y-95335971D01*
X117938838Y-95295563D01*
X117912781Y-95267018D01*
X117897175Y-95256743D01*
X117880157Y-95262123D01*
X117839500Y-95277425D01*
X117778358Y-95301388D01*
X117699881Y-95332756D01*
X117607220Y-95370268D01*
X117503528Y-95412667D01*
X117402474Y-95454337D01*
X117291393Y-95500310D01*
X117188459Y-95542893D01*
X117096835Y-95580779D01*
X117019684Y-95612660D01*
X116960169Y-95637229D01*
X116921456Y-95653180D01*
X116907000Y-95659090D01*
X116892315Y-95673052D01*
X116892358Y-95700060D01*
X116907901Y-95743587D01*
X116939716Y-95807110D01*
X116939987Y-95807612D01*
X116964677Y-95855440D01*
X116982662Y-95894103D01*
X116990386Y-95915905D01*
X116990457Y-95916867D01*
X116982622Y-95933279D01*
X116960835Y-95969513D01*
X116927672Y-96021526D01*
X116885709Y-96085275D01*
X116838057Y-96155940D01*
X116789809Y-96227884D01*
X116747849Y-96292726D01*
X116714773Y-96346265D01*
X116693179Y-96384303D01*
X116685657Y-96402467D01*
X116695543Y-96419192D01*
X116723174Y-96452820D01*
X116765505Y-96499990D01*
X116819495Y-96557342D01*
X116882101Y-96621516D01*
X116903017Y-96642503D01*
X117120377Y-96859501D01*
X117362780Y-96694332D01*
X117437219Y-96644136D01*
X117504028Y-96600081D01*
X117559335Y-96564638D01*
X117599271Y-96540281D01*
X117619964Y-96529478D01*
X117621437Y-96529162D01*
X117640942Y-96534857D01*
X117680178Y-96550174D01*
X117732570Y-96572463D01*
X117767645Y-96588107D01*
X117834799Y-96617359D01*
X117902642Y-96644906D01*
X117959966Y-96666263D01*
X117977428Y-96672065D01*
X118024062Y-96688548D01*
X118060095Y-96704660D01*
X118073713Y-96713510D01*
X118082048Y-96733040D01*
X118093863Y-96775666D01*
X118107819Y-96835855D01*
X118122578Y-96908078D01*
X118128645Y-96940400D01*
X118143727Y-97022478D01*
X118158331Y-97101205D01*
X118171020Y-97168891D01*
X118180358Y-97217840D01*
X118182161Y-97227057D01*
X118197201Y-97303257D01*
X118514508Y-97303257D01*
X118618846Y-97303086D01*
X118697787Y-97302384D01*
X118754962Y-97300866D01*
X118794001Y-97298251D01*
X118818535Y-97294254D01*
X118832195Y-97288591D01*
X118838611Y-97280980D01*
X118839801Y-97277857D01*
X118844020Y-97259022D01*
X118852438Y-97217412D01*
X118864039Y-97158370D01*
X118877805Y-97087243D01*
X118892720Y-97009375D01*
X118907768Y-96930113D01*
X118921931Y-96854802D01*
X118934194Y-96788787D01*
X118943539Y-96737413D01*
X118948950Y-96706025D01*
X118949886Y-96699041D01*
X118962404Y-96692715D01*
X118995754Y-96678710D01*
X119043623Y-96659645D01*
X119062371Y-96652366D01*
X119134805Y-96623004D01*
X119214830Y-96588429D01*
X119282272Y-96557463D01*
X119333841Y-96534677D01*
X119376215Y-96519518D01*
X119402166Y-96514458D01*
X119405644Y-96515264D01*
X119422064Y-96525959D01*
X119458583Y-96550380D01*
X119511313Y-96585905D01*
X119576365Y-96629913D01*
X119649849Y-96679783D01*
X119664355Y-96689644D01*
X119750296Y-96747508D01*
X119815739Y-96790044D01*
X119863696Y-96818946D01*
X119897180Y-96835910D01*
X119919205Y-96842633D01*
X119932783Y-96840810D01*
X119932869Y-96840764D01*
X119950703Y-96826414D01*
X119985183Y-96794677D01*
X120032732Y-96748990D01*
X120089778Y-96692796D01*
X120152745Y-96629532D01*
X120159773Y-96622398D01*
X120236980Y-96542670D01*
X120293670Y-96481143D01*
X120330890Y-96436579D01*
X120349685Y-96407743D01*
X120352111Y-96395042D01*
X120341529Y-96376506D01*
X120317084Y-96338039D01*
X120281388Y-96283614D01*
X120237053Y-96217202D01*
X120186689Y-96142775D01*
X120174840Y-96125399D01*
X120006374Y-95878703D01*
X120056938Y-95767294D01*
X120086405Y-95699543D01*
X120116041Y-95626817D01*
X120139670Y-95564297D01*
X120140642Y-95561543D01*
X120158543Y-95512640D01*
X120173680Y-95474943D01*
X120182790Y-95456575D01*
X120182816Y-95456544D01*
X120199283Y-95450715D01*
X120239781Y-95440808D01*
X120299758Y-95427805D01*
X120374660Y-95412691D01*
X120459936Y-95396448D01*
X120467125Y-95395119D01*
X120554986Y-95378825D01*
X120634740Y-95363867D01*
X120701319Y-95351209D01*
X120749653Y-95341814D01*
X120774675Y-95336646D01*
X120775057Y-95336556D01*
X120785701Y-95333411D01*
X120793738Y-95327296D01*
X120799533Y-95314547D01*
X120803453Y-95291500D01*
X120805865Y-95254491D01*
X120807135Y-95199856D01*
X120807629Y-95123933D01*
X120807714Y-95023056D01*
X120807714Y-95010000D01*
X120807652Y-94906090D01*
G36*
X116083034Y-91856405D02*
G01*
X116045503Y-91798979D01*
X116011904Y-91771281D01*
X115950936Y-91749338D01*
X115902692Y-91747595D01*
X115838184Y-91751543D01*
X115773066Y-91900314D01*
X115739798Y-91972651D01*
X115713036Y-92019916D01*
X115689856Y-92044493D01*
X115667333Y-92048763D01*
X115642545Y-92035111D01*
X115626114Y-92020057D01*
X115599765Y-91976254D01*
X115597919Y-91928611D01*
X115618454Y-91884855D01*
X115659248Y-91852711D01*
X115673653Y-91846962D01*
X115718644Y-91819424D01*
X115737818Y-91787742D01*
X115754221Y-91744286D01*
X115692034Y-91744286D01*
X115649717Y-91748128D01*
X115614031Y-91763177D01*
X115573057Y-91794720D01*
X115567733Y-91799408D01*
X115531280Y-91834494D01*
X115511717Y-91864653D01*
X115502717Y-91902385D01*
X115499770Y-91933665D01*
X115499035Y-91989615D01*
X115508340Y-92029445D01*
X115522154Y-92054292D01*
X115552533Y-92093344D01*
X115585387Y-92120375D01*
X115626706Y-92137483D01*
X115682479Y-92146762D01*
X115758695Y-92150307D01*
X115797378Y-92150590D01*
X115843753Y-92149628D01*
X115843753Y-92061993D01*
X115818874Y-92060977D01*
X115814800Y-92058444D01*
X115820335Y-92041726D01*
X115834983Y-92005751D01*
X115855810Y-91957669D01*
X115860286Y-91947614D01*
X115891186Y-91886848D01*
X115918343Y-91853368D01*
X115943780Y-91846010D01*
X115969519Y-91863609D01*
X115980891Y-91878144D01*
X116003636Y-91930590D01*
X115999878Y-91979678D01*
X115972116Y-92020773D01*
X115922848Y-92049242D01*
X115883743Y-92058369D01*
X115843753Y-92061993D01*
X115843753Y-92149628D01*
X115887751Y-92148715D01*
X115954616Y-92141804D01*
X116003305Y-92128116D01*
X116039151Y-92105904D01*
X116067487Y-92073426D01*
X116076645Y-92059267D01*
X116100493Y-91994947D01*
X116101994Y-91924527D01*
X116083034Y-91856405D01*
G37*
X116083034Y-91856405D02*
X116045503Y-91798979D01*
X116011904Y-91771281D01*
X115950936Y-91749338D01*
X115902692Y-91747595D01*
X115838184Y-91751543D01*
X115773066Y-91900314D01*
X115739798Y-91972651D01*
X115713036Y-92019916D01*
X115689856Y-92044493D01*
X115667333Y-92048763D01*
X115642545Y-92035111D01*
X115626114Y-92020057D01*
X115599765Y-91976254D01*
X115597919Y-91928611D01*
X115618454Y-91884855D01*
X115659248Y-91852711D01*
X115673653Y-91846962D01*
X115718644Y-91819424D01*
X115737818Y-91787742D01*
X115754221Y-91744286D01*
X115692034Y-91744286D01*
X115649717Y-91748128D01*
X115614031Y-91763177D01*
X115573057Y-91794720D01*
X115567733Y-91799408D01*
X115531280Y-91834494D01*
X115511717Y-91864653D01*
X115502717Y-91902385D01*
X115499770Y-91933665D01*
X115499035Y-91989615D01*
X115508340Y-92029445D01*
X115522154Y-92054292D01*
X115552533Y-92093344D01*
X115585387Y-92120375D01*
X115626706Y-92137483D01*
X115682479Y-92146762D01*
X115758695Y-92150307D01*
X115797378Y-92150590D01*
X115843753Y-92149628D01*
X115843753Y-92061993D01*
X115818874Y-92060977D01*
X115814800Y-92058444D01*
X115820335Y-92041726D01*
X115834983Y-92005751D01*
X115855810Y-91957669D01*
X115860286Y-91947614D01*
X115891186Y-91886848D01*
X115918343Y-91853368D01*
X115943780Y-91846010D01*
X115969519Y-91863609D01*
X115980891Y-91878144D01*
X116003636Y-91930590D01*
X115999878Y-91979678D01*
X115972116Y-92020773D01*
X115922848Y-92049242D01*
X115883743Y-92058369D01*
X115843753Y-92061993D01*
X115843753Y-92149628D01*
X115887751Y-92148715D01*
X115954616Y-92141804D01*
X116003305Y-92128116D01*
X116039151Y-92105904D01*
X116067487Y-92073426D01*
X116076645Y-92059267D01*
X116100493Y-91994947D01*
X116101994Y-91924527D01*
X116083034Y-91856405D01*
G36*
X116091248Y-92357400D02*
G01*
X116083666Y-92340052D01*
X116050872Y-92298644D01*
X116003453Y-92263235D01*
X115952849Y-92241336D01*
X115927902Y-92237771D01*
X115893073Y-92249721D01*
X115874643Y-92275933D01*
X115863484Y-92304036D01*
X115861428Y-92316905D01*
X115876351Y-92323171D01*
X115908825Y-92335544D01*
X115923498Y-92340972D01*
X115974256Y-92371410D01*
X115999573Y-92415480D01*
X115998794Y-92471990D01*
X115997797Y-92476175D01*
X115983493Y-92506345D01*
X115955607Y-92528524D01*
X115910713Y-92543673D01*
X115845385Y-92552750D01*
X115756196Y-92556714D01*
X115708739Y-92557086D01*
X115633929Y-92557270D01*
X115582931Y-92558478D01*
X115550529Y-92561691D01*
X115531505Y-92567891D01*
X115520644Y-92578060D01*
X115512728Y-92593181D01*
X115512330Y-92594054D01*
X115500019Y-92623172D01*
X115495486Y-92637597D01*
X115509191Y-92639814D01*
X115547075Y-92641711D01*
X115604285Y-92643153D01*
X115675973Y-92644002D01*
X115728435Y-92644171D01*
X115829953Y-92643308D01*
X115906968Y-92639930D01*
X115963977Y-92632858D01*
X116005474Y-92620912D01*
X116035957Y-92602910D01*
X116059920Y-92577673D01*
X116076645Y-92552753D01*
X116098903Y-92492829D01*
X116103924Y-92423089D01*
X116091248Y-92357400D01*
G37*
X116091248Y-92357400D02*
X116083666Y-92340052D01*
X116050872Y-92298644D01*
X116003453Y-92263235D01*
X115952849Y-92241336D01*
X115927902Y-92237771D01*
X115893073Y-92249721D01*
X115874643Y-92275933D01*
X115863484Y-92304036D01*
X115861428Y-92316905D01*
X115876351Y-92323171D01*
X115908825Y-92335544D01*
X115923498Y-92340972D01*
X115974256Y-92371410D01*
X115999573Y-92415480D01*
X115998794Y-92471990D01*
X115997797Y-92476175D01*
X115983493Y-92506345D01*
X115955607Y-92528524D01*
X115910713Y-92543673D01*
X115845385Y-92552750D01*
X115756196Y-92556714D01*
X115708739Y-92557086D01*
X115633929Y-92557270D01*
X115582931Y-92558478D01*
X115550529Y-92561691D01*
X115531505Y-92567891D01*
X115520644Y-92578060D01*
X115512728Y-92593181D01*
X115512330Y-92594054D01*
X115500019Y-92623172D01*
X115495486Y-92637597D01*
X115509191Y-92639814D01*
X115547075Y-92641711D01*
X115604285Y-92643153D01*
X115675973Y-92644002D01*
X115728435Y-92644171D01*
X115829953Y-92643308D01*
X115906968Y-92639930D01*
X115963977Y-92632858D01*
X116005474Y-92620912D01*
X116035957Y-92602910D01*
X116059920Y-92577673D01*
X116076645Y-92552753D01*
X116098903Y-92492829D01*
X116103924Y-92423089D01*
X116091248Y-92357400D01*
G36*
X116093665Y-92865124D02*
G01*
X116074656Y-92823333D01*
X116051622Y-92790531D01*
X116025867Y-92766497D01*
X115992642Y-92749903D01*
X115947200Y-92739423D01*
X115884793Y-92733729D01*
X115800673Y-92731493D01*
X115745279Y-92731257D01*
X115529174Y-92731257D01*
X115512330Y-92768226D01*
X115500019Y-92797344D01*
X115495486Y-92811769D01*
X115508975Y-92814528D01*
X115545347Y-92816718D01*
X115598458Y-92818058D01*
X115640628Y-92818343D01*
X115701553Y-92819566D01*
X115749885Y-92822864D01*
X115779482Y-92827679D01*
X115785771Y-92831504D01*
X115779348Y-92857217D01*
X115762875Y-92897582D01*
X115740542Y-92944321D01*
X115716543Y-92989155D01*
X115695070Y-93023807D01*
X115680315Y-93039998D01*
X115680155Y-93040062D01*
X115652848Y-93038670D01*
X115626781Y-93026182D01*
X115605608Y-93004257D01*
X115598526Y-92972257D01*
X115599351Y-92944908D01*
X115599958Y-92906174D01*
X115590884Y-92885842D01*
X115566908Y-92873631D01*
X115562387Y-92872091D01*
X115528194Y-92866797D01*
X115507432Y-92880953D01*
X115497538Y-92917852D01*
X115495708Y-92957711D01*
X115509273Y-93029438D01*
X115528645Y-93066568D01*
X115574155Y-93112424D01*
X115630017Y-93136744D01*
X115689043Y-93138927D01*
X115744047Y-93118371D01*
X115778514Y-93087451D01*
X115797811Y-93056580D01*
X115822241Y-93008058D01*
X115847015Y-92951515D01*
X115850801Y-92942090D01*
X115878209Y-92879981D01*
X115902366Y-92844178D01*
X115926381Y-92832663D01*
X115953365Y-92843420D01*
X115974457Y-92861886D01*
X116000428Y-92905531D01*
X116002376Y-92953554D01*
X115982363Y-92997594D01*
X115942449Y-93029291D01*
X115932152Y-93033451D01*
X115894276Y-93057673D01*
X115866158Y-93093035D01*
X115843083Y-93137657D01*
X115908515Y-93137657D01*
X115948494Y-93135031D01*
X115980003Y-93123770D01*
X116013622Y-93098801D01*
X116039516Y-93074831D01*
X116076183Y-93037559D01*
X116095879Y-93008599D01*
X116103780Y-92977495D01*
X116105086Y-92942287D01*
X116093665Y-92865124D01*
G37*
X116093665Y-92865124D02*
X116074656Y-92823333D01*
X116051622Y-92790531D01*
X116025867Y-92766497D01*
X115992642Y-92749903D01*
X115947200Y-92739423D01*
X115884793Y-92733729D01*
X115800673Y-92731493D01*
X115745279Y-92731257D01*
X115529174Y-92731257D01*
X115512330Y-92768226D01*
X115500019Y-92797344D01*
X115495486Y-92811769D01*
X115508975Y-92814528D01*
X115545347Y-92816718D01*
X115598458Y-92818058D01*
X115640628Y-92818343D01*
X115701553Y-92819566D01*
X115749885Y-92822864D01*
X115779482Y-92827679D01*
X115785771Y-92831504D01*
X115779348Y-92857217D01*
X115762875Y-92897582D01*
X115740542Y-92944321D01*
X115716543Y-92989155D01*
X115695070Y-93023807D01*
X115680315Y-93039998D01*
X115680155Y-93040062D01*
X115652848Y-93038670D01*
X115626781Y-93026182D01*
X115605608Y-93004257D01*
X115598526Y-92972257D01*
X115599351Y-92944908D01*
X115599958Y-92906174D01*
X115590884Y-92885842D01*
X115566908Y-92873631D01*
X115562387Y-92872091D01*
X115528194Y-92866797D01*
X115507432Y-92880953D01*
X115497538Y-92917852D01*
X115495708Y-92957711D01*
X115509273Y-93029438D01*
X115528645Y-93066568D01*
X115574155Y-93112424D01*
X115630017Y-93136744D01*
X115689043Y-93138927D01*
X115744047Y-93118371D01*
X115778514Y-93087451D01*
X115797811Y-93056580D01*
X115822241Y-93008058D01*
X115847015Y-92951515D01*
X115850801Y-92942090D01*
X115878209Y-92879981D01*
X115902366Y-92844178D01*
X115926381Y-92832663D01*
X115953365Y-92843420D01*
X115974457Y-92861886D01*
X116000428Y-92905531D01*
X116002376Y-92953554D01*
X115982363Y-92997594D01*
X115942449Y-93029291D01*
X115932152Y-93033451D01*
X115894276Y-93057673D01*
X115866158Y-93093035D01*
X115843083Y-93137657D01*
X115908515Y-93137657D01*
X115948494Y-93135031D01*
X115980003Y-93123770D01*
X116013622Y-93098801D01*
X116039516Y-93074831D01*
X116076183Y-93037559D01*
X116095879Y-93008599D01*
X116103780Y-92977495D01*
X116105086Y-92942287D01*
X116093665Y-92865124D01*
G36*
X116091337Y-93230167D02*
G01*
X116053150Y-93227952D01*
X115995114Y-93226216D01*
X115921820Y-93225101D01*
X115844945Y-93224743D01*
X115584804Y-93224743D01*
X115538873Y-93270674D01*
X115510571Y-93302325D01*
X115499107Y-93330110D01*
X115499832Y-93368085D01*
X115501679Y-93383160D01*
X115507052Y-93430274D01*
X115510131Y-93469244D01*
X115510415Y-93478743D01*
X115508555Y-93510767D01*
X115503886Y-93556568D01*
X115501679Y-93574326D01*
X115498265Y-93617943D01*
X115505680Y-93647255D01*
X115528573Y-93676320D01*
X115538873Y-93686812D01*
X115584804Y-93732743D01*
X116071398Y-93732743D01*
X116088242Y-93695774D01*
X116100718Y-93663941D01*
X116105086Y-93645317D01*
X116091282Y-93640542D01*
X116052714Y-93636079D01*
X115993644Y-93632225D01*
X115918337Y-93629278D01*
X115854714Y-93627857D01*
X115604343Y-93623886D01*
X115599444Y-93589241D01*
X115602869Y-93557732D01*
X115613959Y-93542292D01*
X115634692Y-93537977D01*
X115678855Y-93534292D01*
X115740854Y-93531531D01*
X115815091Y-93529988D01*
X115853294Y-93529765D01*
X116073217Y-93529543D01*
X116089151Y-93483834D01*
X116099985Y-93451482D01*
X116105038Y-93433885D01*
X116105086Y-93433377D01*
X116091352Y-93431612D01*
X116053270Y-93429671D01*
X115995518Y-93427718D01*
X115922773Y-93425916D01*
X115854714Y-93424657D01*
X115604343Y-93420686D01*
X115604343Y-93333600D01*
X115832760Y-93329604D01*
X116061178Y-93325608D01*
X116083132Y-93283153D01*
X116098207Y-93251808D01*
X116105049Y-93233256D01*
X116105086Y-93232721D01*
X116091337Y-93230167D01*
G37*
X116091337Y-93230167D02*
X116053150Y-93227952D01*
X115995114Y-93226216D01*
X115921820Y-93225101D01*
X115844945Y-93224743D01*
X115584804Y-93224743D01*
X115538873Y-93270674D01*
X115510571Y-93302325D01*
X115499107Y-93330110D01*
X115499832Y-93368085D01*
X115501679Y-93383160D01*
X115507052Y-93430274D01*
X115510131Y-93469244D01*
X115510415Y-93478743D01*
X115508555Y-93510767D01*
X115503886Y-93556568D01*
X115501679Y-93574326D01*
X115498265Y-93617943D01*
X115505680Y-93647255D01*
X115528573Y-93676320D01*
X115538873Y-93686812D01*
X115584804Y-93732743D01*
X116071398Y-93732743D01*
X116088242Y-93695774D01*
X116100718Y-93663941D01*
X116105086Y-93645317D01*
X116091282Y-93640542D01*
X116052714Y-93636079D01*
X115993644Y-93632225D01*
X115918337Y-93629278D01*
X115854714Y-93627857D01*
X115604343Y-93623886D01*
X115599444Y-93589241D01*
X115602869Y-93557732D01*
X115613959Y-93542292D01*
X115634692Y-93537977D01*
X115678855Y-93534292D01*
X115740854Y-93531531D01*
X115815091Y-93529988D01*
X115853294Y-93529765D01*
X116073217Y-93529543D01*
X116089151Y-93483834D01*
X116099985Y-93451482D01*
X116105038Y-93433885D01*
X116105086Y-93433377D01*
X116091352Y-93431612D01*
X116053270Y-93429671D01*
X115995518Y-93427718D01*
X115922773Y-93425916D01*
X115854714Y-93424657D01*
X115604343Y-93420686D01*
X115604343Y-93333600D01*
X115832760Y-93329604D01*
X116061178Y-93325608D01*
X116083132Y-93283153D01*
X116098207Y-93251808D01*
X116105049Y-93233256D01*
X116105086Y-93232721D01*
X116091337Y-93230167D01*
G36*
X115984642Y-93819883D02*
G01*
X115876163Y-93820067D01*
X115792713Y-93820781D01*
X115730296Y-93822325D01*
X115684915Y-93824999D01*
X115652571Y-93829106D01*
X115629267Y-93834945D01*
X115611005Y-93842818D01*
X115600582Y-93848779D01*
X115544055Y-93898145D01*
X115508623Y-93960736D01*
X115495910Y-94029987D01*
X115507537Y-94099332D01*
X115528432Y-94140625D01*
X115564578Y-94183975D01*
X115608724Y-94213519D01*
X115666538Y-94231345D01*
X115743687Y-94239537D01*
X115800286Y-94240698D01*
X115804353Y-94240542D01*
X115804353Y-94139143D01*
X115739450Y-94138524D01*
X115696486Y-94135686D01*
X115668378Y-94129160D01*
X115648047Y-94117477D01*
X115632712Y-94103517D01*
X115603110Y-94056635D01*
X115600581Y-94006299D01*
X115625295Y-93958724D01*
X115628644Y-93955021D01*
X115646065Y-93939217D01*
X115666791Y-93929307D01*
X115697638Y-93923942D01*
X115745423Y-93921772D01*
X115798252Y-93921429D01*
X115864619Y-93922173D01*
X115908894Y-93925252D01*
X115937991Y-93931939D01*
X115958827Y-93943504D01*
X115969893Y-93952987D01*
X115997802Y-93997040D01*
X116001157Y-94047776D01*
X115979841Y-94096204D01*
X115971927Y-94105550D01*
X115954353Y-94121460D01*
X115933413Y-94131390D01*
X115902218Y-94136722D01*
X115853878Y-94138837D01*
X115804353Y-94139143D01*
X115804353Y-94240542D01*
X115891432Y-94237190D01*
X115959914Y-94225274D01*
X116011400Y-94202865D01*
X116051557Y-94167876D01*
X116072139Y-94140625D01*
X116094375Y-94091093D01*
X116104696Y-94033684D01*
X116101933Y-93980318D01*
X116090788Y-93950457D01*
X116087617Y-93938739D01*
X116099443Y-93930963D01*
X116131134Y-93925535D01*
X116179407Y-93921429D01*
X116233171Y-93916933D01*
X116265518Y-93910687D01*
X116284015Y-93899324D01*
X116296230Y-93879472D01*
X116301638Y-93867000D01*
X116321399Y-93819829D01*
X115984642Y-93819883D01*
G37*
X115984642Y-93819883D02*
X115876163Y-93820067D01*
X115792713Y-93820781D01*
X115730296Y-93822325D01*
X115684915Y-93824999D01*
X115652571Y-93829106D01*
X115629267Y-93834945D01*
X115611005Y-93842818D01*
X115600582Y-93848779D01*
X115544055Y-93898145D01*
X115508623Y-93960736D01*
X115495910Y-94029987D01*
X115507537Y-94099332D01*
X115528432Y-94140625D01*
X115564578Y-94183975D01*
X115608724Y-94213519D01*
X115666538Y-94231345D01*
X115743687Y-94239537D01*
X115800286Y-94240698D01*
X115804353Y-94240542D01*
X115804353Y-94139143D01*
X115739450Y-94138524D01*
X115696486Y-94135686D01*
X115668378Y-94129160D01*
X115648047Y-94117477D01*
X115632712Y-94103517D01*
X115603110Y-94056635D01*
X115600581Y-94006299D01*
X115625295Y-93958724D01*
X115628644Y-93955021D01*
X115646065Y-93939217D01*
X115666791Y-93929307D01*
X115697638Y-93923942D01*
X115745423Y-93921772D01*
X115798252Y-93921429D01*
X115864619Y-93922173D01*
X115908894Y-93925252D01*
X115937991Y-93931939D01*
X115958827Y-93943504D01*
X115969893Y-93952987D01*
X115997802Y-93997040D01*
X116001157Y-94047776D01*
X115979841Y-94096204D01*
X115971927Y-94105550D01*
X115954353Y-94121460D01*
X115933413Y-94131390D01*
X115902218Y-94136722D01*
X115853878Y-94138837D01*
X115804353Y-94139143D01*
X115804353Y-94240542D01*
X115891432Y-94237190D01*
X115959914Y-94225274D01*
X116011400Y-94202865D01*
X116051557Y-94167876D01*
X116072139Y-94140625D01*
X116094375Y-94091093D01*
X116104696Y-94033684D01*
X116101933Y-93980318D01*
X116090788Y-93950457D01*
X116087617Y-93938739D01*
X116099443Y-93930963D01*
X116131134Y-93925535D01*
X116179407Y-93921429D01*
X116233171Y-93916933D01*
X116265518Y-93910687D01*
X116284015Y-93899324D01*
X116296230Y-93879472D01*
X116301638Y-93867000D01*
X116321399Y-93819829D01*
X115984642Y-93819883D01*
G36*
X116100245Y-94480074D02*
G01*
X116075916Y-94414142D01*
X116032883Y-94360727D01*
X116002591Y-94339836D01*
X115947006Y-94317061D01*
X115906814Y-94317534D01*
X115879783Y-94341438D01*
X115875187Y-94350283D01*
X115860856Y-94388470D01*
X115864528Y-94407972D01*
X115888593Y-94414578D01*
X115901886Y-94414914D01*
X115950790Y-94427008D01*
X115985001Y-94458529D01*
X116001524Y-94502341D01*
X115997366Y-94551305D01*
X115975773Y-94591106D01*
X115963456Y-94604550D01*
X115948513Y-94614079D01*
X115925925Y-94620515D01*
X115890672Y-94624683D01*
X115837734Y-94627403D01*
X115762093Y-94629498D01*
X115738143Y-94630040D01*
X115656210Y-94632019D01*
X115598545Y-94634269D01*
X115560392Y-94637643D01*
X115536996Y-94642994D01*
X115523602Y-94651176D01*
X115515455Y-94663041D01*
X115511856Y-94670638D01*
X115499548Y-94702898D01*
X115495486Y-94721889D01*
X115509052Y-94728164D01*
X115550066Y-94731994D01*
X115619001Y-94733400D01*
X115716331Y-94732402D01*
X115731343Y-94732092D01*
X115820141Y-94729899D01*
X115884981Y-94727307D01*
X115930933Y-94723618D01*
X115963065Y-94718136D01*
X115986447Y-94710165D01*
X116006148Y-94699007D01*
X116014590Y-94693170D01*
X116051943Y-94659704D01*
X116080997Y-94622273D01*
X116083533Y-94617691D01*
X116103557Y-94550574D01*
X116100245Y-94480074D01*
G37*
X116100245Y-94480074D02*
X116075916Y-94414142D01*
X116032883Y-94360727D01*
X116002591Y-94339836D01*
X115947006Y-94317061D01*
X115906814Y-94317534D01*
X115879783Y-94341438D01*
X115875187Y-94350283D01*
X115860856Y-94388470D01*
X115864528Y-94407972D01*
X115888593Y-94414578D01*
X115901886Y-94414914D01*
X115950790Y-94427008D01*
X115985001Y-94458529D01*
X116001524Y-94502341D01*
X115997366Y-94551305D01*
X115975773Y-94591106D01*
X115963456Y-94604550D01*
X115948513Y-94614079D01*
X115925925Y-94620515D01*
X115890672Y-94624683D01*
X115837734Y-94627403D01*
X115762093Y-94629498D01*
X115738143Y-94630040D01*
X115656210Y-94632019D01*
X115598545Y-94634269D01*
X115560392Y-94637643D01*
X115536996Y-94642994D01*
X115523602Y-94651176D01*
X115515455Y-94663041D01*
X115511856Y-94670638D01*
X115499548Y-94702898D01*
X115495486Y-94721889D01*
X115509052Y-94728164D01*
X115550066Y-94731994D01*
X115619001Y-94733400D01*
X115716331Y-94732402D01*
X115731343Y-94732092D01*
X115820141Y-94729899D01*
X115884981Y-94727307D01*
X115930933Y-94723618D01*
X115963065Y-94718136D01*
X115986447Y-94710165D01*
X116006148Y-94699007D01*
X116014590Y-94693170D01*
X116051943Y-94659704D01*
X116080997Y-94622273D01*
X116083533Y-94617691D01*
X116103557Y-94550574D01*
X116100245Y-94480074D01*
G36*
X116099032Y-94970256D02*
G01*
X116077913Y-94913384D01*
X116077507Y-94912733D01*
X116051620Y-94877560D01*
X116021367Y-94851593D01*
X115981942Y-94833330D01*
X115928538Y-94821268D01*
X115856349Y-94813904D01*
X115760568Y-94809736D01*
X115746922Y-94809371D01*
X115541158Y-94804124D01*
X115518322Y-94848284D01*
X115502890Y-94880237D01*
X115495577Y-94899530D01*
X115495486Y-94900422D01*
X115508978Y-94903761D01*
X115545374Y-94906413D01*
X115598548Y-94908044D01*
X115641607Y-94908400D01*
X115711359Y-94908408D01*
X115755163Y-94911597D01*
X115776056Y-94922712D01*
X115777075Y-94946499D01*
X115761259Y-94987704D01*
X115732185Y-95049914D01*
X115708037Y-95095659D01*
X115687087Y-95119187D01*
X115664253Y-95126104D01*
X115663123Y-95126114D01*
X115623788Y-95114701D01*
X115602538Y-95080908D01*
X115599461Y-95029191D01*
X115599994Y-94991939D01*
X115589265Y-94972297D01*
X115563495Y-94960048D01*
X115530663Y-94952998D01*
X115512034Y-94963158D01*
X115509368Y-94966983D01*
X115498660Y-95002999D01*
X115497144Y-95053434D01*
X115504241Y-95105374D01*
X115517212Y-95142178D01*
X115560415Y-95193062D01*
X115620554Y-95221986D01*
X115667538Y-95227714D01*
X115709918Y-95223343D01*
X115744512Y-95207525D01*
X115775237Y-95176203D01*
X115806010Y-95125322D01*
X115840748Y-95050824D01*
X115842712Y-95046286D01*
X115873713Y-94979179D01*
X115899138Y-94937768D01*
X115921986Y-94920019D01*
X115945255Y-94923893D01*
X115971944Y-94947357D01*
X115978086Y-94954373D01*
X116001900Y-95001370D01*
X116000897Y-95050067D01*
X115977549Y-95092478D01*
X115934325Y-95120616D01*
X115925840Y-95123231D01*
X115884692Y-95148692D01*
X115864872Y-95180999D01*
X115845230Y-95227714D01*
X115896050Y-95227714D01*
X115969918Y-95213504D01*
X116037673Y-95171325D01*
X116060339Y-95149376D01*
X116089431Y-95099483D01*
X116102600Y-95036033D01*
X116099032Y-94970256D01*
G37*
X116099032Y-94970256D02*
X116077913Y-94913384D01*
X116077507Y-94912733D01*
X116051620Y-94877560D01*
X116021367Y-94851593D01*
X115981942Y-94833330D01*
X115928538Y-94821268D01*
X115856349Y-94813904D01*
X115760568Y-94809736D01*
X115746922Y-94809371D01*
X115541158Y-94804124D01*
X115518322Y-94848284D01*
X115502890Y-94880237D01*
X115495577Y-94899530D01*
X115495486Y-94900422D01*
X115508978Y-94903761D01*
X115545374Y-94906413D01*
X115598548Y-94908044D01*
X115641607Y-94908400D01*
X115711359Y-94908408D01*
X115755163Y-94911597D01*
X115776056Y-94922712D01*
X115777075Y-94946499D01*
X115761259Y-94987704D01*
X115732185Y-95049914D01*
X115708037Y-95095659D01*
X115687087Y-95119187D01*
X115664253Y-95126104D01*
X115663123Y-95126114D01*
X115623788Y-95114701D01*
X115602538Y-95080908D01*
X115599461Y-95029191D01*
X115599994Y-94991939D01*
X115589265Y-94972297D01*
X115563495Y-94960048D01*
X115530663Y-94952998D01*
X115512034Y-94963158D01*
X115509368Y-94966983D01*
X115498660Y-95002999D01*
X115497144Y-95053434D01*
X115504241Y-95105374D01*
X115517212Y-95142178D01*
X115560415Y-95193062D01*
X115620554Y-95221986D01*
X115667538Y-95227714D01*
X115709918Y-95223343D01*
X115744512Y-95207525D01*
X115775237Y-95176203D01*
X115806010Y-95125322D01*
X115840748Y-95050824D01*
X115842712Y-95046286D01*
X115873713Y-94979179D01*
X115899138Y-94937768D01*
X115921986Y-94920019D01*
X115945255Y-94923893D01*
X115971944Y-94947357D01*
X115978086Y-94954373D01*
X116001900Y-95001370D01*
X116000897Y-95050067D01*
X115977549Y-95092478D01*
X115934325Y-95120616D01*
X115925840Y-95123231D01*
X115884692Y-95148692D01*
X115864872Y-95180999D01*
X115845230Y-95227714D01*
X115896050Y-95227714D01*
X115969918Y-95213504D01*
X116037673Y-95171325D01*
X116060339Y-95149376D01*
X116089431Y-95099483D01*
X116102600Y-95036033D01*
X116099032Y-94970256D01*
G36*
X116198711Y-95634114D02*
G01*
X116139387Y-95629861D01*
X116104428Y-95624975D01*
X116089180Y-95618205D01*
X116088985Y-95608298D01*
X116090805Y-95605086D01*
X116103985Y-95562356D01*
X116103215Y-95506773D01*
X116089667Y-95450263D01*
X116072139Y-95414918D01*
X116044139Y-95378679D01*
X116012451Y-95352187D01*
X115972187Y-95334001D01*
X115918457Y-95322678D01*
X115846374Y-95316778D01*
X115751049Y-95314857D01*
X115732763Y-95314823D01*
X115527354Y-95314800D01*
X115511420Y-95360509D01*
X115500580Y-95392973D01*
X115495532Y-95410785D01*
X115495486Y-95411309D01*
X115509172Y-95413063D01*
X115546924Y-95414556D01*
X115603776Y-95415674D01*
X115674766Y-95416303D01*
X115717927Y-95416400D01*
X115803027Y-95416602D01*
X115864019Y-95417642D01*
X115905823Y-95420169D01*
X115933358Y-95424836D01*
X115951544Y-95432293D01*
X115965302Y-95443189D01*
X115971927Y-95449993D01*
X115998625Y-95496728D01*
X116000625Y-95547728D01*
X115978045Y-95593999D01*
X115969893Y-95602556D01*
X115954564Y-95615107D01*
X115936382Y-95623812D01*
X115910091Y-95629369D01*
X115870438Y-95632474D01*
X115812168Y-95633824D01*
X115731827Y-95634114D01*
X115527354Y-95634114D01*
X115511420Y-95679823D01*
X115500580Y-95712287D01*
X115495532Y-95730099D01*
X115495486Y-95730623D01*
X115509377Y-95731963D01*
X115548561Y-95733172D01*
X115609300Y-95734199D01*
X115687859Y-95734998D01*
X115780502Y-95735519D01*
X115883491Y-95735714D01*
X116280658Y-95735714D01*
X116300556Y-95688543D01*
X116320453Y-95641371D01*
X116198711Y-95634114D01*
G37*
X116198711Y-95634114D02*
X116139387Y-95629861D01*
X116104428Y-95624975D01*
X116089180Y-95618205D01*
X116088985Y-95608298D01*
X116090805Y-95605086D01*
X116103985Y-95562356D01*
X116103215Y-95506773D01*
X116089667Y-95450263D01*
X116072139Y-95414918D01*
X116044139Y-95378679D01*
X116012451Y-95352187D01*
X115972187Y-95334001D01*
X115918457Y-95322678D01*
X115846374Y-95316778D01*
X115751049Y-95314857D01*
X115732763Y-95314823D01*
X115527354Y-95314800D01*
X115511420Y-95360509D01*
X115500580Y-95392973D01*
X115495532Y-95410785D01*
X115495486Y-95411309D01*
X115509172Y-95413063D01*
X115546924Y-95414556D01*
X115603776Y-95415674D01*
X115674766Y-95416303D01*
X115717927Y-95416400D01*
X115803027Y-95416602D01*
X115864019Y-95417642D01*
X115905823Y-95420169D01*
X115933358Y-95424836D01*
X115951544Y-95432293D01*
X115965302Y-95443189D01*
X115971927Y-95449993D01*
X115998625Y-95496728D01*
X116000625Y-95547728D01*
X115978045Y-95593999D01*
X115969893Y-95602556D01*
X115954564Y-95615107D01*
X115936382Y-95623812D01*
X115910091Y-95629369D01*
X115870438Y-95632474D01*
X115812168Y-95633824D01*
X115731827Y-95634114D01*
X115527354Y-95634114D01*
X115511420Y-95679823D01*
X115500580Y-95712287D01*
X115495532Y-95730099D01*
X115495486Y-95730623D01*
X115509377Y-95731963D01*
X115548561Y-95733172D01*
X115609300Y-95734199D01*
X115687859Y-95734998D01*
X115780502Y-95735519D01*
X115883491Y-95735714D01*
X116280658Y-95735714D01*
X116300556Y-95688543D01*
X116320453Y-95641371D01*
X116198711Y-95634114D01*
G36*
X116118761Y-96841697D02*
G01*
X116080265Y-96784473D01*
X116024665Y-96740251D01*
X115953914Y-96713833D01*
X115901838Y-96708490D01*
X115880107Y-96709097D01*
X115863469Y-96714178D01*
X115848563Y-96728145D01*
X115832027Y-96755411D01*
X115810502Y-96800388D01*
X115780626Y-96867489D01*
X115780476Y-96867829D01*
X115752187Y-96929593D01*
X115727067Y-96980241D01*
X115707821Y-97014596D01*
X115697152Y-97027482D01*
X115697066Y-97027486D01*
X115673834Y-97016128D01*
X115648226Y-96989569D01*
X115629779Y-96959077D01*
X115626114Y-96943630D01*
X115638788Y-96901485D01*
X115670529Y-96865192D01*
X115705428Y-96847483D01*
X115731155Y-96830448D01*
X115760454Y-96797078D01*
X115785765Y-96757851D01*
X115799529Y-96723244D01*
X115800286Y-96716007D01*
X115787840Y-96707861D01*
X115756028Y-96707370D01*
X115713134Y-96713357D01*
X115667442Y-96724643D01*
X115627239Y-96740050D01*
X115625678Y-96740829D01*
X115560938Y-96787196D01*
X115516903Y-96847289D01*
X115495289Y-96915535D01*
X115497815Y-96986362D01*
X115526196Y-97054196D01*
X115528192Y-97057212D01*
X115576552Y-97110573D01*
X115639648Y-97145660D01*
X115722613Y-97165078D01*
X115745922Y-97167684D01*
X115855945Y-97172299D01*
X115907252Y-97166767D01*
X115907252Y-97027486D01*
X115875247Y-97025676D01*
X115865907Y-97015778D01*
X115872895Y-96991102D01*
X115889413Y-96952205D01*
X115910119Y-96908725D01*
X115910667Y-96907644D01*
X115930051Y-96870791D01*
X115942987Y-96856000D01*
X115956549Y-96859647D01*
X115974368Y-96875005D01*
X116000155Y-96914077D01*
X116002050Y-96956154D01*
X115983283Y-96993897D01*
X115947085Y-97019966D01*
X115907252Y-97027486D01*
X115907252Y-97166767D01*
X115943973Y-97162806D01*
X116013788Y-97138450D01*
X116062698Y-97104544D01*
X116112122Y-97043347D01*
X116136641Y-96975937D01*
X116138203Y-96907120D01*
X116118761Y-96841697D01*
G37*
X116118761Y-96841697D02*
X116080265Y-96784473D01*
X116024665Y-96740251D01*
X115953914Y-96713833D01*
X115901838Y-96708490D01*
X115880107Y-96709097D01*
X115863469Y-96714178D01*
X115848563Y-96728145D01*
X115832027Y-96755411D01*
X115810502Y-96800388D01*
X115780626Y-96867489D01*
X115780476Y-96867829D01*
X115752187Y-96929593D01*
X115727067Y-96980241D01*
X115707821Y-97014596D01*
X115697152Y-97027482D01*
X115697066Y-97027486D01*
X115673834Y-97016128D01*
X115648226Y-96989569D01*
X115629779Y-96959077D01*
X115626114Y-96943630D01*
X115638788Y-96901485D01*
X115670529Y-96865192D01*
X115705428Y-96847483D01*
X115731155Y-96830448D01*
X115760454Y-96797078D01*
X115785765Y-96757851D01*
X115799529Y-96723244D01*
X115800286Y-96716007D01*
X115787840Y-96707861D01*
X115756028Y-96707370D01*
X115713134Y-96713357D01*
X115667442Y-96724643D01*
X115627239Y-96740050D01*
X115625678Y-96740829D01*
X115560938Y-96787196D01*
X115516903Y-96847289D01*
X115495289Y-96915535D01*
X115497815Y-96986362D01*
X115526196Y-97054196D01*
X115528192Y-97057212D01*
X115576552Y-97110573D01*
X115639648Y-97145660D01*
X115722613Y-97165078D01*
X115745922Y-97167684D01*
X115855945Y-97172299D01*
X115907252Y-97166767D01*
X115907252Y-97027486D01*
X115875247Y-97025676D01*
X115865907Y-97015778D01*
X115872895Y-96991102D01*
X115889413Y-96952205D01*
X115910119Y-96908725D01*
X115910667Y-96907644D01*
X115930051Y-96870791D01*
X115942987Y-96856000D01*
X115956549Y-96859647D01*
X115974368Y-96875005D01*
X116000155Y-96914077D01*
X116002050Y-96956154D01*
X115983283Y-96993897D01*
X115947085Y-97019966D01*
X115907252Y-97027486D01*
X115907252Y-97166767D01*
X115943973Y-97162806D01*
X116013788Y-97138450D01*
X116062698Y-97104544D01*
X116112122Y-97043347D01*
X116136641Y-96975937D01*
X116138203Y-96907120D01*
X116118761Y-96841697D01*
G36*
X116128038Y-97968885D02*
G01*
X116092267Y-97900855D01*
X116034699Y-97850649D01*
X115997688Y-97832815D01*
X115942118Y-97818937D01*
X115871904Y-97811833D01*
X115795273Y-97811160D01*
X115720448Y-97816573D01*
X115655658Y-97827730D01*
X115609127Y-97844286D01*
X115601113Y-97849374D01*
X115541293Y-97909645D01*
X115505465Y-97981231D01*
X115494980Y-98058908D01*
X115511190Y-98137452D01*
X115520908Y-98159311D01*
X115550857Y-98201878D01*
X115590567Y-98239237D01*
X115595603Y-98242768D01*
X115619876Y-98257119D01*
X115645822Y-98266606D01*
X115679978Y-98272210D01*
X115728881Y-98274914D01*
X115799065Y-98275701D01*
X115814800Y-98275714D01*
X115819808Y-98275678D01*
X115819808Y-98130571D01*
X115753570Y-98129727D01*
X115709614Y-98126404D01*
X115681221Y-98119417D01*
X115661675Y-98107584D01*
X115655143Y-98101543D01*
X115630320Y-98066814D01*
X115631452Y-98033097D01*
X115652984Y-97999005D01*
X115675971Y-97978671D01*
X115709522Y-97966629D01*
X115762431Y-97959866D01*
X115768601Y-97959402D01*
X115864487Y-97958248D01*
X115935701Y-97970312D01*
X115981806Y-97995430D01*
X116002365Y-98033440D01*
X116003486Y-98047008D01*
X115997848Y-98082636D01*
X115978314Y-98107006D01*
X115940958Y-98121907D01*
X115881850Y-98129125D01*
X115819808Y-98130571D01*
X115819808Y-98275678D01*
X115889587Y-98275174D01*
X115941841Y-98272904D01*
X115978051Y-98267932D01*
X116004701Y-98259287D01*
X116028278Y-98245995D01*
X116032662Y-98243057D01*
X116091751Y-98193687D01*
X116126053Y-98139891D01*
X116139669Y-98074398D01*
X116140335Y-98052158D01*
X116128038Y-97968885D01*
G37*
X116128038Y-97968885D02*
X116092267Y-97900855D01*
X116034699Y-97850649D01*
X115997688Y-97832815D01*
X115942118Y-97818937D01*
X115871904Y-97811833D01*
X115795273Y-97811160D01*
X115720448Y-97816573D01*
X115655658Y-97827730D01*
X115609127Y-97844286D01*
X115601113Y-97849374D01*
X115541293Y-97909645D01*
X115505465Y-97981231D01*
X115494980Y-98058908D01*
X115511190Y-98137452D01*
X115520908Y-98159311D01*
X115550857Y-98201878D01*
X115590567Y-98239237D01*
X115595603Y-98242768D01*
X115619876Y-98257119D01*
X115645822Y-98266606D01*
X115679978Y-98272210D01*
X115728881Y-98274914D01*
X115799065Y-98275701D01*
X115814800Y-98275714D01*
X115819808Y-98275678D01*
X115819808Y-98130571D01*
X115753570Y-98129727D01*
X115709614Y-98126404D01*
X115681221Y-98119417D01*
X115661675Y-98107584D01*
X115655143Y-98101543D01*
X115630320Y-98066814D01*
X115631452Y-98033097D01*
X115652984Y-97999005D01*
X115675971Y-97978671D01*
X115709522Y-97966629D01*
X115762431Y-97959866D01*
X115768601Y-97959402D01*
X115864487Y-97958248D01*
X115935701Y-97970312D01*
X115981806Y-97995430D01*
X116002365Y-98033440D01*
X116003486Y-98047008D01*
X115997848Y-98082636D01*
X115978314Y-98107006D01*
X115940958Y-98121907D01*
X115881850Y-98129125D01*
X115819808Y-98130571D01*
X115819808Y-98275678D01*
X115889587Y-98275174D01*
X115941841Y-98272904D01*
X115978051Y-98267932D01*
X116004701Y-98259287D01*
X116028278Y-98245995D01*
X116032662Y-98243057D01*
X116091751Y-98193687D01*
X116126053Y-98139891D01*
X116139669Y-98074398D01*
X116140335Y-98052158D01*
X116128038Y-97968885D01*
G36*
X116122220Y-96293907D02*
G01*
X116095277Y-96247328D01*
X116068534Y-96214943D01*
X116040516Y-96191258D01*
X116006252Y-96174941D01*
X115960773Y-96164661D01*
X115899108Y-96159086D01*
X115816289Y-96156884D01*
X115756754Y-96156629D01*
X115537609Y-96156629D01*
X115509956Y-96218314D01*
X115482303Y-96280000D01*
X115722330Y-96287257D01*
X115811972Y-96290256D01*
X115877038Y-96293402D01*
X115921974Y-96297299D01*
X115951230Y-96302553D01*
X115969252Y-96309769D01*
X115980489Y-96319550D01*
X115982921Y-96322688D01*
X116001917Y-96370239D01*
X115994400Y-96418303D01*
X115974457Y-96446914D01*
X115960325Y-96458553D01*
X115941780Y-96466609D01*
X115913666Y-96471729D01*
X115870827Y-96474559D01*
X115808105Y-96475744D01*
X115742739Y-96475943D01*
X115660732Y-96475982D01*
X115602684Y-96477386D01*
X115563535Y-96482086D01*
X115538220Y-96492013D01*
X115521677Y-96509097D01*
X115508844Y-96535268D01*
X115495509Y-96570225D01*
X115480993Y-96608404D01*
X115738611Y-96603859D01*
X115831481Y-96602029D01*
X115900111Y-96599888D01*
X115949289Y-96596819D01*
X115983802Y-96592206D01*
X116008438Y-96585432D01*
X116027984Y-96575881D01*
X116045230Y-96564366D01*
X116100320Y-96508810D01*
X116132178Y-96441020D01*
X116139809Y-96367287D01*
X116122220Y-96293907D01*
G37*
X116122220Y-96293907D02*
X116095277Y-96247328D01*
X116068534Y-96214943D01*
X116040516Y-96191258D01*
X116006252Y-96174941D01*
X115960773Y-96164661D01*
X115899108Y-96159086D01*
X115816289Y-96156884D01*
X115756754Y-96156629D01*
X115537609Y-96156629D01*
X115509956Y-96218314D01*
X115482303Y-96280000D01*
X115722330Y-96287257D01*
X115811972Y-96290256D01*
X115877038Y-96293402D01*
X115921974Y-96297299D01*
X115951230Y-96302553D01*
X115969252Y-96309769D01*
X115980489Y-96319550D01*
X115982921Y-96322688D01*
X116001917Y-96370239D01*
X115994400Y-96418303D01*
X115974457Y-96446914D01*
X115960325Y-96458553D01*
X115941780Y-96466609D01*
X115913666Y-96471729D01*
X115870827Y-96474559D01*
X115808105Y-96475744D01*
X115742739Y-96475943D01*
X115660732Y-96475982D01*
X115602684Y-96477386D01*
X115563535Y-96482086D01*
X115538220Y-96492013D01*
X115521677Y-96509097D01*
X115508844Y-96535268D01*
X115495509Y-96570225D01*
X115480993Y-96608404D01*
X115738611Y-96603859D01*
X115831481Y-96602029D01*
X115900111Y-96599888D01*
X115949289Y-96596819D01*
X115983802Y-96592206D01*
X116008438Y-96585432D01*
X116027984Y-96575881D01*
X116045230Y-96564366D01*
X116100320Y-96508810D01*
X116132178Y-96441020D01*
X116139809Y-96367287D01*
X116122220Y-96293907D01*
G36*
X116130082Y-97410256D02*
G01*
X116102432Y-97354799D01*
X116051520Y-97305852D01*
X116032662Y-97292371D01*
X116007985Y-97277686D01*
X115981184Y-97268158D01*
X115945413Y-97262707D01*
X115893831Y-97260253D01*
X115825733Y-97259714D01*
X115732412Y-97262148D01*
X115662343Y-97270606D01*
X115610069Y-97286826D01*
X115570131Y-97312546D01*
X115537071Y-97349503D01*
X115535114Y-97352218D01*
X115515092Y-97388640D01*
X115505185Y-97432498D01*
X115502743Y-97488276D01*
X115502743Y-97578952D01*
X115414717Y-97578990D01*
X115365692Y-97579834D01*
X115336935Y-97584976D01*
X115319689Y-97598413D01*
X115305192Y-97624142D01*
X115302231Y-97630321D01*
X115288352Y-97659236D01*
X115279586Y-97681624D01*
X115278829Y-97698271D01*
X115288977Y-97709964D01*
X115312927Y-97717490D01*
X115353574Y-97721634D01*
X115413814Y-97723185D01*
X115496545Y-97722929D01*
X115604661Y-97721651D01*
X115637000Y-97721252D01*
X115748476Y-97719815D01*
X115821397Y-97718528D01*
X115821397Y-97579029D01*
X115759501Y-97578245D01*
X115719003Y-97574760D01*
X115692292Y-97566876D01*
X115671756Y-97552895D01*
X115661740Y-97543403D01*
X115632433Y-97504596D01*
X115630048Y-97470237D01*
X115654250Y-97434784D01*
X115655143Y-97433886D01*
X115673847Y-97419461D01*
X115699268Y-97410687D01*
X115738416Y-97406261D01*
X115798303Y-97404882D01*
X115811570Y-97404857D01*
X115894099Y-97408188D01*
X115951309Y-97419031D01*
X115986234Y-97438660D01*
X116001906Y-97468350D01*
X116003486Y-97485509D01*
X115996074Y-97526234D01*
X115971670Y-97554168D01*
X115927020Y-97570983D01*
X115858870Y-97578350D01*
X115821397Y-97579029D01*
X115821397Y-97718528D01*
X115834755Y-97718292D01*
X115899667Y-97716323D01*
X115947042Y-97713550D01*
X115980710Y-97709612D01*
X116004502Y-97704151D01*
X116022247Y-97696808D01*
X116037776Y-97687223D01*
X116043619Y-97683113D01*
X116098815Y-97628595D01*
X116130110Y-97559664D01*
X116138835Y-97479928D01*
X116130082Y-97410256D01*
G37*
X116130082Y-97410256D02*
X116102432Y-97354799D01*
X116051520Y-97305852D01*
X116032662Y-97292371D01*
X116007985Y-97277686D01*
X115981184Y-97268158D01*
X115945413Y-97262707D01*
X115893831Y-97260253D01*
X115825733Y-97259714D01*
X115732412Y-97262148D01*
X115662343Y-97270606D01*
X115610069Y-97286826D01*
X115570131Y-97312546D01*
X115537071Y-97349503D01*
X115535114Y-97352218D01*
X115515092Y-97388640D01*
X115505185Y-97432498D01*
X115502743Y-97488276D01*
X115502743Y-97578952D01*
X115414717Y-97578990D01*
X115365692Y-97579834D01*
X115336935Y-97584976D01*
X115319689Y-97598413D01*
X115305192Y-97624142D01*
X115302231Y-97630321D01*
X115288352Y-97659236D01*
X115279586Y-97681624D01*
X115278829Y-97698271D01*
X115288977Y-97709964D01*
X115312927Y-97717490D01*
X115353574Y-97721634D01*
X115413814Y-97723185D01*
X115496545Y-97722929D01*
X115604661Y-97721651D01*
X115637000Y-97721252D01*
X115748476Y-97719815D01*
X115821397Y-97718528D01*
X115821397Y-97579029D01*
X115759501Y-97578245D01*
X115719003Y-97574760D01*
X115692292Y-97566876D01*
X115671756Y-97552895D01*
X115661740Y-97543403D01*
X115632433Y-97504596D01*
X115630048Y-97470237D01*
X115654250Y-97434784D01*
X115655143Y-97433886D01*
X115673847Y-97419461D01*
X115699268Y-97410687D01*
X115738416Y-97406261D01*
X115798303Y-97404882D01*
X115811570Y-97404857D01*
X115894099Y-97408188D01*
X115951309Y-97419031D01*
X115986234Y-97438660D01*
X116001906Y-97468350D01*
X116003486Y-97485509D01*
X115996074Y-97526234D01*
X115971670Y-97554168D01*
X115927020Y-97570983D01*
X115858870Y-97578350D01*
X115821397Y-97579029D01*
X115821397Y-97718528D01*
X115834755Y-97718292D01*
X115899667Y-97716323D01*
X115947042Y-97713550D01*
X115980710Y-97709612D01*
X116004502Y-97704151D01*
X116022247Y-97696808D01*
X116037776Y-97687223D01*
X116043619Y-97683113D01*
X116098815Y-97628595D01*
X116130110Y-97559664D01*
X116138835Y-97479928D01*
X116130082Y-97410256D01*
G36*
X121023429Y-82563043D02*
G01*
X120999191Y-82466768D01*
X120956359Y-82380184D01*
X120896581Y-82305373D01*
X120821506Y-82244418D01*
X120732780Y-82199399D01*
X120636470Y-82173136D01*
X120539205Y-82167286D01*
X120445346Y-82182140D01*
X120357489Y-82215840D01*
X120278230Y-82266528D01*
X120210164Y-82332345D01*
X120155888Y-82411434D01*
X120117998Y-82501934D01*
X120105574Y-82553200D01*
X120098053Y-82597698D01*
X120095081Y-82631999D01*
X120096906Y-82664960D01*
X120103775Y-82705434D01*
X120110750Y-82738531D01*
X120142259Y-82831947D01*
X120193383Y-82915619D01*
X120262571Y-82987665D01*
X120348272Y-83046200D01*
X120375511Y-83060148D01*
X120411878Y-83076586D01*
X120442418Y-83086894D01*
X120474550Y-83092460D01*
X120515693Y-83094669D01*
X120561778Y-83094948D01*
X120646135Y-83090861D01*
X120715414Y-83077446D01*
X120776039Y-83052256D01*
X120834433Y-83012846D01*
X120878698Y-82974298D01*
X120944516Y-82902406D01*
X120989947Y-82827313D01*
X121017150Y-82744562D01*
X121027424Y-82666928D01*
X121023429Y-82563043D01*
G37*
X121023429Y-82563043D02*
X120999191Y-82466768D01*
X120956359Y-82380184D01*
X120896581Y-82305373D01*
X120821506Y-82244418D01*
X120732780Y-82199399D01*
X120636470Y-82173136D01*
X120539205Y-82167286D01*
X120445346Y-82182140D01*
X120357489Y-82215840D01*
X120278230Y-82266528D01*
X120210164Y-82332345D01*
X120155888Y-82411434D01*
X120117998Y-82501934D01*
X120105574Y-82553200D01*
X120098053Y-82597698D01*
X120095081Y-82631999D01*
X120096906Y-82664960D01*
X120103775Y-82705434D01*
X120110750Y-82738531D01*
X120142259Y-82831947D01*
X120193383Y-82915619D01*
X120262571Y-82987665D01*
X120348272Y-83046200D01*
X120375511Y-83060148D01*
X120411878Y-83076586D01*
X120442418Y-83086894D01*
X120474550Y-83092460D01*
X120515693Y-83094669D01*
X120561778Y-83094948D01*
X120646135Y-83090861D01*
X120715414Y-83077446D01*
X120776039Y-83052256D01*
X120834433Y-83012846D01*
X120878698Y-82974298D01*
X120944516Y-82902406D01*
X120989947Y-82827313D01*
X121017150Y-82744562D01*
X121027424Y-82666928D01*
X121023429Y-82563043D01*
G36*
X118577755Y-74103493D02*
G01*
X118343338Y-74103474D01*
X118130397Y-74103448D01*
X117937832Y-74103375D01*
X117764541Y-74103218D01*
X117609424Y-74102936D01*
X117471380Y-74102491D01*
X117349308Y-74101844D01*
X117242106Y-74100955D01*
X117148674Y-74099787D01*
X117067910Y-74098299D01*
X116998714Y-74096454D01*
X116939985Y-74094211D01*
X116890621Y-74091531D01*
X116849522Y-74088377D01*
X116815587Y-74084708D01*
X116787714Y-74080487D01*
X116764802Y-74075673D01*
X116745751Y-74070227D01*
X116729460Y-74064112D01*
X116714827Y-74057288D01*
X116700751Y-74049715D01*
X116686132Y-74041355D01*
X116677026Y-74036161D01*
X116616311Y-74001896D01*
X116616311Y-74860045D01*
X116712267Y-74860045D01*
X116755630Y-74860776D01*
X116788795Y-74862728D01*
X116806576Y-74865537D01*
X116808222Y-74866779D01*
X116801338Y-74878201D01*
X116783495Y-74900916D01*
X116764121Y-74923615D01*
X116723386Y-74978200D01*
X116682383Y-75047679D01*
X116644877Y-75124730D01*
X116614636Y-75202035D01*
X116604988Y-75232887D01*
X116590422Y-75301384D01*
X116580461Y-75384236D01*
X116575417Y-75473629D01*
X116575604Y-75561752D01*
X116581334Y-75640793D01*
X116587142Y-75678489D01*
X116625203Y-75816586D01*
X116682927Y-75943887D01*
X116759789Y-76059708D01*
X116855261Y-76163363D01*
X116968821Y-76254167D01*
X117079619Y-76320969D01*
X117196375Y-76375836D01*
X117315724Y-76417837D01*
X117441717Y-76447833D01*
X117578406Y-76466689D01*
X117729842Y-76475268D01*
X117807289Y-76475994D01*
X117864066Y-76473900D01*
X117864066Y-75644783D01*
X117770998Y-75644576D01*
X117683308Y-75641663D01*
X117606228Y-75636000D01*
X117544991Y-75627545D01*
X117532650Y-75624962D01*
X117425367Y-75593160D01*
X117338342Y-75551502D01*
X117271358Y-75499637D01*
X117224195Y-75437219D01*
X117196635Y-75363900D01*
X117188459Y-75279331D01*
X117199449Y-75183165D01*
X117215171Y-75119689D01*
X117233361Y-75070546D01*
X117259209Y-75016417D01*
X117282911Y-74975756D01*
X117329279Y-74905200D01*
X118479470Y-74905200D01*
X118523038Y-74972608D01*
X118563960Y-75051133D01*
X118590611Y-75135319D01*
X118602535Y-75220443D01*
X118599278Y-75301784D01*
X118580385Y-75374620D01*
X118564816Y-75406574D01*
X118521819Y-75464499D01*
X118465047Y-75513456D01*
X118392425Y-75554610D01*
X118301879Y-75589126D01*
X118191334Y-75618167D01*
X118185467Y-75619448D01*
X118123212Y-75629619D01*
X118045406Y-75637261D01*
X117957280Y-75642330D01*
X117864066Y-75644783D01*
X117864066Y-76473900D01*
X118020105Y-76468143D01*
X118215941Y-76446198D01*
X118394668Y-76410214D01*
X118556155Y-76360241D01*
X118700274Y-76296332D01*
X118826894Y-76218538D01*
X118935885Y-76126911D01*
X119027117Y-76021503D01*
X119058068Y-75976338D01*
X119114215Y-75875389D01*
X119153826Y-75772099D01*
X119177986Y-75662011D01*
X119187781Y-75540670D01*
X119186735Y-75448164D01*
X119175769Y-75318510D01*
X119153954Y-75205916D01*
X119120286Y-75107125D01*
X119073764Y-75018879D01*
X119039552Y-74970014D01*
X119017638Y-74940647D01*
X119002667Y-74918957D01*
X118998267Y-74910747D01*
X119009096Y-74909132D01*
X119039749Y-74907841D01*
X119087474Y-74906862D01*
X119149521Y-74906183D01*
X119223138Y-74905790D01*
X119305573Y-74905670D01*
X119394075Y-74905812D01*
X119485893Y-74906203D01*
X119578276Y-74906829D01*
X119668472Y-74907680D01*
X119753729Y-74908740D01*
X119831297Y-74909999D01*
X119898424Y-74911444D01*
X119952359Y-74913062D01*
X119990350Y-74914839D01*
X119997333Y-74915331D01*
X120067749Y-74922908D01*
X120122898Y-74934469D01*
X120170019Y-74952208D01*
X120216353Y-74978318D01*
X120225933Y-74984585D01*
X120262622Y-75009017D01*
X120262622Y-74103689D01*
X118577755Y-74103493D01*
G37*
X118577755Y-74103493D02*
X118343338Y-74103474D01*
X118130397Y-74103448D01*
X117937832Y-74103375D01*
X117764541Y-74103218D01*
X117609424Y-74102936D01*
X117471380Y-74102491D01*
X117349308Y-74101844D01*
X117242106Y-74100955D01*
X117148674Y-74099787D01*
X117067910Y-74098299D01*
X116998714Y-74096454D01*
X116939985Y-74094211D01*
X116890621Y-74091531D01*
X116849522Y-74088377D01*
X116815587Y-74084708D01*
X116787714Y-74080487D01*
X116764802Y-74075673D01*
X116745751Y-74070227D01*
X116729460Y-74064112D01*
X116714827Y-74057288D01*
X116700751Y-74049715D01*
X116686132Y-74041355D01*
X116677026Y-74036161D01*
X116616311Y-74001896D01*
X116616311Y-74860045D01*
X116712267Y-74860045D01*
X116755630Y-74860776D01*
X116788795Y-74862728D01*
X116806576Y-74865537D01*
X116808222Y-74866779D01*
X116801338Y-74878201D01*
X116783495Y-74900916D01*
X116764121Y-74923615D01*
X116723386Y-74978200D01*
X116682383Y-75047679D01*
X116644877Y-75124730D01*
X116614636Y-75202035D01*
X116604988Y-75232887D01*
X116590422Y-75301384D01*
X116580461Y-75384236D01*
X116575417Y-75473629D01*
X116575604Y-75561752D01*
X116581334Y-75640793D01*
X116587142Y-75678489D01*
X116625203Y-75816586D01*
X116682927Y-75943887D01*
X116759789Y-76059708D01*
X116855261Y-76163363D01*
X116968821Y-76254167D01*
X117079619Y-76320969D01*
X117196375Y-76375836D01*
X117315724Y-76417837D01*
X117441717Y-76447833D01*
X117578406Y-76466689D01*
X117729842Y-76475268D01*
X117807289Y-76475994D01*
X117864066Y-76473900D01*
X117864066Y-75644783D01*
X117770998Y-75644576D01*
X117683308Y-75641663D01*
X117606228Y-75636000D01*
X117544991Y-75627545D01*
X117532650Y-75624962D01*
X117425367Y-75593160D01*
X117338342Y-75551502D01*
X117271358Y-75499637D01*
X117224195Y-75437219D01*
X117196635Y-75363900D01*
X117188459Y-75279331D01*
X117199449Y-75183165D01*
X117215171Y-75119689D01*
X117233361Y-75070546D01*
X117259209Y-75016417D01*
X117282911Y-74975756D01*
X117329279Y-74905200D01*
X118479470Y-74905200D01*
X118523038Y-74972608D01*
X118563960Y-75051133D01*
X118590611Y-75135319D01*
X118602535Y-75220443D01*
X118599278Y-75301784D01*
X118580385Y-75374620D01*
X118564816Y-75406574D01*
X118521819Y-75464499D01*
X118465047Y-75513456D01*
X118392425Y-75554610D01*
X118301879Y-75589126D01*
X118191334Y-75618167D01*
X118185467Y-75619448D01*
X118123212Y-75629619D01*
X118045406Y-75637261D01*
X117957280Y-75642330D01*
X117864066Y-75644783D01*
X117864066Y-76473900D01*
X118020105Y-76468143D01*
X118215941Y-76446198D01*
X118394668Y-76410214D01*
X118556155Y-76360241D01*
X118700274Y-76296332D01*
X118826894Y-76218538D01*
X118935885Y-76126911D01*
X119027117Y-76021503D01*
X119058068Y-75976338D01*
X119114215Y-75875389D01*
X119153826Y-75772099D01*
X119177986Y-75662011D01*
X119187781Y-75540670D01*
X119186735Y-75448164D01*
X119175769Y-75318510D01*
X119153954Y-75205916D01*
X119120286Y-75107125D01*
X119073764Y-75018879D01*
X119039552Y-74970014D01*
X119017638Y-74940647D01*
X119002667Y-74918957D01*
X118998267Y-74910747D01*
X119009096Y-74909132D01*
X119039749Y-74907841D01*
X119087474Y-74906862D01*
X119149521Y-74906183D01*
X119223138Y-74905790D01*
X119305573Y-74905670D01*
X119394075Y-74905812D01*
X119485893Y-74906203D01*
X119578276Y-74906829D01*
X119668472Y-74907680D01*
X119753729Y-74908740D01*
X119831297Y-74909999D01*
X119898424Y-74911444D01*
X119952359Y-74913062D01*
X119990350Y-74914839D01*
X119997333Y-74915331D01*
X120067749Y-74922908D01*
X120122898Y-74934469D01*
X120170019Y-74952208D01*
X120216353Y-74978318D01*
X120225933Y-74984585D01*
X120262622Y-75009017D01*
X120262622Y-74103689D01*
X118577755Y-74103493D01*
G36*
X119183448Y-77616426D02*
G01*
X119163433Y-77464508D01*
X119129798Y-77329244D01*
X119082275Y-77209761D01*
X119020595Y-77105185D01*
X118957035Y-77027576D01*
X118882901Y-76958735D01*
X118803129Y-76904994D01*
X118710909Y-76862090D01*
X118667839Y-76846616D01*
X118628858Y-76833756D01*
X118592711Y-76822554D01*
X118557566Y-76812880D01*
X118521590Y-76804604D01*
X118482950Y-76797597D01*
X118439815Y-76791728D01*
X118390351Y-76786869D01*
X118332727Y-76782890D01*
X118265109Y-76779660D01*
X118185666Y-76777051D01*
X118092564Y-76774933D01*
X117983973Y-76773176D01*
X117858058Y-76771651D01*
X117712988Y-76770228D01*
X117570222Y-76768975D01*
X117414032Y-76767649D01*
X117278761Y-76766444D01*
X117162754Y-76765234D01*
X117064355Y-76763894D01*
X116981907Y-76762300D01*
X116913754Y-76760325D01*
X116858240Y-76757844D01*
X116813708Y-76754731D01*
X116778502Y-76750862D01*
X116750966Y-76746111D01*
X116729444Y-76740352D01*
X116712278Y-76733461D01*
X116697814Y-76725311D01*
X116684394Y-76715777D01*
X116670362Y-76704734D01*
X116664929Y-76700434D01*
X116642090Y-76684614D01*
X116626537Y-76677578D01*
X116626078Y-76677556D01*
X116623879Y-76688433D01*
X116621853Y-76719418D01*
X116620058Y-76768043D01*
X116618549Y-76831837D01*
X116617384Y-76908331D01*
X116616620Y-76995056D01*
X116616314Y-77089543D01*
X116616311Y-77100450D01*
X116616311Y-77523343D01*
X116712378Y-77526605D01*
X116808444Y-77529867D01*
X116757457Y-77591956D01*
X116689943Y-77689286D01*
X116635251Y-77799187D01*
X116605022Y-77885651D01*
X116590334Y-77954722D01*
X116580341Y-78038075D01*
X116575354Y-78127841D01*
X116575687Y-78216155D01*
X116581649Y-78295149D01*
X116587362Y-78331378D01*
X116625224Y-78471397D01*
X116680068Y-78597822D01*
X116751076Y-78709740D01*
X116837432Y-78806238D01*
X116938321Y-78886400D01*
X117052924Y-78949313D01*
X117179016Y-78993688D01*
X117235599Y-79006022D01*
X117297798Y-79013632D01*
X117372637Y-79017261D01*
X117406533Y-79017755D01*
X117409718Y-79017690D01*
X117409718Y-78257752D01*
X117334667Y-78248459D01*
X117270840Y-78220272D01*
X117215202Y-78171803D01*
X117210789Y-78166746D01*
X117175963Y-78118452D01*
X117153380Y-78066743D01*
X117141460Y-78006011D01*
X117138617Y-77930648D01*
X117139022Y-77912541D01*
X117141675Y-77858722D01*
X117147091Y-77818692D01*
X117157255Y-77783676D01*
X117174150Y-77744897D01*
X117179328Y-77734255D01*
X117215156Y-77673604D01*
X117257788Y-77626785D01*
X117273027Y-77614048D01*
X117329538Y-77569378D01*
X117525414Y-77569378D01*
X117604061Y-77569914D01*
X117662012Y-77571604D01*
X117701125Y-77574572D01*
X117723259Y-77578943D01*
X117729726Y-77583028D01*
X117732889Y-77598953D01*
X117735512Y-77632736D01*
X117737345Y-77679660D01*
X117738143Y-77735007D01*
X117738158Y-77743894D01*
X117732904Y-77864670D01*
X117716737Y-77967340D01*
X117689039Y-78053894D01*
X117649192Y-78126319D01*
X117602242Y-78181249D01*
X117544355Y-78225796D01*
X117481307Y-78250520D01*
X117409718Y-78257752D01*
X117409718Y-79017690D01*
X117500288Y-79015822D01*
X117579188Y-79007478D01*
X117650410Y-78991232D01*
X117721136Y-78965595D01*
X117773507Y-78941599D01*
X117868804Y-78882980D01*
X117956830Y-78804883D01*
X118035983Y-78709685D01*
X118104660Y-78599762D01*
X118161259Y-78477490D01*
X118204179Y-78345245D01*
X118219118Y-78280578D01*
X118241223Y-78144396D01*
X118255806Y-77995951D01*
X118262187Y-77844495D01*
X118260555Y-77717936D01*
X118253776Y-77556050D01*
X118312755Y-77563470D01*
X118411908Y-77582762D01*
X118492628Y-77613896D01*
X118555534Y-77657731D01*
X118601244Y-77715129D01*
X118630378Y-77786952D01*
X118643553Y-77874059D01*
X118641389Y-77977314D01*
X118637388Y-78015289D01*
X118612220Y-78156480D01*
X118571186Y-78293293D01*
X118533185Y-78387822D01*
X118513810Y-78432982D01*
X118498240Y-78471415D01*
X118488595Y-78497766D01*
X118486548Y-78505454D01*
X118495626Y-78515198D01*
X118524595Y-78531917D01*
X118573783Y-78555768D01*
X118643516Y-78586907D01*
X118734121Y-78625493D01*
X118749911Y-78632090D01*
X118822228Y-78662147D01*
X118887575Y-78689126D01*
X118943094Y-78711864D01*
X118985928Y-78729194D01*
X119013219Y-78739952D01*
X119022058Y-78743059D01*
X119026813Y-78733060D01*
X119032090Y-78706783D01*
X119035769Y-78678511D01*
X119040526Y-78648354D01*
X119049972Y-78600567D01*
X119063180Y-78539388D01*
X119079224Y-78469054D01*
X119097180Y-78393806D01*
X119104203Y-78365245D01*
X119129791Y-78260184D01*
X119149853Y-78172520D01*
X119165031Y-78097932D01*
X119175965Y-78032097D01*
X119183296Y-77970693D01*
X119187665Y-77909398D01*
X119189713Y-77843890D01*
X119190111Y-77785872D01*
X119183448Y-77616426D01*
G37*
X119183448Y-77616426D02*
X119163433Y-77464508D01*
X119129798Y-77329244D01*
X119082275Y-77209761D01*
X119020595Y-77105185D01*
X118957035Y-77027576D01*
X118882901Y-76958735D01*
X118803129Y-76904994D01*
X118710909Y-76862090D01*
X118667839Y-76846616D01*
X118628858Y-76833756D01*
X118592711Y-76822554D01*
X118557566Y-76812880D01*
X118521590Y-76804604D01*
X118482950Y-76797597D01*
X118439815Y-76791728D01*
X118390351Y-76786869D01*
X118332727Y-76782890D01*
X118265109Y-76779660D01*
X118185666Y-76777051D01*
X118092564Y-76774933D01*
X117983973Y-76773176D01*
X117858058Y-76771651D01*
X117712988Y-76770228D01*
X117570222Y-76768975D01*
X117414032Y-76767649D01*
X117278761Y-76766444D01*
X117162754Y-76765234D01*
X117064355Y-76763894D01*
X116981907Y-76762300D01*
X116913754Y-76760325D01*
X116858240Y-76757844D01*
X116813708Y-76754731D01*
X116778502Y-76750862D01*
X116750966Y-76746111D01*
X116729444Y-76740352D01*
X116712278Y-76733461D01*
X116697814Y-76725311D01*
X116684394Y-76715777D01*
X116670362Y-76704734D01*
X116664929Y-76700434D01*
X116642090Y-76684614D01*
X116626537Y-76677578D01*
X116626078Y-76677556D01*
X116623879Y-76688433D01*
X116621853Y-76719418D01*
X116620058Y-76768043D01*
X116618549Y-76831837D01*
X116617384Y-76908331D01*
X116616620Y-76995056D01*
X116616314Y-77089543D01*
X116616311Y-77100450D01*
X116616311Y-77523343D01*
X116712378Y-77526605D01*
X116808444Y-77529867D01*
X116757457Y-77591956D01*
X116689943Y-77689286D01*
X116635251Y-77799187D01*
X116605022Y-77885651D01*
X116590334Y-77954722D01*
X116580341Y-78038075D01*
X116575354Y-78127841D01*
X116575687Y-78216155D01*
X116581649Y-78295149D01*
X116587362Y-78331378D01*
X116625224Y-78471397D01*
X116680068Y-78597822D01*
X116751076Y-78709740D01*
X116837432Y-78806238D01*
X116938321Y-78886400D01*
X117052924Y-78949313D01*
X117179016Y-78993688D01*
X117235599Y-79006022D01*
X117297798Y-79013632D01*
X117372637Y-79017261D01*
X117406533Y-79017755D01*
X117409718Y-79017690D01*
X117409718Y-78257752D01*
X117334667Y-78248459D01*
X117270840Y-78220272D01*
X117215202Y-78171803D01*
X117210789Y-78166746D01*
X117175963Y-78118452D01*
X117153380Y-78066743D01*
X117141460Y-78006011D01*
X117138617Y-77930648D01*
X117139022Y-77912541D01*
X117141675Y-77858722D01*
X117147091Y-77818692D01*
X117157255Y-77783676D01*
X117174150Y-77744897D01*
X117179328Y-77734255D01*
X117215156Y-77673604D01*
X117257788Y-77626785D01*
X117273027Y-77614048D01*
X117329538Y-77569378D01*
X117525414Y-77569378D01*
X117604061Y-77569914D01*
X117662012Y-77571604D01*
X117701125Y-77574572D01*
X117723259Y-77578943D01*
X117729726Y-77583028D01*
X117732889Y-77598953D01*
X117735512Y-77632736D01*
X117737345Y-77679660D01*
X117738143Y-77735007D01*
X117738158Y-77743894D01*
X117732904Y-77864670D01*
X117716737Y-77967340D01*
X117689039Y-78053894D01*
X117649192Y-78126319D01*
X117602242Y-78181249D01*
X117544355Y-78225796D01*
X117481307Y-78250520D01*
X117409718Y-78257752D01*
X117409718Y-79017690D01*
X117500288Y-79015822D01*
X117579188Y-79007478D01*
X117650410Y-78991232D01*
X117721136Y-78965595D01*
X117773507Y-78941599D01*
X117868804Y-78882980D01*
X117956830Y-78804883D01*
X118035983Y-78709685D01*
X118104660Y-78599762D01*
X118161259Y-78477490D01*
X118204179Y-78345245D01*
X118219118Y-78280578D01*
X118241223Y-78144396D01*
X118255806Y-77995951D01*
X118262187Y-77844495D01*
X118260555Y-77717936D01*
X118253776Y-77556050D01*
X118312755Y-77563470D01*
X118411908Y-77582762D01*
X118492628Y-77613896D01*
X118555534Y-77657731D01*
X118601244Y-77715129D01*
X118630378Y-77786952D01*
X118643553Y-77874059D01*
X118641389Y-77977314D01*
X118637388Y-78015289D01*
X118612220Y-78156480D01*
X118571186Y-78293293D01*
X118533185Y-78387822D01*
X118513810Y-78432982D01*
X118498240Y-78471415D01*
X118488595Y-78497766D01*
X118486548Y-78505454D01*
X118495626Y-78515198D01*
X118524595Y-78531917D01*
X118573783Y-78555768D01*
X118643516Y-78586907D01*
X118734121Y-78625493D01*
X118749911Y-78632090D01*
X118822228Y-78662147D01*
X118887575Y-78689126D01*
X118943094Y-78711864D01*
X118985928Y-78729194D01*
X119013219Y-78739952D01*
X119022058Y-78743059D01*
X119026813Y-78733060D01*
X119032090Y-78706783D01*
X119035769Y-78678511D01*
X119040526Y-78648354D01*
X119049972Y-78600567D01*
X119063180Y-78539388D01*
X119079224Y-78469054D01*
X119097180Y-78393806D01*
X119104203Y-78365245D01*
X119129791Y-78260184D01*
X119149853Y-78172520D01*
X119165031Y-78097932D01*
X119175965Y-78032097D01*
X119183296Y-77970693D01*
X119187665Y-77909398D01*
X119189713Y-77843890D01*
X119190111Y-77785872D01*
X119183448Y-77616426D01*
G36*
X120100929Y-79961571D02*
G01*
X120079755Y-79801430D01*
X120039615Y-79637490D01*
X119980111Y-79467687D01*
X119900846Y-79289957D01*
X119895301Y-79278690D01*
X119867275Y-79220995D01*
X119843198Y-79169448D01*
X119824751Y-79127809D01*
X119813614Y-79099838D01*
X119811067Y-79090267D01*
X119806059Y-79071050D01*
X119801853Y-79066439D01*
X119791420Y-79071542D01*
X119765132Y-79087582D01*
X119725743Y-79112712D01*
X119676009Y-79145086D01*
X119618685Y-79182857D01*
X119556524Y-79224178D01*
X119492282Y-79267202D01*
X119428715Y-79310083D01*
X119368575Y-79350974D01*
X119314620Y-79388029D01*
X119269603Y-79419400D01*
X119236279Y-79443241D01*
X119217403Y-79457706D01*
X119215213Y-79459691D01*
X119219862Y-79469809D01*
X119237038Y-79492150D01*
X119263560Y-79522720D01*
X119278036Y-79538464D01*
X119353318Y-79634953D01*
X119408759Y-79741664D01*
X119443859Y-79857168D01*
X119458120Y-79980038D01*
X119456949Y-80049439D01*
X119439788Y-80170577D01*
X119403906Y-80279795D01*
X119349041Y-80377418D01*
X119274930Y-80463772D01*
X119181312Y-80539185D01*
X119067924Y-80603982D01*
X118981333Y-80641399D01*
X118845634Y-80685252D01*
X118698150Y-80717572D01*
X118542686Y-80738443D01*
X118383044Y-80747949D01*
X118223027Y-80746173D01*
X118066439Y-80733197D01*
X117917082Y-80709106D01*
X117778760Y-80673982D01*
X117655276Y-80627908D01*
X117621022Y-80611627D01*
X117506936Y-80543380D01*
X117410443Y-80462921D01*
X117332330Y-80371430D01*
X117273383Y-80270089D01*
X117234388Y-80160080D01*
X117216132Y-80042585D01*
X117214789Y-80001117D01*
X117225710Y-79879559D01*
X117258526Y-79759122D01*
X117312561Y-79641334D01*
X117387135Y-79527723D01*
X117465461Y-79436315D01*
X117509992Y-79389785D01*
X117212729Y-79208517D01*
X117138567Y-79163420D01*
X117070354Y-79122181D01*
X117010541Y-79086265D01*
X116961580Y-79057134D01*
X116925921Y-79036250D01*
X116906016Y-79025076D01*
X116902921Y-79023625D01*
X116893282Y-79031854D01*
X116876001Y-79057433D01*
X116852717Y-79097127D01*
X116825066Y-79147703D01*
X116794685Y-79205926D01*
X116763210Y-79268563D01*
X116732278Y-79332379D01*
X116703527Y-79394140D01*
X116678592Y-79450612D01*
X116659111Y-79498562D01*
X116650682Y-79522014D01*
X116612867Y-79655779D01*
X116587864Y-79793673D01*
X116574860Y-79941378D01*
X116572532Y-80068167D01*
X116573627Y-80136122D01*
X116575725Y-80201723D01*
X116578566Y-80259153D01*
X116581894Y-80302597D01*
X116583578Y-80316702D01*
X116612413Y-80455716D01*
X116657532Y-80597243D01*
X116716250Y-80734725D01*
X116785880Y-80861606D01*
X116838559Y-80939111D01*
X116946761Y-81066519D01*
X117073329Y-81184822D01*
X117215134Y-81291828D01*
X117369049Y-81385348D01*
X117531947Y-81463190D01*
X117649244Y-81507044D01*
X117832872Y-81557292D01*
X118027419Y-81590791D01*
X118228675Y-81607551D01*
X118432432Y-81607584D01*
X118634479Y-81590899D01*
X118830608Y-81557507D01*
X119016609Y-81507420D01*
X119028197Y-81503603D01*
X119190250Y-81440719D01*
X119338168Y-81363972D01*
X119476135Y-81270758D01*
X119608339Y-81158473D01*
X119653601Y-81114608D01*
X119777543Y-80978466D01*
X119880085Y-80838509D01*
X119962344Y-80692589D01*
X120025436Y-80538558D01*
X120070477Y-80374268D01*
X120087967Y-80278711D01*
X120103534Y-80119977D01*
X120100929Y-79961571D01*
G37*
X120100929Y-79961571D02*
X120079755Y-79801430D01*
X120039615Y-79637490D01*
X119980111Y-79467687D01*
X119900846Y-79289957D01*
X119895301Y-79278690D01*
X119867275Y-79220995D01*
X119843198Y-79169448D01*
X119824751Y-79127809D01*
X119813614Y-79099838D01*
X119811067Y-79090267D01*
X119806059Y-79071050D01*
X119801853Y-79066439D01*
X119791420Y-79071542D01*
X119765132Y-79087582D01*
X119725743Y-79112712D01*
X119676009Y-79145086D01*
X119618685Y-79182857D01*
X119556524Y-79224178D01*
X119492282Y-79267202D01*
X119428715Y-79310083D01*
X119368575Y-79350974D01*
X119314620Y-79388029D01*
X119269603Y-79419400D01*
X119236279Y-79443241D01*
X119217403Y-79457706D01*
X119215213Y-79459691D01*
X119219862Y-79469809D01*
X119237038Y-79492150D01*
X119263560Y-79522720D01*
X119278036Y-79538464D01*
X119353318Y-79634953D01*
X119408759Y-79741664D01*
X119443859Y-79857168D01*
X119458120Y-79980038D01*
X119456949Y-80049439D01*
X119439788Y-80170577D01*
X119403906Y-80279795D01*
X119349041Y-80377418D01*
X119274930Y-80463772D01*
X119181312Y-80539185D01*
X119067924Y-80603982D01*
X118981333Y-80641399D01*
X118845634Y-80685252D01*
X118698150Y-80717572D01*
X118542686Y-80738443D01*
X118383044Y-80747949D01*
X118223027Y-80746173D01*
X118066439Y-80733197D01*
X117917082Y-80709106D01*
X117778760Y-80673982D01*
X117655276Y-80627908D01*
X117621022Y-80611627D01*
X117506936Y-80543380D01*
X117410443Y-80462921D01*
X117332330Y-80371430D01*
X117273383Y-80270089D01*
X117234388Y-80160080D01*
X117216132Y-80042585D01*
X117214789Y-80001117D01*
X117225710Y-79879559D01*
X117258526Y-79759122D01*
X117312561Y-79641334D01*
X117387135Y-79527723D01*
X117465461Y-79436315D01*
X117509992Y-79389785D01*
X117212729Y-79208517D01*
X117138567Y-79163420D01*
X117070354Y-79122181D01*
X117010541Y-79086265D01*
X116961580Y-79057134D01*
X116925921Y-79036250D01*
X116906016Y-79025076D01*
X116902921Y-79023625D01*
X116893282Y-79031854D01*
X116876001Y-79057433D01*
X116852717Y-79097127D01*
X116825066Y-79147703D01*
X116794685Y-79205926D01*
X116763210Y-79268563D01*
X116732278Y-79332379D01*
X116703527Y-79394140D01*
X116678592Y-79450612D01*
X116659111Y-79498562D01*
X116650682Y-79522014D01*
X116612867Y-79655779D01*
X116587864Y-79793673D01*
X116574860Y-79941378D01*
X116572532Y-80068167D01*
X116573627Y-80136122D01*
X116575725Y-80201723D01*
X116578566Y-80259153D01*
X116581894Y-80302597D01*
X116583578Y-80316702D01*
X116612413Y-80455716D01*
X116657532Y-80597243D01*
X116716250Y-80734725D01*
X116785880Y-80861606D01*
X116838559Y-80939111D01*
X116946761Y-81066519D01*
X117073329Y-81184822D01*
X117215134Y-81291828D01*
X117369049Y-81385348D01*
X117531947Y-81463190D01*
X117649244Y-81507044D01*
X117832872Y-81557292D01*
X118027419Y-81590791D01*
X118228675Y-81607551D01*
X118432432Y-81607584D01*
X118634479Y-81590899D01*
X118830608Y-81557507D01*
X119016609Y-81507420D01*
X119028197Y-81503603D01*
X119190250Y-81440719D01*
X119338168Y-81363972D01*
X119476135Y-81270758D01*
X119608339Y-81158473D01*
X119653601Y-81114608D01*
X119777543Y-80978466D01*
X119880085Y-80838509D01*
X119962344Y-80692589D01*
X120025436Y-80538558D01*
X120070477Y-80374268D01*
X120087967Y-80278711D01*
X120103534Y-80119977D01*
X120100929Y-79961571D01*
G36*
X120560946Y-83236400D02*
G01*
X120447007Y-83225535D01*
X120339384Y-83193918D01*
X120240385Y-83143015D01*
X120152316Y-83074293D01*
X120077484Y-82989219D01*
X120019616Y-82892232D01*
X119979995Y-82785964D01*
X119961427Y-82678950D01*
X119962566Y-82573300D01*
X119982070Y-82471125D01*
X120018594Y-82374534D01*
X120070795Y-82285638D01*
X120137327Y-82206546D01*
X120216848Y-82139369D01*
X120308013Y-82086217D01*
X120409477Y-82049199D01*
X120519898Y-82030427D01*
X120569794Y-82028489D01*
X120657733Y-82028489D01*
X120657733Y-81976560D01*
X120654889Y-81940253D01*
X120643089Y-81913355D01*
X120619351Y-81886249D01*
X120580969Y-81847867D01*
X118389398Y-81847867D01*
X118127261Y-81847876D01*
X117886759Y-81847908D01*
X117666952Y-81847972D01*
X117466899Y-81848076D01*
X117285656Y-81848227D01*
X117122284Y-81848434D01*
X116975840Y-81848706D01*
X116845383Y-81849050D01*
X116729971Y-81849474D01*
X116628662Y-81849987D01*
X116540516Y-81850597D01*
X116464590Y-81851312D01*
X116399943Y-81852140D01*
X116345633Y-81853089D01*
X116300720Y-81854167D01*
X116264260Y-81855383D01*
X116235313Y-81856745D01*
X116212937Y-81858261D01*
X116196191Y-81859938D01*
X116184132Y-81861786D01*
X116175820Y-81863813D01*
X116170313Y-81866025D01*
X116168463Y-81867108D01*
X116161451Y-81871271D01*
X116155004Y-81874805D01*
X116149100Y-81878635D01*
X116143714Y-81883682D01*
X116138822Y-81890871D01*
X116134402Y-81901123D01*
X116130428Y-81915364D01*
X116126879Y-81934514D01*
X116123730Y-81959499D01*
X116120958Y-81991240D01*
X116118539Y-82030662D01*
X116116449Y-82078686D01*
X116114665Y-82136237D01*
X116113163Y-82204237D01*
X116111920Y-82283610D01*
X116110911Y-82375279D01*
X116110115Y-82480166D01*
X116109506Y-82599196D01*
X116109061Y-82733290D01*
X116108757Y-82883373D01*
X116108570Y-83050367D01*
X116108476Y-83235196D01*
X116108452Y-83438783D01*
X116108475Y-83662050D01*
X116108520Y-83905922D01*
X116108563Y-84171321D01*
X116108568Y-84209704D01*
X116108611Y-84476682D01*
X116108682Y-84722002D01*
X116108787Y-84946583D01*
X116108934Y-85151345D01*
X116109131Y-85337206D01*
X116109384Y-85505088D01*
X116109700Y-85655908D01*
X116110087Y-85790587D01*
X116110553Y-85910044D01*
X116111103Y-86015199D01*
X116111747Y-86106971D01*
X116112489Y-86186279D01*
X116113339Y-86254043D01*
X116114303Y-86311182D01*
X116115389Y-86358617D01*
X116116603Y-86397266D01*
X116117953Y-86428049D01*
X116119445Y-86451885D01*
X116121089Y-86469694D01*
X116122889Y-86482395D01*
X116124855Y-86490908D01*
X116126523Y-86495266D01*
X116130094Y-86503728D01*
X116132730Y-86511497D01*
X116135366Y-86518602D01*
X116138938Y-86525073D01*
X116144379Y-86530939D01*
X116152625Y-86536229D01*
X116164610Y-86540974D01*
X116181269Y-86545202D01*
X116203537Y-86548943D01*
X116232348Y-86552227D01*
X116268637Y-86555083D01*
X116313339Y-86557540D01*
X116367389Y-86559629D01*
X116431721Y-86561378D01*
X116507270Y-86562817D01*
X116594970Y-86563976D01*
X116695757Y-86564883D01*
X116810566Y-86565569D01*
X116940330Y-86566063D01*
X117085985Y-86566395D01*
X117248465Y-86566593D01*
X117428705Y-86566687D01*
X117627640Y-86566708D01*
X117846204Y-86566685D01*
X118085332Y-86566646D01*
X118345960Y-86566622D01*
X118388111Y-86566622D01*
X118651008Y-86566636D01*
X118892268Y-86566661D01*
X119112835Y-86566671D01*
X119313648Y-86566642D01*
X119495651Y-86566548D01*
X119659784Y-86566362D01*
X119806989Y-86566059D01*
X119938208Y-86565614D01*
X120048133Y-86565034D01*
X120048133Y-86262197D01*
X119990289Y-86222407D01*
X119974521Y-86211236D01*
X119960559Y-86201166D01*
X119947216Y-86192138D01*
X119933307Y-86184097D01*
X119917644Y-86176986D01*
X119899042Y-86170747D01*
X119876314Y-86165325D01*
X119848273Y-86160662D01*
X119813733Y-86156701D01*
X119771508Y-86153385D01*
X119720411Y-86150659D01*
X119659256Y-86148464D01*
X119586856Y-86146745D01*
X119502025Y-86145444D01*
X119403578Y-86144505D01*
X119290326Y-86143870D01*
X119161084Y-86143484D01*
X119014666Y-86143288D01*
X118849884Y-86143227D01*
X118665553Y-86143243D01*
X118460487Y-86143280D01*
X118337867Y-86143289D01*
X118120918Y-86143265D01*
X117925358Y-86143231D01*
X117750001Y-86143243D01*
X117593659Y-86143358D01*
X117455143Y-86143630D01*
X117333266Y-86144118D01*
X117226840Y-86144876D01*
X117134678Y-86145962D01*
X117055591Y-86147431D01*
X116988392Y-86149340D01*
X116931893Y-86151744D01*
X116884907Y-86154701D01*
X116846245Y-86158266D01*
X116814720Y-86162495D01*
X116789145Y-86167446D01*
X116768330Y-86173173D01*
X116751089Y-86179733D01*
X116736235Y-86187183D01*
X116722578Y-86195579D01*
X116708931Y-86204976D01*
X116694107Y-86215432D01*
X116685217Y-86221523D01*
X116627600Y-86260296D01*
X116627600Y-85728732D01*
X116627635Y-85605483D01*
X116627785Y-85502987D01*
X116628122Y-85419420D01*
X116628714Y-85352956D01*
X116629633Y-85301771D01*
X116630949Y-85264041D01*
X116632731Y-85237940D01*
X116635049Y-85221644D01*
X116637974Y-85213328D01*
X116641576Y-85211168D01*
X116645925Y-85213339D01*
X116647355Y-85214535D01*
X116684427Y-85239685D01*
X116737228Y-85265583D01*
X116799230Y-85289192D01*
X116825643Y-85297461D01*
X116843584Y-85302078D01*
X116864645Y-85305979D01*
X116890911Y-85309248D01*
X116924468Y-85311966D01*
X116967401Y-85314215D01*
X117021796Y-85316077D01*
X117089738Y-85317636D01*
X117173312Y-85318972D01*
X117274605Y-85320169D01*
X117395700Y-85321308D01*
X117440400Y-85321685D01*
X117565551Y-85322702D01*
X117669918Y-85323460D01*
X117755293Y-85323903D01*
X117823467Y-85323970D01*
X117876235Y-85323605D01*
X117915386Y-85322748D01*
X117942715Y-85321341D01*
X117960014Y-85319325D01*
X117969074Y-85316643D01*
X117971688Y-85313236D01*
X117969649Y-85309044D01*
X117965333Y-85304571D01*
X117952398Y-85294216D01*
X117923324Y-85272158D01*
X117880241Y-85239957D01*
X117825282Y-85199174D01*
X117760577Y-85151370D01*
X117688258Y-85098105D01*
X117610456Y-85040940D01*
X117529302Y-84981437D01*
X117446928Y-84921155D01*
X117365464Y-84861655D01*
X117287043Y-84804498D01*
X117213796Y-84751245D01*
X117147853Y-84703457D01*
X117091346Y-84662693D01*
X117046407Y-84630516D01*
X117015166Y-84608485D01*
X117008534Y-84603917D01*
X116971631Y-84580996D01*
X116923641Y-84554188D01*
X116874103Y-84528789D01*
X116867423Y-84525568D01*
X116819228Y-84503890D01*
X116781666Y-84491304D01*
X116745840Y-84485574D01*
X116703800Y-84484456D01*
X116627600Y-84485090D01*
X116627600Y-83330651D01*
X116721331Y-83421815D01*
X116771225Y-83468612D01*
X116827705Y-83518899D01*
X116881974Y-83564944D01*
X116907327Y-83585369D01*
X116946872Y-83615807D01*
X117000084Y-83655862D01*
X117065333Y-83704361D01*
X117140989Y-83760135D01*
X117225423Y-83822011D01*
X117317006Y-83888819D01*
X117414108Y-83959387D01*
X117515099Y-84032545D01*
X117618350Y-84107121D01*
X117722232Y-84181944D01*
X117825115Y-84255843D01*
X117925369Y-84327646D01*
X118021364Y-84396184D01*
X118111473Y-84460284D01*
X118194064Y-84518775D01*
X118267508Y-84570486D01*
X118330176Y-84614247D01*
X118380439Y-84648885D01*
X118416666Y-84673230D01*
X118437229Y-84686111D01*
X118441332Y-84687869D01*
X118452658Y-84679910D01*
X118479838Y-84659115D01*
X118521171Y-84626847D01*
X118574956Y-84584470D01*
X118639494Y-84533347D01*
X118713082Y-84474841D01*
X118794022Y-84410314D01*
X118880612Y-84341131D01*
X118971152Y-84268653D01*
X119063940Y-84194246D01*
X119138298Y-84134517D01*
X119138298Y-83123511D01*
X119125341Y-83117602D01*
X119103092Y-83103272D01*
X119101609Y-83102225D01*
X119071456Y-83083438D01*
X119034625Y-83063791D01*
X119026489Y-83059892D01*
X119018060Y-83056356D01*
X119007941Y-83053230D01*
X118994740Y-83050486D01*
X118977062Y-83048092D01*
X118953516Y-83046019D01*
X118922707Y-83044235D01*
X118883243Y-83042712D01*
X118833731Y-83041419D01*
X118772777Y-83040326D01*
X118698989Y-83039403D01*
X118610972Y-83038619D01*
X118507335Y-83037945D01*
X118386684Y-83037350D01*
X118247626Y-83036805D01*
X118088768Y-83036279D01*
X117909911Y-83035745D01*
X117724793Y-83035206D01*
X117560855Y-83034772D01*
X117416697Y-83034509D01*
X117290921Y-83034484D01*
X117182129Y-83034765D01*
X117088923Y-83035419D01*
X117009903Y-83036514D01*
X116943672Y-83038118D01*
X116888830Y-83040297D01*
X116843979Y-83043119D01*
X116807722Y-83046651D01*
X116778659Y-83050961D01*
X116755391Y-83056117D01*
X116736521Y-83062185D01*
X116720649Y-83069233D01*
X116706378Y-83077329D01*
X116692309Y-83086540D01*
X116679842Y-83095040D01*
X116653548Y-83112176D01*
X116635963Y-83122322D01*
X116632743Y-83123511D01*
X116631666Y-83112604D01*
X116630665Y-83081411D01*
X116629765Y-83032223D01*
X116628990Y-82967333D01*
X116628363Y-82889030D01*
X116627909Y-82799607D01*
X116627651Y-82701356D01*
X116627600Y-82632445D01*
X116627820Y-82527452D01*
X116628452Y-82430610D01*
X116629451Y-82344107D01*
X116630773Y-82270132D01*
X116632374Y-82210874D01*
X116634209Y-82168520D01*
X116636235Y-82145260D01*
X116637507Y-82141378D01*
X116652409Y-82149076D01*
X116660440Y-82157074D01*
X116677566Y-82170246D01*
X116707817Y-82187485D01*
X116732378Y-82199407D01*
X116791289Y-82226045D01*
X117968155Y-82229120D01*
X119145022Y-82232195D01*
X119145022Y-82677853D01*
X119144858Y-82775670D01*
X119144389Y-82866064D01*
X119143653Y-82946630D01*
X119142684Y-83014962D01*
X119141520Y-83068656D01*
X119140197Y-83105305D01*
X119138751Y-83122504D01*
X119138298Y-83123511D01*
X119138298Y-84134517D01*
X119157278Y-84119270D01*
X119249463Y-84045090D01*
X119338796Y-83973069D01*
X119423576Y-83904569D01*
X119502102Y-83840955D01*
X119572674Y-83783588D01*
X119633591Y-83733833D01*
X119683153Y-83693052D01*
X119703822Y-83675888D01*
X119804484Y-83589596D01*
X119887741Y-83512997D01*
X119955562Y-83444183D01*
X120009911Y-83381248D01*
X120017278Y-83371867D01*
X120047883Y-83332356D01*
X120048133Y-84464116D01*
X120000156Y-84458827D01*
X119942812Y-84462130D01*
X119874537Y-84483661D01*
X119794788Y-84523635D01*
X119722505Y-84568943D01*
X119699860Y-84585161D01*
X119662304Y-84613214D01*
X119611979Y-84651430D01*
X119551027Y-84698137D01*
X119481589Y-84751661D01*
X119405806Y-84810331D01*
X119325820Y-84872475D01*
X119243772Y-84936421D01*
X119161804Y-85000495D01*
X119082057Y-85063027D01*
X119006673Y-85122343D01*
X118937793Y-85176771D01*
X118877558Y-85224639D01*
X118828111Y-85264275D01*
X118791592Y-85294006D01*
X118770142Y-85312161D01*
X118766844Y-85315220D01*
X118774851Y-85318079D01*
X118805145Y-85320293D01*
X118857444Y-85321857D01*
X118931469Y-85322767D01*
X119026937Y-85323020D01*
X119143566Y-85322613D01*
X119263555Y-85321704D01*
X119395667Y-85320382D01*
X119507406Y-85318857D01*
X119600975Y-85316881D01*
X119678581Y-85314206D01*
X119742426Y-85310582D01*
X119794717Y-85305761D01*
X119837656Y-85299494D01*
X119873449Y-85291532D01*
X119904300Y-85281627D01*
X119932414Y-85269531D01*
X119959995Y-85254993D01*
X119985034Y-85240311D01*
X120048133Y-85202314D01*
X120048133Y-86262197D01*
X120048133Y-86565034D01*
X120054383Y-86565001D01*
X120156456Y-86564195D01*
X120245367Y-86563170D01*
X120322059Y-86561900D01*
X120387473Y-86560360D01*
X120442551Y-86558524D01*
X120488235Y-86556367D01*
X120525466Y-86553863D01*
X120555187Y-86550987D01*
X120578338Y-86547713D01*
X120595861Y-86544015D01*
X120608699Y-86539869D01*
X120617792Y-86535247D01*
X120624082Y-86530126D01*
X120628512Y-86524478D01*
X120632022Y-86518279D01*
X120635555Y-86511504D01*
X120639124Y-86505508D01*
X120641700Y-86500275D01*
X120644028Y-86492099D01*
X120646122Y-86479886D01*
X120647993Y-86462541D01*
X120649653Y-86438969D01*
X120651116Y-86408077D01*
X120652392Y-86368768D01*
X120653496Y-86319950D01*
X120654439Y-86260527D01*
X120655233Y-86189404D01*
X120655891Y-86105488D01*
X120656425Y-86007683D01*
X120656847Y-85894894D01*
X120657171Y-85766029D01*
X120657408Y-85619991D01*
X120657570Y-85455686D01*
X120657670Y-85272020D01*
X120657720Y-85067897D01*
X120657733Y-84856753D01*
X120657733Y-83236400D01*
X120560946Y-83236400D01*
G37*
X120560946Y-83236400D02*
X120447007Y-83225535D01*
X120339384Y-83193918D01*
X120240385Y-83143015D01*
X120152316Y-83074293D01*
X120077484Y-82989219D01*
X120019616Y-82892232D01*
X119979995Y-82785964D01*
X119961427Y-82678950D01*
X119962566Y-82573300D01*
X119982070Y-82471125D01*
X120018594Y-82374534D01*
X120070795Y-82285638D01*
X120137327Y-82206546D01*
X120216848Y-82139369D01*
X120308013Y-82086217D01*
X120409477Y-82049199D01*
X120519898Y-82030427D01*
X120569794Y-82028489D01*
X120657733Y-82028489D01*
X120657733Y-81976560D01*
X120654889Y-81940253D01*
X120643089Y-81913355D01*
X120619351Y-81886249D01*
X120580969Y-81847867D01*
X118389398Y-81847867D01*
X118127261Y-81847876D01*
X117886759Y-81847908D01*
X117666952Y-81847972D01*
X117466899Y-81848076D01*
X117285656Y-81848227D01*
X117122284Y-81848434D01*
X116975840Y-81848706D01*
X116845383Y-81849050D01*
X116729971Y-81849474D01*
X116628662Y-81849987D01*
X116540516Y-81850597D01*
X116464590Y-81851312D01*
X116399943Y-81852140D01*
X116345633Y-81853089D01*
X116300720Y-81854167D01*
X116264260Y-81855383D01*
X116235313Y-81856745D01*
X116212937Y-81858261D01*
X116196191Y-81859938D01*
X116184132Y-81861786D01*
X116175820Y-81863813D01*
X116170313Y-81866025D01*
X116168463Y-81867108D01*
X116161451Y-81871271D01*
X116155004Y-81874805D01*
X116149100Y-81878635D01*
X116143714Y-81883682D01*
X116138822Y-81890871D01*
X116134402Y-81901123D01*
X116130428Y-81915364D01*
X116126879Y-81934514D01*
X116123730Y-81959499D01*
X116120958Y-81991240D01*
X116118539Y-82030662D01*
X116116449Y-82078686D01*
X116114665Y-82136237D01*
X116113163Y-82204237D01*
X116111920Y-82283610D01*
X116110911Y-82375279D01*
X116110115Y-82480166D01*
X116109506Y-82599196D01*
X116109061Y-82733290D01*
X116108757Y-82883373D01*
X116108570Y-83050367D01*
X116108476Y-83235196D01*
X116108452Y-83438783D01*
X116108475Y-83662050D01*
X116108520Y-83905922D01*
X116108563Y-84171321D01*
X116108568Y-84209704D01*
X116108611Y-84476682D01*
X116108682Y-84722002D01*
X116108787Y-84946583D01*
X116108934Y-85151345D01*
X116109131Y-85337206D01*
X116109384Y-85505088D01*
X116109700Y-85655908D01*
X116110087Y-85790587D01*
X116110553Y-85910044D01*
X116111103Y-86015199D01*
X116111747Y-86106971D01*
X116112489Y-86186279D01*
X116113339Y-86254043D01*
X116114303Y-86311182D01*
X116115389Y-86358617D01*
X116116603Y-86397266D01*
X116117953Y-86428049D01*
X116119445Y-86451885D01*
X116121089Y-86469694D01*
X116122889Y-86482395D01*
X116124855Y-86490908D01*
X116126523Y-86495266D01*
X116130094Y-86503728D01*
X116132730Y-86511497D01*
X116135366Y-86518602D01*
X116138938Y-86525073D01*
X116144379Y-86530939D01*
X116152625Y-86536229D01*
X116164610Y-86540974D01*
X116181269Y-86545202D01*
X116203537Y-86548943D01*
X116232348Y-86552227D01*
X116268637Y-86555083D01*
X116313339Y-86557540D01*
X116367389Y-86559629D01*
X116431721Y-86561378D01*
X116507270Y-86562817D01*
X116594970Y-86563976D01*
X116695757Y-86564883D01*
X116810566Y-86565569D01*
X116940330Y-86566063D01*
X117085985Y-86566395D01*
X117248465Y-86566593D01*
X117428705Y-86566687D01*
X117627640Y-86566708D01*
X117846204Y-86566685D01*
X118085332Y-86566646D01*
X118345960Y-86566622D01*
X118388111Y-86566622D01*
X118651008Y-86566636D01*
X118892268Y-86566661D01*
X119112835Y-86566671D01*
X119313648Y-86566642D01*
X119495651Y-86566548D01*
X119659784Y-86566362D01*
X119806989Y-86566059D01*
X119938208Y-86565614D01*
X120048133Y-86565034D01*
X120048133Y-86262197D01*
X119990289Y-86222407D01*
X119974521Y-86211236D01*
X119960559Y-86201166D01*
X119947216Y-86192138D01*
X119933307Y-86184097D01*
X119917644Y-86176986D01*
X119899042Y-86170747D01*
X119876314Y-86165325D01*
X119848273Y-86160662D01*
X119813733Y-86156701D01*
X119771508Y-86153385D01*
X119720411Y-86150659D01*
X119659256Y-86148464D01*
X119586856Y-86146745D01*
X119502025Y-86145444D01*
X119403578Y-86144505D01*
X119290326Y-86143870D01*
X119161084Y-86143484D01*
X119014666Y-86143288D01*
X118849884Y-86143227D01*
X118665553Y-86143243D01*
X118460487Y-86143280D01*
X118337867Y-86143289D01*
X118120918Y-86143265D01*
X117925358Y-86143231D01*
X117750001Y-86143243D01*
X117593659Y-86143358D01*
X117455143Y-86143630D01*
X117333266Y-86144118D01*
X117226840Y-86144876D01*
X117134678Y-86145962D01*
X117055591Y-86147431D01*
X116988392Y-86149340D01*
X116931893Y-86151744D01*
X116884907Y-86154701D01*
X116846245Y-86158266D01*
X116814720Y-86162495D01*
X116789145Y-86167446D01*
X116768330Y-86173173D01*
X116751089Y-86179733D01*
X116736235Y-86187183D01*
X116722578Y-86195579D01*
X116708931Y-86204976D01*
X116694107Y-86215432D01*
X116685217Y-86221523D01*
X116627600Y-86260296D01*
X116627600Y-85728732D01*
X116627635Y-85605483D01*
X116627785Y-85502987D01*
X116628122Y-85419420D01*
X116628714Y-85352956D01*
X116629633Y-85301771D01*
X116630949Y-85264041D01*
X116632731Y-85237940D01*
X116635049Y-85221644D01*
X116637974Y-85213328D01*
X116641576Y-85211168D01*
X116645925Y-85213339D01*
X116647355Y-85214535D01*
X116684427Y-85239685D01*
X116737228Y-85265583D01*
X116799230Y-85289192D01*
X116825643Y-85297461D01*
X116843584Y-85302078D01*
X116864645Y-85305979D01*
X116890911Y-85309248D01*
X116924468Y-85311966D01*
X116967401Y-85314215D01*
X117021796Y-85316077D01*
X117089738Y-85317636D01*
X117173312Y-85318972D01*
X117274605Y-85320169D01*
X117395700Y-85321308D01*
X117440400Y-85321685D01*
X117565551Y-85322702D01*
X117669918Y-85323460D01*
X117755293Y-85323903D01*
X117823467Y-85323970D01*
X117876235Y-85323605D01*
X117915386Y-85322748D01*
X117942715Y-85321341D01*
X117960014Y-85319325D01*
X117969074Y-85316643D01*
X117971688Y-85313236D01*
X117969649Y-85309044D01*
X117965333Y-85304571D01*
X117952398Y-85294216D01*
X117923324Y-85272158D01*
X117880241Y-85239957D01*
X117825282Y-85199174D01*
X117760577Y-85151370D01*
X117688258Y-85098105D01*
X117610456Y-85040940D01*
X117529302Y-84981437D01*
X117446928Y-84921155D01*
X117365464Y-84861655D01*
X117287043Y-84804498D01*
X117213796Y-84751245D01*
X117147853Y-84703457D01*
X117091346Y-84662693D01*
X117046407Y-84630516D01*
X117015166Y-84608485D01*
X117008534Y-84603917D01*
X116971631Y-84580996D01*
X116923641Y-84554188D01*
X116874103Y-84528789D01*
X116867423Y-84525568D01*
X116819228Y-84503890D01*
X116781666Y-84491304D01*
X116745840Y-84485574D01*
X116703800Y-84484456D01*
X116627600Y-84485090D01*
X116627600Y-83330651D01*
X116721331Y-83421815D01*
X116771225Y-83468612D01*
X116827705Y-83518899D01*
X116881974Y-83564944D01*
X116907327Y-83585369D01*
X116946872Y-83615807D01*
X117000084Y-83655862D01*
X117065333Y-83704361D01*
X117140989Y-83760135D01*
X117225423Y-83822011D01*
X117317006Y-83888819D01*
X117414108Y-83959387D01*
X117515099Y-84032545D01*
X117618350Y-84107121D01*
X117722232Y-84181944D01*
X117825115Y-84255843D01*
X117925369Y-84327646D01*
X118021364Y-84396184D01*
X118111473Y-84460284D01*
X118194064Y-84518775D01*
X118267508Y-84570486D01*
X118330176Y-84614247D01*
X118380439Y-84648885D01*
X118416666Y-84673230D01*
X118437229Y-84686111D01*
X118441332Y-84687869D01*
X118452658Y-84679910D01*
X118479838Y-84659115D01*
X118521171Y-84626847D01*
X118574956Y-84584470D01*
X118639494Y-84533347D01*
X118713082Y-84474841D01*
X118794022Y-84410314D01*
X118880612Y-84341131D01*
X118971152Y-84268653D01*
X119063940Y-84194246D01*
X119138298Y-84134517D01*
X119138298Y-83123511D01*
X119125341Y-83117602D01*
X119103092Y-83103272D01*
X119101609Y-83102225D01*
X119071456Y-83083438D01*
X119034625Y-83063791D01*
X119026489Y-83059892D01*
X119018060Y-83056356D01*
X119007941Y-83053230D01*
X118994740Y-83050486D01*
X118977062Y-83048092D01*
X118953516Y-83046019D01*
X118922707Y-83044235D01*
X118883243Y-83042712D01*
X118833731Y-83041419D01*
X118772777Y-83040326D01*
X118698989Y-83039403D01*
X118610972Y-83038619D01*
X118507335Y-83037945D01*
X118386684Y-83037350D01*
X118247626Y-83036805D01*
X118088768Y-83036279D01*
X117909911Y-83035745D01*
X117724793Y-83035206D01*
X117560855Y-83034772D01*
X117416697Y-83034509D01*
X117290921Y-83034484D01*
X117182129Y-83034765D01*
X117088923Y-83035419D01*
X117009903Y-83036514D01*
X116943672Y-83038118D01*
X116888830Y-83040297D01*
X116843979Y-83043119D01*
X116807722Y-83046651D01*
X116778659Y-83050961D01*
X116755391Y-83056117D01*
X116736521Y-83062185D01*
X116720649Y-83069233D01*
X116706378Y-83077329D01*
X116692309Y-83086540D01*
X116679842Y-83095040D01*
X116653548Y-83112176D01*
X116635963Y-83122322D01*
X116632743Y-83123511D01*
X116631666Y-83112604D01*
X116630665Y-83081411D01*
X116629765Y-83032223D01*
X116628990Y-82967333D01*
X116628363Y-82889030D01*
X116627909Y-82799607D01*
X116627651Y-82701356D01*
X116627600Y-82632445D01*
X116627820Y-82527452D01*
X116628452Y-82430610D01*
X116629451Y-82344107D01*
X116630773Y-82270132D01*
X116632374Y-82210874D01*
X116634209Y-82168520D01*
X116636235Y-82145260D01*
X116637507Y-82141378D01*
X116652409Y-82149076D01*
X116660440Y-82157074D01*
X116677566Y-82170246D01*
X116707817Y-82187485D01*
X116732378Y-82199407D01*
X116791289Y-82226045D01*
X117968155Y-82229120D01*
X119145022Y-82232195D01*
X119145022Y-82677853D01*
X119144858Y-82775670D01*
X119144389Y-82866064D01*
X119143653Y-82946630D01*
X119142684Y-83014962D01*
X119141520Y-83068656D01*
X119140197Y-83105305D01*
X119138751Y-83122504D01*
X119138298Y-83123511D01*
X119138298Y-84134517D01*
X119157278Y-84119270D01*
X119249463Y-84045090D01*
X119338796Y-83973069D01*
X119423576Y-83904569D01*
X119502102Y-83840955D01*
X119572674Y-83783588D01*
X119633591Y-83733833D01*
X119683153Y-83693052D01*
X119703822Y-83675888D01*
X119804484Y-83589596D01*
X119887741Y-83512997D01*
X119955562Y-83444183D01*
X120009911Y-83381248D01*
X120017278Y-83371867D01*
X120047883Y-83332356D01*
X120048133Y-84464116D01*
X120000156Y-84458827D01*
X119942812Y-84462130D01*
X119874537Y-84483661D01*
X119794788Y-84523635D01*
X119722505Y-84568943D01*
X119699860Y-84585161D01*
X119662304Y-84613214D01*
X119611979Y-84651430D01*
X119551027Y-84698137D01*
X119481589Y-84751661D01*
X119405806Y-84810331D01*
X119325820Y-84872475D01*
X119243772Y-84936421D01*
X119161804Y-85000495D01*
X119082057Y-85063027D01*
X119006673Y-85122343D01*
X118937793Y-85176771D01*
X118877558Y-85224639D01*
X118828111Y-85264275D01*
X118791592Y-85294006D01*
X118770142Y-85312161D01*
X118766844Y-85315220D01*
X118774851Y-85318079D01*
X118805145Y-85320293D01*
X118857444Y-85321857D01*
X118931469Y-85322767D01*
X119026937Y-85323020D01*
X119143566Y-85322613D01*
X119263555Y-85321704D01*
X119395667Y-85320382D01*
X119507406Y-85318857D01*
X119600975Y-85316881D01*
X119678581Y-85314206D01*
X119742426Y-85310582D01*
X119794717Y-85305761D01*
X119837656Y-85299494D01*
X119873449Y-85291532D01*
X119904300Y-85281627D01*
X119932414Y-85269531D01*
X119959995Y-85254993D01*
X119985034Y-85240311D01*
X120048133Y-85202314D01*
X120048133Y-86262197D01*
X120048133Y-86565034D01*
X120054383Y-86565001D01*
X120156456Y-86564195D01*
X120245367Y-86563170D01*
X120322059Y-86561900D01*
X120387473Y-86560360D01*
X120442551Y-86558524D01*
X120488235Y-86556367D01*
X120525466Y-86553863D01*
X120555187Y-86550987D01*
X120578338Y-86547713D01*
X120595861Y-86544015D01*
X120608699Y-86539869D01*
X120617792Y-86535247D01*
X120624082Y-86530126D01*
X120628512Y-86524478D01*
X120632022Y-86518279D01*
X120635555Y-86511504D01*
X120639124Y-86505508D01*
X120641700Y-86500275D01*
X120644028Y-86492099D01*
X120646122Y-86479886D01*
X120647993Y-86462541D01*
X120649653Y-86438969D01*
X120651116Y-86408077D01*
X120652392Y-86368768D01*
X120653496Y-86319950D01*
X120654439Y-86260527D01*
X120655233Y-86189404D01*
X120655891Y-86105488D01*
X120656425Y-86007683D01*
X120656847Y-85894894D01*
X120657171Y-85766029D01*
X120657408Y-85619991D01*
X120657570Y-85455686D01*
X120657670Y-85272020D01*
X120657720Y-85067897D01*
X120657733Y-84856753D01*
X120657733Y-83236400D01*
X120560946Y-83236400D01*
G36*
X115775467Y-74061177D02*
G01*
X115753224Y-74029798D01*
X115725515Y-74002089D01*
X115416080Y-74002089D01*
X115324201Y-74002162D01*
X115252160Y-74002505D01*
X115197220Y-74003308D01*
X115156640Y-74004759D01*
X115127683Y-74007048D01*
X115107609Y-74010364D01*
X115093679Y-74014895D01*
X115083155Y-74020831D01*
X115076900Y-74025486D01*
X115052327Y-74056217D01*
X115049659Y-74091504D01*
X115064729Y-74123755D01*
X115073626Y-74134412D01*
X115085443Y-74141536D01*
X115104474Y-74145833D01*
X115135008Y-74148009D01*
X115181338Y-74148772D01*
X115217129Y-74148845D01*
X115351955Y-74148845D01*
X115351955Y-74645556D01*
X115229300Y-74645556D01*
X115173213Y-74646069D01*
X115134667Y-74648124D01*
X115108639Y-74652492D01*
X115090103Y-74659944D01*
X115076900Y-74668953D01*
X115052396Y-74699856D01*
X115049494Y-74734804D01*
X115066911Y-74768262D01*
X115076041Y-74777396D01*
X115088145Y-74783848D01*
X115106999Y-74788103D01*
X115136380Y-74790648D01*
X115180063Y-74791971D01*
X115241825Y-74792557D01*
X115256000Y-74792625D01*
X115372369Y-74793109D01*
X115468273Y-74793359D01*
X115545823Y-74793277D01*
X115607131Y-74792769D01*
X115654310Y-74791738D01*
X115689470Y-74790087D01*
X115714724Y-74787721D01*
X115732183Y-74784543D01*
X115743959Y-74780456D01*
X115752165Y-74775366D01*
X115758355Y-74769734D01*
X115778156Y-74737872D01*
X115775467Y-74704643D01*
X115753224Y-74673265D01*
X115738874Y-74660567D01*
X115723022Y-74652474D01*
X115700446Y-74647958D01*
X115665922Y-74645994D01*
X115614224Y-74645556D01*
X115498711Y-74645556D01*
X115498711Y-74148845D01*
X115617244Y-74148845D01*
X115671852Y-74148338D01*
X115708725Y-74146302D01*
X115732693Y-74141965D01*
X115748585Y-74134553D01*
X115758355Y-74126267D01*
X115778156Y-74094406D01*
X115775467Y-74061177D01*
G37*
X115775467Y-74061177D02*
X115753224Y-74029798D01*
X115725515Y-74002089D01*
X115416080Y-74002089D01*
X115324201Y-74002162D01*
X115252160Y-74002505D01*
X115197220Y-74003308D01*
X115156640Y-74004759D01*
X115127683Y-74007048D01*
X115107609Y-74010364D01*
X115093679Y-74014895D01*
X115083155Y-74020831D01*
X115076900Y-74025486D01*
X115052327Y-74056217D01*
X115049659Y-74091504D01*
X115064729Y-74123755D01*
X115073626Y-74134412D01*
X115085443Y-74141536D01*
X115104474Y-74145833D01*
X115135008Y-74148009D01*
X115181338Y-74148772D01*
X115217129Y-74148845D01*
X115351955Y-74148845D01*
X115351955Y-74645556D01*
X115229300Y-74645556D01*
X115173213Y-74646069D01*
X115134667Y-74648124D01*
X115108639Y-74652492D01*
X115090103Y-74659944D01*
X115076900Y-74668953D01*
X115052396Y-74699856D01*
X115049494Y-74734804D01*
X115066911Y-74768262D01*
X115076041Y-74777396D01*
X115088145Y-74783848D01*
X115106999Y-74788103D01*
X115136380Y-74790648D01*
X115180063Y-74791971D01*
X115241825Y-74792557D01*
X115256000Y-74792625D01*
X115372369Y-74793109D01*
X115468273Y-74793359D01*
X115545823Y-74793277D01*
X115607131Y-74792769D01*
X115654310Y-74791738D01*
X115689470Y-74790087D01*
X115714724Y-74787721D01*
X115732183Y-74784543D01*
X115743959Y-74780456D01*
X115752165Y-74775366D01*
X115758355Y-74769734D01*
X115778156Y-74737872D01*
X115775467Y-74704643D01*
X115753224Y-74673265D01*
X115738874Y-74660567D01*
X115723022Y-74652474D01*
X115700446Y-74647958D01*
X115665922Y-74645994D01*
X115614224Y-74645556D01*
X115498711Y-74645556D01*
X115498711Y-74148845D01*
X115617244Y-74148845D01*
X115671852Y-74148338D01*
X115708725Y-74146302D01*
X115732693Y-74141965D01*
X115748585Y-74134553D01*
X115758355Y-74126267D01*
X115778156Y-74094406D01*
X115775467Y-74061177D01*
G36*
X115780837Y-75326935D02*
G01*
X115780458Y-75248228D01*
X115779667Y-75187137D01*
X115778330Y-75141183D01*
X115776317Y-75107886D01*
X115773494Y-75084764D01*
X115769731Y-75069338D01*
X115764895Y-75059129D01*
X115761178Y-75054187D01*
X115728642Y-75028543D01*
X115694862Y-75025441D01*
X115664174Y-75041289D01*
X115651911Y-75051652D01*
X115643550Y-75062804D01*
X115638343Y-75078965D01*
X115635543Y-75104358D01*
X115634404Y-75143202D01*
X115634179Y-75199720D01*
X115634178Y-75210820D01*
X115634178Y-75356756D01*
X115363244Y-75356756D01*
X115277846Y-75356852D01*
X115212136Y-75357289D01*
X115163226Y-75358288D01*
X115128227Y-75360072D01*
X115104251Y-75362863D01*
X115088407Y-75366883D01*
X115077809Y-75372355D01*
X115069733Y-75379334D01*
X115049888Y-75412266D01*
X115051452Y-75446646D01*
X115074094Y-75477824D01*
X115076900Y-75480114D01*
X115087508Y-75487571D01*
X115099919Y-75493253D01*
X115117150Y-75497399D01*
X115142216Y-75500250D01*
X115178133Y-75502046D01*
X115227917Y-75503028D01*
X115294583Y-75503436D01*
X115370411Y-75503511D01*
X115634178Y-75503511D01*
X115634178Y-75642873D01*
X115634582Y-75702678D01*
X115636160Y-75744082D01*
X115639453Y-75771252D01*
X115645008Y-75788354D01*
X115653369Y-75799557D01*
X115654822Y-75800917D01*
X115688061Y-75817275D01*
X115725638Y-75815828D01*
X115758355Y-75797022D01*
X115764702Y-75789750D01*
X115769734Y-75780373D01*
X115773604Y-75766391D01*
X115776463Y-75745304D01*
X115778465Y-75714611D01*
X115779761Y-75671811D01*
X115780502Y-75614405D01*
X115780842Y-75539890D01*
X115780932Y-75445767D01*
X115780933Y-75425740D01*
X115780837Y-75326935D01*
G37*
X115780837Y-75326935D02*
X115780458Y-75248228D01*
X115779667Y-75187137D01*
X115778330Y-75141183D01*
X115776317Y-75107886D01*
X115773494Y-75084764D01*
X115769731Y-75069338D01*
X115764895Y-75059129D01*
X115761178Y-75054187D01*
X115728642Y-75028543D01*
X115694862Y-75025441D01*
X115664174Y-75041289D01*
X115651911Y-75051652D01*
X115643550Y-75062804D01*
X115638343Y-75078965D01*
X115635543Y-75104358D01*
X115634404Y-75143202D01*
X115634179Y-75199720D01*
X115634178Y-75210820D01*
X115634178Y-75356756D01*
X115363244Y-75356756D01*
X115277846Y-75356852D01*
X115212136Y-75357289D01*
X115163226Y-75358288D01*
X115128227Y-75360072D01*
X115104251Y-75362863D01*
X115088407Y-75366883D01*
X115077809Y-75372355D01*
X115069733Y-75379334D01*
X115049888Y-75412266D01*
X115051452Y-75446646D01*
X115074094Y-75477824D01*
X115076900Y-75480114D01*
X115087508Y-75487571D01*
X115099919Y-75493253D01*
X115117150Y-75497399D01*
X115142216Y-75500250D01*
X115178133Y-75502046D01*
X115227917Y-75503028D01*
X115294583Y-75503436D01*
X115370411Y-75503511D01*
X115634178Y-75503511D01*
X115634178Y-75642873D01*
X115634582Y-75702678D01*
X115636160Y-75744082D01*
X115639453Y-75771252D01*
X115645008Y-75788354D01*
X115653369Y-75799557D01*
X115654822Y-75800917D01*
X115688061Y-75817275D01*
X115725638Y-75815828D01*
X115758355Y-75797022D01*
X115764702Y-75789750D01*
X115769734Y-75780373D01*
X115773604Y-75766391D01*
X115776463Y-75745304D01*
X115778465Y-75714611D01*
X115779761Y-75671811D01*
X115780502Y-75614405D01*
X115780842Y-75539890D01*
X115780932Y-75445767D01*
X115780933Y-75425740D01*
X115780837Y-75326935D01*
G36*
X115774123Y-76101386D02*
G01*
X115759353Y-76077673D01*
X115737773Y-76051022D01*
X115416227Y-76051022D01*
X115322170Y-76051107D01*
X115248068Y-76051471D01*
X115191296Y-76052276D01*
X115149232Y-76053687D01*
X115119252Y-76055867D01*
X115098733Y-76058979D01*
X115085051Y-76063186D01*
X115075584Y-76068652D01*
X115070918Y-76072528D01*
X115050425Y-76103966D01*
X115051261Y-76139767D01*
X115068736Y-76171127D01*
X115090316Y-76197778D01*
X115737773Y-76197778D01*
X115759353Y-76171127D01*
X115775051Y-76145406D01*
X115780933Y-76124400D01*
X115774123Y-76101386D01*
G37*
X115774123Y-76101386D02*
X115759353Y-76077673D01*
X115737773Y-76051022D01*
X115416227Y-76051022D01*
X115322170Y-76051107D01*
X115248068Y-76051471D01*
X115191296Y-76052276D01*
X115149232Y-76053687D01*
X115119252Y-76055867D01*
X115098733Y-76058979D01*
X115085051Y-76063186D01*
X115075584Y-76068652D01*
X115070918Y-76072528D01*
X115050425Y-76103966D01*
X115051261Y-76139767D01*
X115068736Y-76171127D01*
X115090316Y-76197778D01*
X115737773Y-76197778D01*
X115759353Y-76171127D01*
X115775051Y-76145406D01*
X115780933Y-76124400D01*
X115774123Y-76101386D01*
G36*
X115778966Y-76545335D02*
G01*
X115771965Y-76525745D01*
X115771623Y-76524990D01*
X115751322Y-76498387D01*
X115730439Y-76483730D01*
X115720648Y-76480862D01*
X115707639Y-76481004D01*
X115689105Y-76485039D01*
X115662743Y-76493854D01*
X115626248Y-76508331D01*
X115577313Y-76529355D01*
X115513635Y-76557812D01*
X115432907Y-76594585D01*
X115388784Y-76614825D01*
X115310015Y-76651375D01*
X115237577Y-76685685D01*
X115174120Y-76716448D01*
X115122292Y-76742352D01*
X115084741Y-76762090D01*
X115064116Y-76774350D01*
X115061267Y-76776776D01*
X115048698Y-76807817D01*
X115050381Y-76842879D01*
X115065668Y-76871000D01*
X115066911Y-76872146D01*
X115083846Y-76883332D01*
X115116830Y-76902096D01*
X115161620Y-76926125D01*
X115213968Y-76953103D01*
X115233258Y-76962799D01*
X115379850Y-77035986D01*
X115220607Y-77115760D01*
X115165585Y-77144233D01*
X115117868Y-77170650D01*
X115081107Y-77192852D01*
X115058956Y-77208681D01*
X115054259Y-77214046D01*
X115047898Y-77255743D01*
X115061267Y-77290151D01*
X115075554Y-77300272D01*
X115107308Y-77317786D01*
X115153403Y-77341265D01*
X115210715Y-77369280D01*
X115276120Y-77400401D01*
X115346493Y-77433201D01*
X115418709Y-77466250D01*
X115489645Y-77498119D01*
X115556175Y-77527381D01*
X115615174Y-77552605D01*
X115663519Y-77572364D01*
X115698085Y-77585228D01*
X115715747Y-77589769D01*
X115716387Y-77589723D01*
X115738612Y-77578674D01*
X115761247Y-77556590D01*
X115762232Y-77555290D01*
X115777575Y-77528147D01*
X115777426Y-77503042D01*
X115774534Y-77493632D01*
X115768282Y-77482166D01*
X115755986Y-77469990D01*
X115735092Y-77455643D01*
X115703051Y-77437664D01*
X115657312Y-77414593D01*
X115595323Y-77384970D01*
X115538102Y-77358255D01*
X115471774Y-77327520D01*
X115412126Y-77299979D01*
X115362275Y-77277062D01*
X115325336Y-77260202D01*
X115304427Y-77250827D01*
X115301155Y-77249460D01*
X115306503Y-77243311D01*
X115328891Y-77229178D01*
X115365054Y-77208943D01*
X115411723Y-77184485D01*
X115430978Y-77174752D01*
X115495996Y-77141783D01*
X115543346Y-77116357D01*
X115575781Y-77096388D01*
X115596054Y-77079790D01*
X115606918Y-77064476D01*
X115611125Y-77048360D01*
X115611600Y-77037857D01*
X115609958Y-77019330D01*
X115603169Y-77003096D01*
X115588434Y-76986965D01*
X115562956Y-76968749D01*
X115523939Y-76946261D01*
X115468586Y-76917311D01*
X115437097Y-76901338D01*
X115386913Y-76875430D01*
X115345296Y-76852833D01*
X115315758Y-76835542D01*
X115301811Y-76825550D01*
X115301230Y-76824191D01*
X115312207Y-76817739D01*
X115340710Y-76803292D01*
X115383756Y-76782297D01*
X115438362Y-76756203D01*
X115501546Y-76726454D01*
X115532929Y-76711820D01*
X115613922Y-76673750D01*
X115676244Y-76643095D01*
X115721929Y-76618263D01*
X115753011Y-76597663D01*
X115771522Y-76579702D01*
X115779496Y-76562790D01*
X115778966Y-76545335D01*
G37*
X115778966Y-76545335D02*
X115771965Y-76525745D01*
X115771623Y-76524990D01*
X115751322Y-76498387D01*
X115730439Y-76483730D01*
X115720648Y-76480862D01*
X115707639Y-76481004D01*
X115689105Y-76485039D01*
X115662743Y-76493854D01*
X115626248Y-76508331D01*
X115577313Y-76529355D01*
X115513635Y-76557812D01*
X115432907Y-76594585D01*
X115388784Y-76614825D01*
X115310015Y-76651375D01*
X115237577Y-76685685D01*
X115174120Y-76716448D01*
X115122292Y-76742352D01*
X115084741Y-76762090D01*
X115064116Y-76774350D01*
X115061267Y-76776776D01*
X115048698Y-76807817D01*
X115050381Y-76842879D01*
X115065668Y-76871000D01*
X115066911Y-76872146D01*
X115083846Y-76883332D01*
X115116830Y-76902096D01*
X115161620Y-76926125D01*
X115213968Y-76953103D01*
X115233258Y-76962799D01*
X115379850Y-77035986D01*
X115220607Y-77115760D01*
X115165585Y-77144233D01*
X115117868Y-77170650D01*
X115081107Y-77192852D01*
X115058956Y-77208681D01*
X115054259Y-77214046D01*
X115047898Y-77255743D01*
X115061267Y-77290151D01*
X115075554Y-77300272D01*
X115107308Y-77317786D01*
X115153403Y-77341265D01*
X115210715Y-77369280D01*
X115276120Y-77400401D01*
X115346493Y-77433201D01*
X115418709Y-77466250D01*
X115489645Y-77498119D01*
X115556175Y-77527381D01*
X115615174Y-77552605D01*
X115663519Y-77572364D01*
X115698085Y-77585228D01*
X115715747Y-77589769D01*
X115716387Y-77589723D01*
X115738612Y-77578674D01*
X115761247Y-77556590D01*
X115762232Y-77555290D01*
X115777575Y-77528147D01*
X115777426Y-77503042D01*
X115774534Y-77493632D01*
X115768282Y-77482166D01*
X115755986Y-77469990D01*
X115735092Y-77455643D01*
X115703051Y-77437664D01*
X115657312Y-77414593D01*
X115595323Y-77384970D01*
X115538102Y-77358255D01*
X115471774Y-77327520D01*
X115412126Y-77299979D01*
X115362275Y-77277062D01*
X115325336Y-77260202D01*
X115304427Y-77250827D01*
X115301155Y-77249460D01*
X115306503Y-77243311D01*
X115328891Y-77229178D01*
X115365054Y-77208943D01*
X115411723Y-77184485D01*
X115430978Y-77174752D01*
X115495996Y-77141783D01*
X115543346Y-77116357D01*
X115575781Y-77096388D01*
X115596054Y-77079790D01*
X115606918Y-77064476D01*
X115611125Y-77048360D01*
X115611600Y-77037857D01*
X115609958Y-77019330D01*
X115603169Y-77003096D01*
X115588434Y-76986965D01*
X115562956Y-76968749D01*
X115523939Y-76946261D01*
X115468586Y-76917311D01*
X115437097Y-76901338D01*
X115386913Y-76875430D01*
X115345296Y-76852833D01*
X115315758Y-76835542D01*
X115301811Y-76825550D01*
X115301230Y-76824191D01*
X115312207Y-76817739D01*
X115340710Y-76803292D01*
X115383756Y-76782297D01*
X115438362Y-76756203D01*
X115501546Y-76726454D01*
X115532929Y-76711820D01*
X115613922Y-76673750D01*
X115676244Y-76643095D01*
X115721929Y-76618263D01*
X115753011Y-76597663D01*
X115771522Y-76579702D01*
X115779496Y-76562790D01*
X115778966Y-76545335D01*
G36*
X115780725Y-79271691D02*
G01*
X115776364Y-79142712D01*
X115763139Y-79033009D01*
X115740259Y-78940774D01*
X115706930Y-78864198D01*
X115662362Y-78801473D01*
X115605764Y-78750788D01*
X115536342Y-78710337D01*
X115534649Y-78709541D01*
X115472517Y-78685399D01*
X115417491Y-78676797D01*
X115362113Y-78683769D01*
X115298927Y-78706346D01*
X115289311Y-78710628D01*
X115233034Y-78739828D01*
X115189549Y-78772644D01*
X115152583Y-78814998D01*
X115115865Y-78872810D01*
X115113948Y-78876169D01*
X115089773Y-78926496D01*
X115071718Y-78983379D01*
X115059161Y-79050473D01*
X115051478Y-79131435D01*
X115048047Y-79229918D01*
X115047749Y-79264714D01*
X115047155Y-79430406D01*
X115076900Y-79453803D01*
X115086681Y-79460743D01*
X115098103Y-79466158D01*
X115113905Y-79470235D01*
X115136825Y-79473163D01*
X115169604Y-79475133D01*
X115193911Y-79475775D01*
X115193911Y-79319156D01*
X115193911Y-79225274D01*
X115195517Y-79170336D01*
X115199745Y-79113940D01*
X115205708Y-79067655D01*
X115206210Y-79064861D01*
X115228264Y-78982652D01*
X115261400Y-78918886D01*
X115307153Y-78871548D01*
X115367061Y-78838618D01*
X115382939Y-78832892D01*
X115407667Y-78827279D01*
X115432098Y-78829709D01*
X115464600Y-78841533D01*
X115480566Y-78848660D01*
X115522994Y-78872000D01*
X115552760Y-78900120D01*
X115573489Y-78931060D01*
X115600463Y-78993034D01*
X115620002Y-79072349D01*
X115631254Y-79164747D01*
X115633730Y-79231667D01*
X115634178Y-79319156D01*
X115193911Y-79319156D01*
X115193911Y-79475775D01*
X115214979Y-79476332D01*
X115275689Y-79476950D01*
X115354474Y-79477175D01*
X115416080Y-79477200D01*
X115725515Y-79477200D01*
X115753224Y-79449491D01*
X115764456Y-79437194D01*
X115772147Y-79423897D01*
X115776960Y-79405328D01*
X115779554Y-79377214D01*
X115780590Y-79335283D01*
X115780730Y-79275263D01*
X115780725Y-79271691D01*
G37*
X115780725Y-79271691D02*
X115776364Y-79142712D01*
X115763139Y-79033009D01*
X115740259Y-78940774D01*
X115706930Y-78864198D01*
X115662362Y-78801473D01*
X115605764Y-78750788D01*
X115536342Y-78710337D01*
X115534649Y-78709541D01*
X115472517Y-78685399D01*
X115417491Y-78676797D01*
X115362113Y-78683769D01*
X115298927Y-78706346D01*
X115289311Y-78710628D01*
X115233034Y-78739828D01*
X115189549Y-78772644D01*
X115152583Y-78814998D01*
X115115865Y-78872810D01*
X115113948Y-78876169D01*
X115089773Y-78926496D01*
X115071718Y-78983379D01*
X115059161Y-79050473D01*
X115051478Y-79131435D01*
X115048047Y-79229918D01*
X115047749Y-79264714D01*
X115047155Y-79430406D01*
X115076900Y-79453803D01*
X115086681Y-79460743D01*
X115098103Y-79466158D01*
X115113905Y-79470235D01*
X115136825Y-79473163D01*
X115169604Y-79475133D01*
X115193911Y-79475775D01*
X115193911Y-79319156D01*
X115193911Y-79225274D01*
X115195517Y-79170336D01*
X115199745Y-79113940D01*
X115205708Y-79067655D01*
X115206210Y-79064861D01*
X115228264Y-78982652D01*
X115261400Y-78918886D01*
X115307153Y-78871548D01*
X115367061Y-78838618D01*
X115382939Y-78832892D01*
X115407667Y-78827279D01*
X115432098Y-78829709D01*
X115464600Y-78841533D01*
X115480566Y-78848660D01*
X115522994Y-78872000D01*
X115552760Y-78900120D01*
X115573489Y-78931060D01*
X115600463Y-78993034D01*
X115620002Y-79072349D01*
X115631254Y-79164747D01*
X115633730Y-79231667D01*
X115634178Y-79319156D01*
X115193911Y-79319156D01*
X115193911Y-79475775D01*
X115214979Y-79476332D01*
X115275689Y-79476950D01*
X115354474Y-79477175D01*
X115416080Y-79477200D01*
X115725515Y-79477200D01*
X115753224Y-79449491D01*
X115764456Y-79437194D01*
X115772147Y-79423897D01*
X115776960Y-79405328D01*
X115779554Y-79377214D01*
X115780590Y-79335283D01*
X115780730Y-79275263D01*
X115780725Y-79271691D01*
G36*
X115780740Y-80059657D02*
G01*
X115779826Y-79983299D01*
X115777689Y-79924783D01*
X115773825Y-79881745D01*
X115767733Y-79851817D01*
X115758910Y-79832632D01*
X115746854Y-79821824D01*
X115731061Y-79817027D01*
X115711030Y-79815873D01*
X115708665Y-79815867D01*
X115686008Y-79816869D01*
X115668497Y-79821604D01*
X115655426Y-79832667D01*
X115646087Y-79852652D01*
X115639773Y-79884154D01*
X115635778Y-79929768D01*
X115633394Y-79992087D01*
X115631914Y-80073707D01*
X115631586Y-80098723D01*
X115628533Y-80340800D01*
X115563622Y-80344186D01*
X115498711Y-80347571D01*
X115498711Y-80179424D01*
X115498469Y-80113734D01*
X115497444Y-80066828D01*
X115495189Y-80034917D01*
X115491258Y-80014209D01*
X115485202Y-80000916D01*
X115476576Y-79991245D01*
X115476507Y-79991183D01*
X115442888Y-79973644D01*
X115406552Y-79974278D01*
X115375577Y-79992686D01*
X115372393Y-79996329D01*
X115364188Y-80009259D01*
X115358479Y-80026976D01*
X115354838Y-80053430D01*
X115352833Y-80092568D01*
X115352036Y-80148338D01*
X115351955Y-80184006D01*
X115351955Y-80346445D01*
X115193911Y-80346445D01*
X115193911Y-80099839D01*
X115193769Y-80018420D01*
X115193186Y-79956590D01*
X115191932Y-79911363D01*
X115189773Y-79879752D01*
X115186477Y-79858769D01*
X115181811Y-79845427D01*
X115175543Y-79836739D01*
X115173267Y-79834550D01*
X115141720Y-79818386D01*
X115105832Y-79817203D01*
X115074715Y-79830464D01*
X115064729Y-79840957D01*
X115059231Y-79851871D01*
X115054978Y-79868783D01*
X115051820Y-79894367D01*
X115049608Y-79931299D01*
X115048194Y-79982254D01*
X115047428Y-80049906D01*
X115047162Y-80136931D01*
X115047155Y-80156606D01*
X115047213Y-80245089D01*
X115047533Y-80313773D01*
X115048333Y-80365436D01*
X115049833Y-80402855D01*
X115052251Y-80428810D01*
X115055806Y-80446078D01*
X115060718Y-80457438D01*
X115067205Y-80465668D01*
X115071862Y-80470183D01*
X115080111Y-80476979D01*
X115090331Y-80482288D01*
X115105200Y-80486294D01*
X115127398Y-80489179D01*
X115159607Y-80491126D01*
X115204504Y-80492319D01*
X115264772Y-80492939D01*
X115343089Y-80493171D01*
X115409006Y-80493200D01*
X115501372Y-80493129D01*
X115573883Y-80492792D01*
X115629263Y-80492002D01*
X115670235Y-80490574D01*
X115699522Y-80488321D01*
X115719847Y-80485057D01*
X115733934Y-80480596D01*
X115744505Y-80474752D01*
X115751189Y-80469803D01*
X115780933Y-80446406D01*
X115780933Y-80156226D01*
X115780740Y-80059657D01*
G37*
X115780740Y-80059657D02*
X115779826Y-79983299D01*
X115777689Y-79924783D01*
X115773825Y-79881745D01*
X115767733Y-79851817D01*
X115758910Y-79832632D01*
X115746854Y-79821824D01*
X115731061Y-79817027D01*
X115711030Y-79815873D01*
X115708665Y-79815867D01*
X115686008Y-79816869D01*
X115668497Y-79821604D01*
X115655426Y-79832667D01*
X115646087Y-79852652D01*
X115639773Y-79884154D01*
X115635778Y-79929768D01*
X115633394Y-79992087D01*
X115631914Y-80073707D01*
X115631586Y-80098723D01*
X115628533Y-80340800D01*
X115563622Y-80344186D01*
X115498711Y-80347571D01*
X115498711Y-80179424D01*
X115498469Y-80113734D01*
X115497444Y-80066828D01*
X115495189Y-80034917D01*
X115491258Y-80014209D01*
X115485202Y-80000916D01*
X115476576Y-79991245D01*
X115476507Y-79991183D01*
X115442888Y-79973644D01*
X115406552Y-79974278D01*
X115375577Y-79992686D01*
X115372393Y-79996329D01*
X115364188Y-80009259D01*
X115358479Y-80026976D01*
X115354838Y-80053430D01*
X115352833Y-80092568D01*
X115352036Y-80148338D01*
X115351955Y-80184006D01*
X115351955Y-80346445D01*
X115193911Y-80346445D01*
X115193911Y-80099839D01*
X115193769Y-80018420D01*
X115193186Y-79956590D01*
X115191932Y-79911363D01*
X115189773Y-79879752D01*
X115186477Y-79858769D01*
X115181811Y-79845427D01*
X115175543Y-79836739D01*
X115173267Y-79834550D01*
X115141720Y-79818386D01*
X115105832Y-79817203D01*
X115074715Y-79830464D01*
X115064729Y-79840957D01*
X115059231Y-79851871D01*
X115054978Y-79868783D01*
X115051820Y-79894367D01*
X115049608Y-79931299D01*
X115048194Y-79982254D01*
X115047428Y-80049906D01*
X115047162Y-80136931D01*
X115047155Y-80156606D01*
X115047213Y-80245089D01*
X115047533Y-80313773D01*
X115048333Y-80365436D01*
X115049833Y-80402855D01*
X115052251Y-80428810D01*
X115055806Y-80446078D01*
X115060718Y-80457438D01*
X115067205Y-80465668D01*
X115071862Y-80470183D01*
X115080111Y-80476979D01*
X115090331Y-80482288D01*
X115105200Y-80486294D01*
X115127398Y-80489179D01*
X115159607Y-80491126D01*
X115204504Y-80492319D01*
X115264772Y-80492939D01*
X115343089Y-80493171D01*
X115409006Y-80493200D01*
X115501372Y-80493129D01*
X115573883Y-80492792D01*
X115629263Y-80492002D01*
X115670235Y-80490574D01*
X115699522Y-80488321D01*
X115719847Y-80485057D01*
X115733934Y-80480596D01*
X115744505Y-80474752D01*
X115751189Y-80469803D01*
X115780933Y-80446406D01*
X115780933Y-80156226D01*
X115780740Y-80059657D01*
G36*
X115776552Y-81590114D02*
G01*
X115762727Y-81566548D01*
X115740119Y-81535735D01*
X115707662Y-81496078D01*
X115664292Y-81445980D01*
X115608942Y-81383843D01*
X115540549Y-81308072D01*
X115461916Y-81221334D01*
X115298122Y-81040711D01*
X115517971Y-81035067D01*
X115593649Y-81033029D01*
X115650006Y-81031063D01*
X115690294Y-81028734D01*
X115717765Y-81025606D01*
X115735671Y-81021245D01*
X115747263Y-81015216D01*
X115755792Y-81007084D01*
X115759377Y-81002772D01*
X115778330Y-80968241D01*
X115775559Y-80935383D01*
X115759367Y-80909318D01*
X115737801Y-80882667D01*
X115422849Y-80879352D01*
X115330221Y-80878435D01*
X115257456Y-80877968D01*
X115201839Y-80878113D01*
X115160658Y-80879032D01*
X115131197Y-80880887D01*
X115110745Y-80883839D01*
X115096587Y-80888050D01*
X115086009Y-80893682D01*
X115077526Y-80899927D01*
X115061793Y-80913439D01*
X115051364Y-80926883D01*
X115047361Y-80942124D01*
X115050906Y-80961026D01*
X115063121Y-80985455D01*
X115085129Y-81017273D01*
X115118051Y-81058348D01*
X115163009Y-81110542D01*
X115221125Y-81175722D01*
X115287901Y-81249556D01*
X115528542Y-81514845D01*
X115309411Y-81520489D01*
X115233872Y-81522531D01*
X115177646Y-81524502D01*
X115137476Y-81526839D01*
X115110104Y-81529981D01*
X115092272Y-81534364D01*
X115080721Y-81540424D01*
X115072193Y-81548600D01*
X115068718Y-81552784D01*
X115049628Y-81589765D01*
X115052507Y-81624708D01*
X115076900Y-81655136D01*
X115086714Y-81662097D01*
X115098174Y-81667523D01*
X115114032Y-81671603D01*
X115137037Y-81674529D01*
X115169938Y-81676492D01*
X115215484Y-81677683D01*
X115276427Y-81678292D01*
X115355514Y-81678511D01*
X115414044Y-81678534D01*
X115505593Y-81678460D01*
X115577313Y-81678113D01*
X115631955Y-81677301D01*
X115672268Y-81675833D01*
X115701002Y-81673519D01*
X115720907Y-81670167D01*
X115734732Y-81665588D01*
X115745228Y-81659589D01*
X115751189Y-81655136D01*
X115765309Y-81643850D01*
X115775971Y-81633301D01*
X115782108Y-81621893D01*
X115782657Y-81608030D01*
X115776552Y-81590114D01*
G37*
X115776552Y-81590114D02*
X115762727Y-81566548D01*
X115740119Y-81535735D01*
X115707662Y-81496078D01*
X115664292Y-81445980D01*
X115608942Y-81383843D01*
X115540549Y-81308072D01*
X115461916Y-81221334D01*
X115298122Y-81040711D01*
X115517971Y-81035067D01*
X115593649Y-81033029D01*
X115650006Y-81031063D01*
X115690294Y-81028734D01*
X115717765Y-81025606D01*
X115735671Y-81021245D01*
X115747263Y-81015216D01*
X115755792Y-81007084D01*
X115759377Y-81002772D01*
X115778330Y-80968241D01*
X115775559Y-80935383D01*
X115759367Y-80909318D01*
X115737801Y-80882667D01*
X115422849Y-80879352D01*
X115330221Y-80878435D01*
X115257456Y-80877968D01*
X115201839Y-80878113D01*
X115160658Y-80879032D01*
X115131197Y-80880887D01*
X115110745Y-80883839D01*
X115096587Y-80888050D01*
X115086009Y-80893682D01*
X115077526Y-80899927D01*
X115061793Y-80913439D01*
X115051364Y-80926883D01*
X115047361Y-80942124D01*
X115050906Y-80961026D01*
X115063121Y-80985455D01*
X115085129Y-81017273D01*
X115118051Y-81058348D01*
X115163009Y-81110542D01*
X115221125Y-81175722D01*
X115287901Y-81249556D01*
X115528542Y-81514845D01*
X115309411Y-81520489D01*
X115233872Y-81522531D01*
X115177646Y-81524502D01*
X115137476Y-81526839D01*
X115110104Y-81529981D01*
X115092272Y-81534364D01*
X115080721Y-81540424D01*
X115072193Y-81548600D01*
X115068718Y-81552784D01*
X115049628Y-81589765D01*
X115052507Y-81624708D01*
X115076900Y-81655136D01*
X115086714Y-81662097D01*
X115098174Y-81667523D01*
X115114032Y-81671603D01*
X115137037Y-81674529D01*
X115169938Y-81676492D01*
X115215484Y-81677683D01*
X115276427Y-81678292D01*
X115355514Y-81678511D01*
X115414044Y-81678534D01*
X115505593Y-81678460D01*
X115577313Y-81678113D01*
X115631955Y-81677301D01*
X115672268Y-81675833D01*
X115701002Y-81673519D01*
X115720907Y-81670167D01*
X115734732Y-81665588D01*
X115745228Y-81659589D01*
X115751189Y-81655136D01*
X115765309Y-81643850D01*
X115775971Y-81633301D01*
X115782108Y-81621893D01*
X115782657Y-81608030D01*
X115776552Y-81590114D01*
G36*
X115775401Y-82240081D02*
G01*
X115763905Y-82171565D01*
X115746033Y-82118943D01*
X115722501Y-82084708D01*
X115709076Y-82075379D01*
X115677852Y-82065893D01*
X115649605Y-82072277D01*
X115622818Y-82092430D01*
X115610287Y-82123745D01*
X115611304Y-82169183D01*
X115618094Y-82204326D01*
X115631029Y-82282419D01*
X115632258Y-82362226D01*
X115621759Y-82451555D01*
X115617310Y-82476229D01*
X115593892Y-82559291D01*
X115559055Y-82624273D01*
X115513396Y-82670461D01*
X115457506Y-82697145D01*
X115428612Y-82702663D01*
X115369988Y-82699051D01*
X115318121Y-82675729D01*
X115274022Y-82634824D01*
X115238701Y-82578459D01*
X115213171Y-82508760D01*
X115198441Y-82427852D01*
X115195522Y-82337860D01*
X115205425Y-82240910D01*
X115206359Y-82235436D01*
X115213541Y-82196875D01*
X115220479Y-82175494D01*
X115230773Y-82166227D01*
X115248024Y-82164006D01*
X115257159Y-82163956D01*
X115295511Y-82163956D01*
X115295511Y-82232431D01*
X115299653Y-82292900D01*
X115312853Y-82334165D01*
X115336270Y-82358175D01*
X115371064Y-82366877D01*
X115375606Y-82366983D01*
X115405346Y-82361892D01*
X115426581Y-82344433D01*
X115440634Y-82311939D01*
X115448827Y-82261743D01*
X115451839Y-82213123D01*
X115453567Y-82142456D01*
X115450930Y-82091198D01*
X115441200Y-82056239D01*
X115421647Y-82034470D01*
X115389544Y-82022780D01*
X115342162Y-82018060D01*
X115279929Y-82017200D01*
X115210465Y-82018609D01*
X115163214Y-82022848D01*
X115137988Y-82029936D01*
X115136012Y-82031311D01*
X115104492Y-82070228D01*
X115079530Y-82127286D01*
X115061660Y-82198869D01*
X115051414Y-82281358D01*
X115049327Y-82371139D01*
X115055932Y-82464592D01*
X115064044Y-82519556D01*
X115088446Y-82605766D01*
X115128338Y-82685892D01*
X115180113Y-82752977D01*
X115190461Y-82763173D01*
X115233965Y-82796302D01*
X115287882Y-82826194D01*
X115344408Y-82849357D01*
X115395741Y-82862298D01*
X115415456Y-82863858D01*
X115456581Y-82857218D01*
X115507748Y-82839568D01*
X115561606Y-82814297D01*
X115610805Y-82784789D01*
X115643666Y-82758719D01*
X115692548Y-82697765D01*
X115731455Y-82618969D01*
X115759506Y-82525157D01*
X115775821Y-82419150D01*
X115779808Y-82322000D01*
X115775401Y-82240081D01*
G37*
X115775401Y-82240081D02*
X115763905Y-82171565D01*
X115746033Y-82118943D01*
X115722501Y-82084708D01*
X115709076Y-82075379D01*
X115677852Y-82065893D01*
X115649605Y-82072277D01*
X115622818Y-82092430D01*
X115610287Y-82123745D01*
X115611304Y-82169183D01*
X115618094Y-82204326D01*
X115631029Y-82282419D01*
X115632258Y-82362226D01*
X115621759Y-82451555D01*
X115617310Y-82476229D01*
X115593892Y-82559291D01*
X115559055Y-82624273D01*
X115513396Y-82670461D01*
X115457506Y-82697145D01*
X115428612Y-82702663D01*
X115369988Y-82699051D01*
X115318121Y-82675729D01*
X115274022Y-82634824D01*
X115238701Y-82578459D01*
X115213171Y-82508760D01*
X115198441Y-82427852D01*
X115195522Y-82337860D01*
X115205425Y-82240910D01*
X115206359Y-82235436D01*
X115213541Y-82196875D01*
X115220479Y-82175494D01*
X115230773Y-82166227D01*
X115248024Y-82164006D01*
X115257159Y-82163956D01*
X115295511Y-82163956D01*
X115295511Y-82232431D01*
X115299653Y-82292900D01*
X115312853Y-82334165D01*
X115336270Y-82358175D01*
X115371064Y-82366877D01*
X115375606Y-82366983D01*
X115405346Y-82361892D01*
X115426581Y-82344433D01*
X115440634Y-82311939D01*
X115448827Y-82261743D01*
X115451839Y-82213123D01*
X115453567Y-82142456D01*
X115450930Y-82091198D01*
X115441200Y-82056239D01*
X115421647Y-82034470D01*
X115389544Y-82022780D01*
X115342162Y-82018060D01*
X115279929Y-82017200D01*
X115210465Y-82018609D01*
X115163214Y-82022848D01*
X115137988Y-82029936D01*
X115136012Y-82031311D01*
X115104492Y-82070228D01*
X115079530Y-82127286D01*
X115061660Y-82198869D01*
X115051414Y-82281358D01*
X115049327Y-82371139D01*
X115055932Y-82464592D01*
X115064044Y-82519556D01*
X115088446Y-82605766D01*
X115128338Y-82685892D01*
X115180113Y-82752977D01*
X115190461Y-82763173D01*
X115233965Y-82796302D01*
X115287882Y-82826194D01*
X115344408Y-82849357D01*
X115395741Y-82862298D01*
X115415456Y-82863858D01*
X115456581Y-82857218D01*
X115507748Y-82839568D01*
X115561606Y-82814297D01*
X115610805Y-82784789D01*
X115643666Y-82758719D01*
X115692548Y-82697765D01*
X115731455Y-82618969D01*
X115759506Y-82525157D01*
X115775821Y-82419150D01*
X115779808Y-82322000D01*
X115775401Y-82240081D01*
G36*
X115758355Y-83213822D02*
G01*
X115750782Y-83207242D01*
X115741013Y-83202079D01*
X115726429Y-83198164D01*
X115704415Y-83195324D01*
X115672352Y-83193387D01*
X115627625Y-83192183D01*
X115567615Y-83191539D01*
X115489706Y-83191284D01*
X115414044Y-83191245D01*
X115320198Y-83191314D01*
X115246311Y-83191638D01*
X115189768Y-83192386D01*
X115147951Y-83193732D01*
X115118243Y-83195846D01*
X115098027Y-83198900D01*
X115084686Y-83203066D01*
X115075602Y-83208516D01*
X115069733Y-83213822D01*
X115050053Y-83246826D01*
X115051819Y-83281991D01*
X115073283Y-83313455D01*
X115081663Y-83320684D01*
X115091386Y-83326334D01*
X115105139Y-83330599D01*
X115125611Y-83333673D01*
X115155488Y-83335752D01*
X115197459Y-83337030D01*
X115254211Y-83337701D01*
X115328433Y-83337959D01*
X115412463Y-83338000D01*
X115725515Y-83338000D01*
X115753224Y-83310291D01*
X115776537Y-83276137D01*
X115777377Y-83243006D01*
X115758355Y-83213822D01*
G37*
X115758355Y-83213822D02*
X115750782Y-83207242D01*
X115741013Y-83202079D01*
X115726429Y-83198164D01*
X115704415Y-83195324D01*
X115672352Y-83193387D01*
X115627625Y-83192183D01*
X115567615Y-83191539D01*
X115489706Y-83191284D01*
X115414044Y-83191245D01*
X115320198Y-83191314D01*
X115246311Y-83191638D01*
X115189768Y-83192386D01*
X115147951Y-83193732D01*
X115118243Y-83195846D01*
X115098027Y-83198900D01*
X115084686Y-83203066D01*
X115075602Y-83208516D01*
X115069733Y-83213822D01*
X115050053Y-83246826D01*
X115051819Y-83281991D01*
X115073283Y-83313455D01*
X115081663Y-83320684D01*
X115091386Y-83326334D01*
X115105139Y-83330599D01*
X115125611Y-83333673D01*
X115155488Y-83335752D01*
X115197459Y-83337030D01*
X115254211Y-83337701D01*
X115328433Y-83337959D01*
X115412463Y-83338000D01*
X115725515Y-83338000D01*
X115753224Y-83310291D01*
X115776537Y-83276137D01*
X115777377Y-83243006D01*
X115758355Y-83213822D01*
G36*
X115779649Y-83981703D02*
G01*
X115774419Y-83906888D01*
X115766250Y-83837306D01*
X115755450Y-83777002D01*
X115742327Y-83730020D01*
X115727187Y-83700406D01*
X115722731Y-83695860D01*
X115688150Y-83680054D01*
X115652649Y-83684847D01*
X115622275Y-83709364D01*
X115621404Y-83710534D01*
X115612046Y-83724954D01*
X115607124Y-83740008D01*
X115606527Y-83761005D01*
X115610139Y-83793257D01*
X115617846Y-83842073D01*
X115618495Y-83846000D01*
X115627431Y-83918739D01*
X115631839Y-83997217D01*
X115631881Y-84075927D01*
X115627721Y-84149361D01*
X115619521Y-84212011D01*
X115607443Y-84258370D01*
X115606229Y-84261416D01*
X115587385Y-84295048D01*
X115568315Y-84306864D01*
X115549561Y-84297614D01*
X115531663Y-84268047D01*
X115515163Y-84218911D01*
X115500604Y-84150957D01*
X115493594Y-84105645D01*
X115480111Y-84011456D01*
X115467786Y-83936544D01*
X115455551Y-83877717D01*
X115442339Y-83831785D01*
X115427083Y-83795555D01*
X115408715Y-83765838D01*
X115386169Y-83739442D01*
X115364029Y-83718230D01*
X115333181Y-83693065D01*
X115306655Y-83680681D01*
X115273974Y-83676808D01*
X115262005Y-83676667D01*
X115222288Y-83679576D01*
X115192741Y-83691202D01*
X115166514Y-83711323D01*
X115126424Y-83752216D01*
X115095851Y-83797817D01*
X115073797Y-83851513D01*
X115059265Y-83916692D01*
X115051259Y-83996744D01*
X115048782Y-84095057D01*
X115048823Y-84111289D01*
X115050182Y-84176849D01*
X115053270Y-84241866D01*
X115057644Y-84299252D01*
X115062860Y-84341922D01*
X115063459Y-84345372D01*
X115073509Y-84387796D01*
X115086204Y-84423780D01*
X115097810Y-84444150D01*
X115128428Y-84463107D01*
X115164082Y-84464427D01*
X115195856Y-84448085D01*
X115199449Y-84444429D01*
X115210124Y-84429315D01*
X115214724Y-84410415D01*
X115213941Y-84381162D01*
X115209873Y-84345651D01*
X115206238Y-84305970D01*
X115203172Y-84250345D01*
X115200947Y-84185406D01*
X115199836Y-84117785D01*
X115199763Y-84100000D01*
X115200036Y-84032128D01*
X115201354Y-83982454D01*
X115204173Y-83946610D01*
X115208950Y-83920224D01*
X115216143Y-83898926D01*
X115222133Y-83886126D01*
X115238767Y-83858000D01*
X115253832Y-83840068D01*
X115258103Y-83837447D01*
X115275737Y-83842976D01*
X115292808Y-83869260D01*
X115308542Y-83914478D01*
X115322162Y-83976808D01*
X115325196Y-83995171D01*
X115340262Y-84091090D01*
X115352854Y-84167641D01*
X115363889Y-84227780D01*
X115374280Y-84274460D01*
X115384944Y-84310637D01*
X115396795Y-84339265D01*
X115410749Y-84363298D01*
X115427719Y-84385692D01*
X115448622Y-84409402D01*
X115455951Y-84417380D01*
X115483301Y-84445353D01*
X115504971Y-84460160D01*
X115529768Y-84465952D01*
X115561017Y-84466889D01*
X115622295Y-84456575D01*
X115674360Y-84425752D01*
X115717042Y-84374595D01*
X115750175Y-84303283D01*
X115765036Y-84252400D01*
X115774634Y-84197100D01*
X115780064Y-84130853D01*
X115781633Y-84057706D01*
X115779649Y-83981703D01*
G37*
X115779649Y-83981703D02*
X115774419Y-83906888D01*
X115766250Y-83837306D01*
X115755450Y-83777002D01*
X115742327Y-83730020D01*
X115727187Y-83700406D01*
X115722731Y-83695860D01*
X115688150Y-83680054D01*
X115652649Y-83684847D01*
X115622275Y-83709364D01*
X115621404Y-83710534D01*
X115612046Y-83724954D01*
X115607124Y-83740008D01*
X115606527Y-83761005D01*
X115610139Y-83793257D01*
X115617846Y-83842073D01*
X115618495Y-83846000D01*
X115627431Y-83918739D01*
X115631839Y-83997217D01*
X115631881Y-84075927D01*
X115627721Y-84149361D01*
X115619521Y-84212011D01*
X115607443Y-84258370D01*
X115606229Y-84261416D01*
X115587385Y-84295048D01*
X115568315Y-84306864D01*
X115549561Y-84297614D01*
X115531663Y-84268047D01*
X115515163Y-84218911D01*
X115500604Y-84150957D01*
X115493594Y-84105645D01*
X115480111Y-84011456D01*
X115467786Y-83936544D01*
X115455551Y-83877717D01*
X115442339Y-83831785D01*
X115427083Y-83795555D01*
X115408715Y-83765838D01*
X115386169Y-83739442D01*
X115364029Y-83718230D01*
X115333181Y-83693065D01*
X115306655Y-83680681D01*
X115273974Y-83676808D01*
X115262005Y-83676667D01*
X115222288Y-83679576D01*
X115192741Y-83691202D01*
X115166514Y-83711323D01*
X115126424Y-83752216D01*
X115095851Y-83797817D01*
X115073797Y-83851513D01*
X115059265Y-83916692D01*
X115051259Y-83996744D01*
X115048782Y-84095057D01*
X115048823Y-84111289D01*
X115050182Y-84176849D01*
X115053270Y-84241866D01*
X115057644Y-84299252D01*
X115062860Y-84341922D01*
X115063459Y-84345372D01*
X115073509Y-84387796D01*
X115086204Y-84423780D01*
X115097810Y-84444150D01*
X115128428Y-84463107D01*
X115164082Y-84464427D01*
X115195856Y-84448085D01*
X115199449Y-84444429D01*
X115210124Y-84429315D01*
X115214724Y-84410415D01*
X115213941Y-84381162D01*
X115209873Y-84345651D01*
X115206238Y-84305970D01*
X115203172Y-84250345D01*
X115200947Y-84185406D01*
X115199836Y-84117785D01*
X115199763Y-84100000D01*
X115200036Y-84032128D01*
X115201354Y-83982454D01*
X115204173Y-83946610D01*
X115208950Y-83920224D01*
X115216143Y-83898926D01*
X115222133Y-83886126D01*
X115238767Y-83858000D01*
X115253832Y-83840068D01*
X115258103Y-83837447D01*
X115275737Y-83842976D01*
X115292808Y-83869260D01*
X115308542Y-83914478D01*
X115322162Y-83976808D01*
X115325196Y-83995171D01*
X115340262Y-84091090D01*
X115352854Y-84167641D01*
X115363889Y-84227780D01*
X115374280Y-84274460D01*
X115384944Y-84310637D01*
X115396795Y-84339265D01*
X115410749Y-84363298D01*
X115427719Y-84385692D01*
X115448622Y-84409402D01*
X115455951Y-84417380D01*
X115483301Y-84445353D01*
X115504971Y-84460160D01*
X115529768Y-84465952D01*
X115561017Y-84466889D01*
X115622295Y-84456575D01*
X115674360Y-84425752D01*
X115717042Y-84374595D01*
X115750175Y-84303283D01*
X115765036Y-84252400D01*
X115774634Y-84197100D01*
X115780064Y-84130853D01*
X115781633Y-84057706D01*
X115779649Y-83981703D01*
G36*
X115780854Y-85002794D02*
G01*
X115780482Y-84933386D01*
X115779615Y-84880997D01*
X115778054Y-84842847D01*
X115775597Y-84816159D01*
X115772043Y-84798153D01*
X115767190Y-84786049D01*
X115760839Y-84777069D01*
X115757916Y-84773818D01*
X115726858Y-84754043D01*
X115691172Y-84750482D01*
X115659490Y-84763491D01*
X115653087Y-84769506D01*
X115646879Y-84779235D01*
X115642090Y-84794901D01*
X115638486Y-84819408D01*
X115635836Y-84855661D01*
X115633905Y-84906565D01*
X115632461Y-84975026D01*
X115631582Y-85037617D01*
X115628533Y-85285334D01*
X115563622Y-85288719D01*
X115498711Y-85292105D01*
X115498711Y-85123958D01*
X115498081Y-85050959D01*
X115495447Y-84997517D01*
X115489691Y-84960628D01*
X115479696Y-84937288D01*
X115464344Y-84924494D01*
X115442518Y-84919242D01*
X115422262Y-84918445D01*
X115397408Y-84920923D01*
X115379094Y-84930277D01*
X115366363Y-84949383D01*
X115358259Y-84981118D01*
X115353824Y-85028359D01*
X115352101Y-85093983D01*
X115351955Y-85129801D01*
X115351955Y-85290978D01*
X115193911Y-85290978D01*
X115193911Y-85042622D01*
X115193798Y-84961213D01*
X115193288Y-84899342D01*
X115192130Y-84853968D01*
X115190070Y-84822054D01*
X115186854Y-84800559D01*
X115182228Y-84786443D01*
X115175941Y-84776668D01*
X115171333Y-84771689D01*
X115144440Y-84754610D01*
X115120533Y-84749111D01*
X115091333Y-84756963D01*
X115069733Y-84771689D01*
X115062934Y-84779546D01*
X115057654Y-84789688D01*
X115053702Y-84804844D01*
X115050887Y-84827741D01*
X115049018Y-84861109D01*
X115047902Y-84907675D01*
X115047349Y-84970167D01*
X115047167Y-85051314D01*
X115047155Y-85093422D01*
X115047235Y-85183598D01*
X115047602Y-85253924D01*
X115048448Y-85307129D01*
X115049964Y-85345940D01*
X115052341Y-85373087D01*
X115055771Y-85391298D01*
X115060446Y-85403300D01*
X115066556Y-85411822D01*
X115069733Y-85415156D01*
X115077330Y-85421755D01*
X115087130Y-85426927D01*
X115101761Y-85430846D01*
X115123848Y-85433684D01*
X115156018Y-85435615D01*
X115200897Y-85436812D01*
X115261111Y-85437448D01*
X115339287Y-85437697D01*
X115412077Y-85437734D01*
X115505293Y-85437700D01*
X115578569Y-85437465D01*
X115634542Y-85436830D01*
X115675849Y-85435594D01*
X115705128Y-85433556D01*
X115725016Y-85430517D01*
X115738150Y-85426277D01*
X115747168Y-85420635D01*
X115754707Y-85413391D01*
X115756388Y-85411606D01*
X115763828Y-85402945D01*
X115769591Y-85392882D01*
X115773888Y-85378625D01*
X115776936Y-85357383D01*
X115778949Y-85326364D01*
X115780140Y-85282777D01*
X115780725Y-85223831D01*
X115780917Y-85146734D01*
X115780933Y-85092001D01*
X115780854Y-85002794D01*
G37*
X115780854Y-85002794D02*
X115780482Y-84933386D01*
X115779615Y-84880997D01*
X115778054Y-84842847D01*
X115775597Y-84816159D01*
X115772043Y-84798153D01*
X115767190Y-84786049D01*
X115760839Y-84777069D01*
X115757916Y-84773818D01*
X115726858Y-84754043D01*
X115691172Y-84750482D01*
X115659490Y-84763491D01*
X115653087Y-84769506D01*
X115646879Y-84779235D01*
X115642090Y-84794901D01*
X115638486Y-84819408D01*
X115635836Y-84855661D01*
X115633905Y-84906565D01*
X115632461Y-84975026D01*
X115631582Y-85037617D01*
X115628533Y-85285334D01*
X115563622Y-85288719D01*
X115498711Y-85292105D01*
X115498711Y-85123958D01*
X115498081Y-85050959D01*
X115495447Y-84997517D01*
X115489691Y-84960628D01*
X115479696Y-84937288D01*
X115464344Y-84924494D01*
X115442518Y-84919242D01*
X115422262Y-84918445D01*
X115397408Y-84920923D01*
X115379094Y-84930277D01*
X115366363Y-84949383D01*
X115358259Y-84981118D01*
X115353824Y-85028359D01*
X115352101Y-85093983D01*
X115351955Y-85129801D01*
X115351955Y-85290978D01*
X115193911Y-85290978D01*
X115193911Y-85042622D01*
X115193798Y-84961213D01*
X115193288Y-84899342D01*
X115192130Y-84853968D01*
X115190070Y-84822054D01*
X115186854Y-84800559D01*
X115182228Y-84786443D01*
X115175941Y-84776668D01*
X115171333Y-84771689D01*
X115144440Y-84754610D01*
X115120533Y-84749111D01*
X115091333Y-84756963D01*
X115069733Y-84771689D01*
X115062934Y-84779546D01*
X115057654Y-84789688D01*
X115053702Y-84804844D01*
X115050887Y-84827741D01*
X115049018Y-84861109D01*
X115047902Y-84907675D01*
X115047349Y-84970167D01*
X115047167Y-85051314D01*
X115047155Y-85093422D01*
X115047235Y-85183598D01*
X115047602Y-85253924D01*
X115048448Y-85307129D01*
X115049964Y-85345940D01*
X115052341Y-85373087D01*
X115055771Y-85391298D01*
X115060446Y-85403300D01*
X115066556Y-85411822D01*
X115069733Y-85415156D01*
X115077330Y-85421755D01*
X115087130Y-85426927D01*
X115101761Y-85430846D01*
X115123848Y-85433684D01*
X115156018Y-85435615D01*
X115200897Y-85436812D01*
X115261111Y-85437448D01*
X115339287Y-85437697D01*
X115412077Y-85437734D01*
X115505293Y-85437700D01*
X115578569Y-85437465D01*
X115634542Y-85436830D01*
X115675849Y-85435594D01*
X115705128Y-85433556D01*
X115725016Y-85430517D01*
X115738150Y-85426277D01*
X115747168Y-85420635D01*
X115754707Y-85413391D01*
X115756388Y-85411606D01*
X115763828Y-85402945D01*
X115769591Y-85392882D01*
X115773888Y-85378625D01*
X115776936Y-85357383D01*
X115778949Y-85326364D01*
X115780140Y-85282777D01*
X115780725Y-85223831D01*
X115780917Y-85146734D01*
X115780933Y-85092001D01*
X115780854Y-85002794D01*
G36*
X115780934Y-86411371D02*
G01*
X115780533Y-86371889D01*
X115777741Y-86256200D01*
X115769450Y-86159311D01*
X115754768Y-86077919D01*
X115732807Y-86008723D01*
X115702678Y-85948420D01*
X115663490Y-85893708D01*
X115646468Y-85874167D01*
X115606637Y-85841750D01*
X115552587Y-85812520D01*
X115492677Y-85789991D01*
X115435261Y-85777679D01*
X115414044Y-85776400D01*
X115355231Y-85784417D01*
X115290987Y-85805899D01*
X115230179Y-85836999D01*
X115181670Y-85873866D01*
X115175818Y-85879854D01*
X115134679Y-85930579D01*
X115102565Y-85986125D01*
X115078635Y-86049696D01*
X115062047Y-86124494D01*
X115051959Y-86213722D01*
X115047531Y-86320582D01*
X115047155Y-86369528D01*
X115047455Y-86431762D01*
X115048708Y-86475528D01*
X115051446Y-86504931D01*
X115056199Y-86524079D01*
X115063499Y-86537077D01*
X115069733Y-86544045D01*
X115077306Y-86550626D01*
X115087076Y-86555788D01*
X115101660Y-86559703D01*
X115123674Y-86562543D01*
X115155736Y-86564480D01*
X115200464Y-86565684D01*
X115260474Y-86566328D01*
X115338383Y-86566583D01*
X115414044Y-86566622D01*
X115514959Y-86566870D01*
X115595573Y-86566817D01*
X115634178Y-86565857D01*
X115634178Y-86419867D01*
X115193911Y-86419867D01*
X115193996Y-86326734D01*
X115195604Y-86270693D01*
X115199744Y-86211999D01*
X115205536Y-86163028D01*
X115205774Y-86161538D01*
X115224910Y-86082392D01*
X115254713Y-86021002D01*
X115297122Y-85974305D01*
X115343039Y-85944635D01*
X115393974Y-85926353D01*
X115441800Y-85927771D01*
X115493067Y-85948988D01*
X115546101Y-85990489D01*
X115585400Y-86047998D01*
X115611669Y-86122750D01*
X115620965Y-86172708D01*
X115627493Y-86229416D01*
X115632218Y-86289519D01*
X115634183Y-86340639D01*
X115634192Y-86343667D01*
X115634178Y-86419867D01*
X115634178Y-86565857D01*
X115658149Y-86565260D01*
X115704945Y-86560998D01*
X115738222Y-86552830D01*
X115760241Y-86539556D01*
X115773261Y-86519974D01*
X115779543Y-86492883D01*
X115781347Y-86457082D01*
X115780934Y-86411371D01*
G37*
X115780934Y-86411371D02*
X115780533Y-86371889D01*
X115777741Y-86256200D01*
X115769450Y-86159311D01*
X115754768Y-86077919D01*
X115732807Y-86008723D01*
X115702678Y-85948420D01*
X115663490Y-85893708D01*
X115646468Y-85874167D01*
X115606637Y-85841750D01*
X115552587Y-85812520D01*
X115492677Y-85789991D01*
X115435261Y-85777679D01*
X115414044Y-85776400D01*
X115355231Y-85784417D01*
X115290987Y-85805899D01*
X115230179Y-85836999D01*
X115181670Y-85873866D01*
X115175818Y-85879854D01*
X115134679Y-85930579D01*
X115102565Y-85986125D01*
X115078635Y-86049696D01*
X115062047Y-86124494D01*
X115051959Y-86213722D01*
X115047531Y-86320582D01*
X115047155Y-86369528D01*
X115047455Y-86431762D01*
X115048708Y-86475528D01*
X115051446Y-86504931D01*
X115056199Y-86524079D01*
X115063499Y-86537077D01*
X115069733Y-86544045D01*
X115077306Y-86550626D01*
X115087076Y-86555788D01*
X115101660Y-86559703D01*
X115123674Y-86562543D01*
X115155736Y-86564480D01*
X115200464Y-86565684D01*
X115260474Y-86566328D01*
X115338383Y-86566583D01*
X115414044Y-86566622D01*
X115514959Y-86566870D01*
X115595573Y-86566817D01*
X115634178Y-86565857D01*
X115634178Y-86419867D01*
X115193911Y-86419867D01*
X115193996Y-86326734D01*
X115195604Y-86270693D01*
X115199744Y-86211999D01*
X115205536Y-86163028D01*
X115205774Y-86161538D01*
X115224910Y-86082392D01*
X115254713Y-86021002D01*
X115297122Y-85974305D01*
X115343039Y-85944635D01*
X115393974Y-85926353D01*
X115441800Y-85927771D01*
X115493067Y-85948988D01*
X115546101Y-85990489D01*
X115585400Y-86047998D01*
X115611669Y-86122750D01*
X115620965Y-86172708D01*
X115627493Y-86229416D01*
X115632218Y-86289519D01*
X115634183Y-86340639D01*
X115634192Y-86343667D01*
X115634178Y-86419867D01*
X115634178Y-86565857D01*
X115658149Y-86565260D01*
X115704945Y-86560998D01*
X115738222Y-86552830D01*
X115760241Y-86539556D01*
X115773261Y-86519974D01*
X115779543Y-86492883D01*
X115781347Y-86457082D01*
X115780934Y-86411371D01*
%TD*%
M02*
