M48
; DRILL file {KiCad (5.1.9)-1} date 09/03/21 13:00:32
; FORMAT={-:-/ absolute / inch / decimal}
; #@! TF.CreationDate,2021-09-03T13:00:32+02:00
; #@! TF.GenerationSoftware,Kicad,Pcbnew,(5.1.9)-1
; #@! TF.FileFunction,Plated,1,2,PTH
FMAT,2
INCH
T1C0.0157
T2C0.0315
T3C0.0394
%
G90
G05
T1
X4.4141Y-3.3809
X4.4231Y-3.9524
X4.4827Y-3.1429
X4.6559Y-3.4992
X4.719Y-4.0313
X4.7433Y-3.5449
X4.786Y-3.4435
T2
X4.362Y-2.819
X4.362Y-2.919
X4.362Y-3.019
X4.362Y-3.119
X4.362Y-3.219
X4.362Y-3.319
X4.362Y-3.419
X4.362Y-3.519
X4.362Y-3.619
X4.362Y-3.719
X4.362Y-3.819
X4.362Y-3.919
X4.362Y-4.019
X4.362Y-4.119
X4.962Y-2.819
X4.962Y-2.919
X4.962Y-3.019
X4.962Y-3.119
X4.962Y-3.219
X4.962Y-3.319
X4.962Y-3.419
X4.962Y-3.519
X4.962Y-3.619
X4.962Y-3.719
X4.962Y-3.819
X4.962Y-3.919
X4.962Y-4.019
X4.962Y-4.119
T3
X4.3878Y-4.254
X4.5795Y-4.254
X4.7587Y-4.254
X4.9291Y-4.254
T0
M30
